<svg width="1500" height="329" viewBox="0 0 1500 329" fill="none" xmlns="http://www.w3.org/2000/svg">
<path d="M798.708 32.6544H795.089C792.959 32.6544 790.909 33.4558 789.356 34.9154C788.568 35.6537 787.746 36.5352 787.078 37.4968C785.097 40.3416 782.899 43.0317 780.358 45.3957L777.521 48.0287C775.031 50.3411 774.049 53.9414 775.231 57.1295C775.294 57.307 775.368 57.4844 775.448 57.6676C777.327 61.9948 778.451 64.4389 777.327 72.7098C777.327 72.7098 777.098 73.3967 776.995 74.5357C776.71 77.6724 777.772 80.7804 779.81 83.173L786.513 92.6345C786.513 92.6345 788.163 90.0874 786.667 85.8746L787.729 87.6261C789.408 90.4022 789.882 93.7163 789.151 96.8758C788.471 99.795 788.192 103.641 790.087 106.744L800.964 99.6004C800.964 99.6004 799.822 91.7358 804.246 87.38L817.093 39.2426L798.714 32.6602L798.708 32.6544Z" fill="#031026"/>
<path d="M795.146 135.512L800.684 166.5C801.569 171.463 806.199 174.852 811.189 174.188C816.721 173.449 820.398 168.075 819.096 162.637L812.217 133.926L795.151 135.517L795.146 135.512Z" fill="#F0BE9E"/>
<path d="M796.002 140.297L796.955 145.614L810.024 147.984L808.26 137.658L796.002 140.297Z" fill="#D58871"/>
<path d="M840.724 178.858L841.101 193.431L842.694 200.763C842.694 200.763 841.004 212.051 840.724 214.775C840.444 217.5 837.35 259.81 837.35 259.81H944.064L931.041 204.467C931.041 204.467 928.175 186.757 922.151 180.552L915.02 171.223C913.924 169.786 913.382 167.994 913.502 166.186C913.564 165.281 913.456 164.377 913.193 163.507L910.687 155.265L840.724 178.864V178.858Z" fill="#1E3157"/>
<path d="M863.795 188.377L869.134 205.955C869.693 207.804 870.584 209.538 871.76 211.072L874.586 214.77L863.795 185.057V188.371V188.377Z" fill="#031026"/>
<path d="M897.178 193.425C897.178 193.425 911.994 191.731 919.685 184.21L897.178 193.425Z" fill="#031026"/>
<path d="M876.55 226.709L898.492 259.805H883.116L876.55 226.709Z" fill="#031026"/>
<path d="M803.961 89.6294L794.209 97.3051C794.209 97.3051 785.708 100.911 784.521 111.626V138.517C784.521 138.517 787.461 143.216 795.899 141.899L807.529 143.027L809.596 151.464C809.962 152.958 810.692 154.343 811.726 155.482L818.971 163.518L841.101 193.414L864.892 192.263C869.796 192.029 874.569 190.615 878.817 188.154C887.49 183.128 901.911 174.474 904.115 171.223C907.301 166.523 910.681 155.242 910.681 155.242L902.054 147.721L892.491 119.325C892.491 119.325 896.43 114.059 896.619 110.298L891.931 103.155L885.286 85.4682C882.699 78.5882 876.014 74.135 868.683 74.4098L834.535 75.6976L803.961 89.6123V89.6294Z" fill="#EC6625"/>
<path d="M806.399 75.6232L813.713 93.1095L806.399 95.9314C806.399 95.9314 807.524 109.754 816.527 112.857L826.656 116.806C826.656 116.806 843.253 106.87 844.943 97.3108C846.633 87.752 844.943 79.2922 844.943 79.2922L826.045 49.9576L806.399 75.6232Z" fill="#F0BE9E"/>
<path d="M813.433 55.8817L823.807 88.8167C825.234 93.3557 824.726 98.2896 822.391 102.439L816.527 112.862C816.527 112.862 807.524 110.888 806.399 95.9371L813.433 55.8875V55.8817Z" fill="#D58871"/>
<path d="M817.092 39.2369L795.711 46.0081C795.711 46.0081 790.926 52.2128 786.148 52.4932C786.148 52.4932 782.488 57.8507 786.148 68.291L791.686 78.8744C790.898 79.5727 790.395 80.5972 790.395 81.7363C790.395 83.8484 792.102 85.5598 794.209 85.5598C794.523 85.5598 794.832 85.5197 795.123 85.4453L798.959 92.7718C800.472 95.6566 803.15 97.7516 806.313 98.5128C809.893 99.3714 813.667 98.427 816.425 95.9772L832.005 82.1198L817.092 39.2483V39.2369Z" fill="#F0BE9E"/>
<path d="M795.711 46.0081L795.859 41.4978L798.714 32.6602C798.714 32.6602 802.1 25.3279 815.505 25.8889C828.911 26.4498 837.355 34.5376 837.355 34.5376L839.211 36.083C843.322 39.5116 845.702 44.5944 845.702 49.9519C845.702 49.9519 850.858 59.1672 857.424 58.6006C857.424 58.6006 864.549 67.8159 857.424 77.2145C857.424 77.2145 856.95 81.4386 856.636 85.1019C856.305 88.9369 854.678 92.5543 851.977 95.296C847.998 99.3428 842.18 103.985 838.292 104.666C831.389 105.879 819.365 102.972 819.365 102.972C819.365 102.972 826.667 94.1856 823.099 86.5443C823.099 86.5443 816.447 86.9278 811.663 81.9996C809.488 79.7558 808.574 76.5391 809.259 73.4883C809.944 70.426 810.156 65.4177 806.405 60.478C806.405 60.478 797.778 54.0845 795.711 45.9967V46.0081Z" fill="#031026"/>
<path d="M822.334 205.428H748.523C743.441 205.428 739.171 209.257 738.606 214.317L734.352 252.312H837.875L832.205 213.968C831.48 209.063 827.278 205.428 822.334 205.428Z" fill="#031026"/>
<path d="M800.963 125.358L807.523 143.033H804.246L800.963 125.358Z" fill="#D3450D"/>
<path d="M869.984 125.358L867.923 99.5946V121.843C867.923 123.537 868.272 125.214 868.945 126.771L875.991 143.027L869.99 125.352L869.984 125.358Z" fill="#D3450D"/>
<path d="M891.366 110.504C891.366 110.504 873.735 118.025 869.984 125.358L874.586 156.215C875.374 161.486 880.119 165.236 885.411 164.772C890.898 164.291 894.974 159.483 894.569 153.977L891.36 110.504H891.366Z" fill="#F0BE9E"/>
<path d="M803.887 201.456L803.025 202.074H799.947C799.393 202.074 798.862 202.292 798.474 202.687L796.647 204.518C796.647 204.518 793.461 204.518 792.896 206.212L808.094 214.77L814.278 203.019L807.078 200.906C805.988 200.586 804.806 200.786 803.881 201.456H803.887Z" fill="#F0BE9E"/>
<path d="M803.887 201.456L807.278 211.541L807.084 200.906C807.084 200.906 805.582 200.197 803.887 201.456Z" fill="#D58871"/>
<path d="M804.246 161.652L800.689 166.5C800.689 166.5 801.346 173.123 802.465 178.95C803.356 183.586 805.856 204.512 806.844 212.886C807.044 214.592 808.86 215.594 810.407 214.85L813.901 213.173L815.968 212.457C817.995 211.759 819.354 209.847 819.354 207.701V165.596L804.241 161.647L804.246 161.652Z" fill="#F0BE9E"/>
<path d="M799.959 205.4L796.647 204.524L797.647 203.522L799.959 205.4Z" fill="#D58871"/>
<path d="M869.984 125.358L870.709 130.217L891.366 110.504C891.366 110.504 873.547 117.648 869.984 125.358Z" fill="#D58871"/>
<path d="M827.221 161.652C827.221 161.652 842.391 160.519 857.013 153.45C859.171 152.408 860.969 150.743 862.18 148.676L865.48 143.038L864.258 147.08C863.196 150.6 860.598 153.444 857.19 154.801C851.206 157.182 840.655 160.588 827.215 161.652H827.221Z" fill="#D3450D"/>
<path d="M845.697 49.9576L833.787 39.9924L845.697 47.5135V49.9576Z" fill="#1E3157"/>
<path d="M857.418 77.2202L850.664 69.6991L858.954 74.7933L857.418 77.2202Z" fill="#1E3157"/>
<path d="M798.708 32.6544L792.896 44.9721L803.013 28.4589C803.013 28.4589 799.924 30.0844 798.708 32.6544Z" fill="#1E3157"/>
<path d="M797.024 65.515V66.2533C797.024 66.2533 800.65 62.8705 804.15 63.2426C804.15 63.2426 802.26 61.1305 799.114 62.3783C797.841 62.882 797.019 64.1412 797.019 65.515H797.024Z" fill="#031026"/>
<path d="M786.513 68.5486V69.0294C786.513 69.0294 788.774 66.8314 790.961 67.0718C790.961 67.0718 789.779 65.6981 787.821 66.5109C787.027 66.8372 786.513 67.6557 786.513 68.5486Z" fill="#031026"/>
<path d="M801.378 71.6977C801.833 71.4868 801.815 70.4761 801.337 69.4402C800.859 68.4044 800.103 67.7356 799.648 67.9465C799.193 68.1574 799.211 69.1681 799.689 70.204C800.167 71.2398 800.923 71.9086 801.378 71.6977Z" fill="#031026"/>
<path d="M792.099 74.0914C792.554 73.8805 792.535 72.8698 792.058 71.8339C791.58 70.798 790.824 70.1293 790.369 70.3402C789.914 70.5511 789.932 71.5618 790.41 72.5977C790.887 73.6335 791.644 74.3023 792.099 74.0914Z" fill="#031026"/>
<path d="M797.646 86.4985L799.525 89.6352C799.525 89.6352 803.961 89.6352 806.028 84.747L797.652 86.5042L797.646 86.4985Z" fill="white"/>
<path d="M622.002 139.181L636.516 261.516H642.87L632.434 135.998L622.002 139.181Z" fill="#031026"/>
<path d="M560.603 139.181L546.084 261.516H539.735L550.166 135.998L560.603 139.181Z" fill="#031026"/>
<path d="M542.008 35.6995L531.776 204.77C531.628 207.243 533.586 209.326 536.053 209.326H653.524C655.859 209.326 657.76 207.454 657.811 205.119L661.374 35.0298C661.426 32.6087 659.467 30.6225 657.046 30.6397L546.244 31.6585C543.995 31.6814 542.139 33.4443 542.002 35.6938L542.008 35.6995Z" fill="#FFF7F5"/>
<path d="M547.71 139.519L546.565 183.063L546.897 183.071L548.042 139.528L547.71 139.519Z" fill="#F2D7C8"/>
<path d="M606.644 178.189H584.183L578.2 172.516L575.168 175.55L569.236 174.085L566.233 172.476L556.076 178.166L555.91 177.879L566.227 172.098L569.373 173.781L575.065 175.184L578.194 172.053L584.314 177.857H606.644V178.189Z" fill="#F2D7C8"/>
<path d="M574.997 164.932L564.731 153.748L556.081 158.968L555.91 158.682L564.788 153.319L574.985 164.428L580.952 157.239L587.849 154.996L595.642 162.975L611.617 146.959L611.851 147.2L595.642 163.45L587.751 155.373L581.146 157.526L574.997 164.932Z" fill="#F2D7C8"/>
<path d="M546.261 33.2726V40.0611C546.261 42.1846 547.98 43.9075 550.098 43.9075H554.077L547.797 33.2612L546.267 33.2726H546.261Z" fill="#1E3157"/>
<path d="M547.792 33.2612L554.078 43.9018H649.276L656.15 32.2595L547.792 33.2612Z" fill="#F2D7C8"/>
<path d="M656.458 32.2595L547.306 33.2612H655.705L656.458 32.2595Z" fill="#EDC6B2"/>
<path d="M656.15 32.2595L649.276 43.9018H653.147C655.242 43.9018 656.955 42.2132 656.984 40.1126L657.092 32.2538L656.15 32.2652V32.2595Z" fill="#1E3157"/>
<path d="M656.458 32.2595L659.262 29.4491C658.56 29.1686 657.806 29.0255 657.029 29.037L546.227 30.0558C545.593 30.0616 544.982 30.1703 544.406 30.3649L547.3 33.2669L656.453 32.2595H656.458Z" fill="#F2D7C8"/>
<path d="M543.475 38.0577L540.466 35.0413C540.438 35.2244 540.415 35.4133 540.403 35.6022L530.172 204.673C530.138 205.274 530.195 205.869 530.338 206.447L533.478 203.299L543.475 38.0635V38.0577Z" fill="#F2D7C8"/>
<path d="M662.979 35.0642C662.979 34.8352 662.979 34.6063 662.956 34.383L659.713 37.6342L656.242 203.522L659.228 206.516C659.342 206.081 659.41 205.623 659.422 205.154L662.985 35.0642H662.979Z" fill="#F2D7C8"/>
<path d="M537.686 207.718L534.648 210.763C535.105 210.877 535.579 210.94 536.059 210.94H653.53C653.986 210.94 654.437 210.883 654.866 210.78L651.811 207.718H537.686Z" fill="#F2D7C8"/>
<path d="M543.612 35.7968C543.698 34.3945 544.863 33.2841 546.261 33.2726L547.306 33.2612L544.412 30.3592C542.368 31.0518 540.809 32.8433 540.466 35.0413L543.475 38.0577L543.612 35.7911V35.7968Z" fill="#1E3157"/>
<path d="M657.064 32.2538C657.064 32.2538 657.081 32.2538 657.087 32.2538C657.806 32.2538 658.485 32.5342 658.994 33.0494C659.507 33.5703 659.781 34.2628 659.764 34.9955L659.707 37.6342L662.95 34.383C662.824 33.0265 662.242 31.773 661.277 30.7885C660.695 30.1989 660.01 29.7467 659.262 29.4491L656.458 32.2595H657.064V32.2538Z" fill="#1E3157"/>
<path d="M536.059 207.718C535.311 207.718 534.62 207.42 534.106 206.871C533.592 206.327 533.335 205.611 533.381 204.867L533.478 203.299L530.338 206.447C530.578 207.426 531.069 208.336 531.765 209.08C532.547 209.91 533.552 210.494 534.643 210.763L537.68 207.718H536.053H536.059Z" fill="#1E3157"/>
<path d="M656.207 205.085C656.179 206.533 654.974 207.718 653.53 207.718H651.811L654.866 210.78C656.978 210.276 658.674 208.622 659.228 206.516L656.242 203.522L656.207 205.091V205.085Z" fill="#1E3157"/>
<path d="M522.185 25.305L515.459 35.1157C513.975 37.285 511.691 38.7789 509.116 39.2769L498.885 41.2516L526.849 57.742L549.607 23.1128L522.191 25.3108L522.185 25.305Z" fill="#F0BE9E"/>
<path d="M539.873 32.8433L528.956 42.6826C527.323 44.1536 526.216 46.1341 525.822 48.2977L523.829 59.1672L524.857 60.6211L541.169 35.9342L539.873 32.8433Z" fill="#D58871"/>
<path d="M522.184 25.305L524.24 13.6227C524.24 13.6227 529.447 -0.532316 541.1 0.0171712C549.304 0.406392 556.509 7.67566 560.049 11.9399C561.625 13.8402 562.573 16.1813 562.79 18.6425C563.087 22.0196 563.281 26.8562 562.276 29.1801L547.266 35.4706L541.025 27.6747L537.023 29.0255C533.683 30.1531 530.023 29.7925 526.969 28.041L522.179 25.2993L522.184 25.305Z" fill="#99837E"/>
<path d="M566.438 87.6433V64.6049H566.924V85.9548L574.723 73.5283L577.629 79.2464L579.353 75.2626L581.254 77.3461L582.699 75.3084L588.854 82.4289L589.807 80.8605L595.956 62.0807L597.48 71.2731L600.438 70.8553V73.6256L602.967 72.3607L603.184 72.7957L599.953 74.4155V71.4162L597.081 71.8226L595.802 64.1126L590.247 81.0666L588.922 83.2474L582.739 76.0983L581.3 78.1188L579.502 76.1441L577.663 80.3855L574.677 74.5128L566.438 87.6433Z" fill="#F2D7C8"/>
<path d="M601.551 88.9311H559.33V89.4177H601.551V88.9311Z" fill="#F2D7C8"/>
<path d="M535.071 102.88L549.093 131.516C551.577 136.588 557.669 138.711 562.756 136.279C567.9 133.817 570.064 127.63 567.58 122.484L555.63 97.7287L535.071 102.88Z" fill="#F0BE9E"/>
<path d="M536.121 104.62L538.702 108.89L551.297 105.33C552.952 104.861 554.5 104.076 555.859 103.023L557.554 101.707L555.636 97.7287L536.127 104.62H536.121Z" fill="#D58871"/>
<path d="M554.077 116.978L587.843 95.6624L595.248 102.605L567.015 132.432L554.077 116.978Z" fill="#F0BE9E"/>
<path d="M586.701 98.3239L591.086 84.2147L593.643 80.643L596.567 79.8188L599.981 76.167C600.392 75.7263 601.048 75.6118 601.585 75.8923C602.167 76.2013 602.447 76.8882 602.236 77.5121L601.225 80.5457L602.23 81.0036L602.796 80.2824C603.258 79.6986 604.074 79.5441 604.714 79.9218C605.251 80.2424 605.53 80.8605 605.416 81.473L604.874 84.3864L605.816 85.9834C606.158 86.5615 606.335 87.214 606.335 87.8837V88.5133L606.541 89.5493C606.644 90.0587 606.541 90.591 606.261 91.0261L602.287 97.1792C601.345 98.6388 600.061 99.8522 598.553 100.711L595.231 102.6L586.684 98.3182L586.701 98.3239Z" fill="#F0BE9E"/>
<path d="M596.572 79.8131L593.192 84.4895L594.882 80.2939L596.572 79.8131Z" fill="#D58871"/>
<path d="M452.444 127.206C452.444 127.206 446.284 141.052 445.53 159.294L444.554 213.796L437.537 273.135H468.665L481.597 201.381L510.754 275.557H543.858C543.858 275.557 513.386 164.583 514.7 157.537C516.013 150.491 517.771 132.781 517.771 132.781L452.444 127.212V127.206Z" fill="#1E3157"/>
<path d="M452.444 127.206L450.366 132.821C450.366 132.821 457.16 138.093 468.985 139.524L499.781 146.965L515.333 153.668C515.333 153.668 516.007 148.636 516.492 143.33L452.45 127.212L452.444 127.206Z" fill="#031026"/>
<path d="M561.996 25.4539L560.963 22.2256C560.466 20.663 558.69 19.9189 557.229 20.6516L557.206 20.663C556.252 21.1438 555.676 22.1512 555.744 23.2216L555.841 24.7842C555.938 26.3239 555.225 27.8178 553.929 28.6478C550.96 30.5595 547.266 35.4648 547.266 35.4648L546.033 32.0305C546.284 31.5097 546.581 29.6151 546.581 29.1457C546.581 26.9421 545.29 25.162 543.703 25.162C542.116 25.162 540.826 26.9478 540.826 29.1457C540.826 29.8326 540.951 30.4851 541.174 31.0461L535.402 38.9678C533.974 40.9254 533.518 43.4267 534.151 45.762L535.55 50.9135C536.418 53.1171 538.542 54.5653 540.906 54.5653C542.67 54.5653 544.343 53.7525 545.433 52.3616L550.828 45.4816C551.262 45.7105 551.77 45.8078 552.313 45.7105C553.238 45.5445 553.986 44.8061 554.151 43.8789C554.288 43.1291 554.06 42.425 553.615 41.9213L560.649 32.9464C562.31 30.8228 562.818 28.0124 561.996 25.4424V25.4539Z" fill="#F0BE9E"/>
<path d="M542.841 29.3003C542.819 29.4148 542.824 29.5407 542.853 29.6723C542.927 29.9814 543.167 30.239 543.469 30.3248C544.035 30.4851 544.571 30.0959 544.623 29.5407C544.623 29.5121 544.623 29.4777 544.623 29.4491C544.623 29.2144 544.714 28.9912 544.857 28.808C545 28.6249 545.085 28.4245 545.114 28.1899C545.205 27.4916 544.686 26.8333 543.989 26.7589C543.292 26.6845 542.653 27.2054 542.584 27.9094C542.562 28.1555 542.613 28.3845 542.71 28.5905C542.819 28.8138 542.876 29.0542 542.836 29.3003H542.841Z" fill="#D58871"/>
<path d="M547.671 45.1667C547.129 45.2469 546.581 45.0294 546.244 44.5886C545.981 44.2509 545.873 43.8159 545.942 43.3924L547.272 35.4648L546.039 32.0306L541.151 38.985C540.272 40.2328 539.05 41.2116 537.629 41.7553C536.624 42.1388 535.373 42.4594 533.975 42.4708C533.809 43.5583 533.866 44.6745 534.157 45.762L535.556 50.9135C536.424 53.1171 538.548 54.5653 540.911 54.5653C542.676 54.5653 544.349 53.7525 545.439 52.3616L550.834 45.4816L550.526 45.3842C549.607 45.0981 548.631 45.0236 547.677 45.161L547.671 45.1667Z" fill="#99837E"/>
<path d="M452.821 88.1069L445.034 102.399L458.302 117.104L468.174 109.955L452.821 88.1069Z" fill="#F0BE9E"/>
<path d="M458.302 64.6049L442.761 92.3769C440.843 95.8055 441.819 100.138 445.028 102.399C448.545 104.883 453.415 103.973 455.802 100.385L472.285 75.6004L458.302 64.6049Z" fill="#F0BE9E"/>
<path d="M469.612 63.0938L457.446 66.1389L464.063 79.6528L469.612 63.0938Z" fill="#D58871"/>
<path d="M499.975 39.5975L504.109 38.4126C506.215 37.8059 508.465 38.0062 510.435 38.9678L515.293 41.3375C517.223 42.2819 519.005 43.5011 520.58 44.9664L527.118 51.0337C528.756 52.5505 529.681 54.6855 529.681 56.9178L534.511 63.0995C534.511 63.0995 544.588 65.9843 548.117 74.6445L557.537 99.5202C557.537 99.5202 553.689 102.68 550.817 103.367C547.945 104.053 533.866 104.74 533.866 104.74L531.634 100.07L520.112 143.966C519.301 147.045 516.51 149.186 513.329 149.14C509.361 149.089 504.366 148.871 502.573 148.167C500.175 147.228 488.436 141.859 482.938 139.341C481.043 138.471 479.039 137.864 476.978 137.538L452.062 133.56C449.875 133.211 448.448 131.076 448.956 128.918L462.818 70.2486L456.515 65.4406L467.62 50.4613C467.62 50.4613 475.299 41.389 482.15 41.2516L499.969 39.6032L499.975 39.5975Z" fill="#FBE3D9"/>
<path d="M513.82 46.8782L529.687 56.912C529.687 56.912 521.905 49.763 513.82 46.8782Z" fill="#FFCBBB"/>
<path d="M525.062 88.519L531.639 100.064L527.768 110.304L525.062 88.519Z" fill="#FFCBBB"/>
<path d="M462.83 70.2428L465.296 58.9726L460.711 68.6287L462.83 70.2428Z" fill="#FFCBBB"/>
<path d="M594.289 82.841L590.321 82.2743C589.698 82.1828 589.276 81.5875 589.402 80.9693C589.527 80.3454 590.149 79.9562 590.76 80.1222L595.248 81.3299L594.289 82.841Z" fill="#1E3157"/>
<path d="M556.795 35.5335C556.23 35.1329 555.402 34.7608 554.465 35.0585L556.932 36.913C557.303 36.5009 557.24 35.8541 556.789 35.5335H556.795Z" fill="#031026"/>
<path d="M555.724 38.4065C556.068 37.9105 556.145 37.368 555.896 37.1947C555.648 37.0213 555.167 37.2827 554.823 37.7786C554.48 38.2746 554.402 38.8171 554.651 38.9905C554.9 39.1639 555.38 38.9024 555.724 38.4065Z" fill="#031026"/>
<path d="M549.293 47.4448L547.271 46.8782L547.762 49.4024L549.293 47.4448Z" fill="white"/>
<path d="M563.355 113.732L566.05 119.313V111.746L563.355 113.732Z" fill="#D58871"/>
<path d="M515.328 153.662L512.787 159.855L514.666 158.401L515.328 153.662Z" fill="#031026"/>
<path d="M484.292 159.855L501.562 162.74C501.562 162.74 487.58 162.328 484.292 159.855Z" fill="#031026"/>
<path d="M446.98 152.769L464.251 155.654C464.251 155.654 450.269 155.242 446.98 152.769Z" fill="#031026"/>
<path d="M481.574 201.559L476.224 178.778L478.896 216.389L481.574 201.559Z" fill="#031026"/>
<path d="M608.865 247.79L604.988 191.68C604.452 183.901 610.601 177.296 618.377 177.296H693.044C699.296 177.296 704.726 181.629 706.125 187.736L724.132 266.347L608.865 247.79Z" fill="#031026"/>
<path d="M282.122 247.79L278.245 191.68C277.708 183.901 283.857 177.296 291.634 177.296H366.301C372.553 177.296 377.983 181.629 379.381 187.736L397.389 266.347L282.122 247.79Z" fill="#031026"/>
<path d="M750.424 182.43L772.194 214.38C775.933 219.869 774.637 227.345 769.27 231.248C763.812 235.215 756.184 234.019 752.205 228.57L730.338 198.668L750.429 182.43H750.424Z" fill="#F0BE9E"/>
<path d="M737.995 187.576L749.071 221.707L743.533 182.43L737.995 187.576Z" fill="#D58871"/>
<path d="M368.888 106.137L366.775 100.476C366.775 100.476 366.518 100.121 365.999 99.6347C362.55 96.4408 357.155 96.6755 353.901 100.07L350.161 103.968C347.489 106.755 345.645 110.241 344.84 114.024L340.712 133.417C339.924 137.126 338.297 140.594 335.984 143.599C333.409 146.942 330.344 151.928 330.589 156.478C331.006 164.24 336.236 170.112 336.236 170.112L368.888 161.303V106.143V106.137Z" fill="#031026"/>
<path d="M702.196 149.781L725.639 156.364C725.639 156.364 737.829 155.797 742.334 166.707L753.775 186.265C753.775 186.265 741.774 190.592 738.017 195.291C734.26 199.991 733.141 203.562 733.141 203.562L729.767 205.629L707.072 243.045H624.172L632.051 188.325C632.051 188.325 629.613 186.07 629.236 182.121L630.172 157.485C630.172 157.485 631.862 145.637 643.864 144.137L682.499 141.693L702.191 149.781H702.196Z" fill="#1E3157"/>
<path d="M402.967 154.377L406.484 154.967C410.697 155.671 414.517 157.858 417.269 161.132L430.789 177.238L436.23 180.593L457.36 201.982C457.36 201.982 455.059 208.273 452.97 210.162L435.813 231.134L422.424 220.018C422.424 220.018 423.68 225.473 418.034 233.652L411.131 243.303H327.66C325.233 243.303 323.269 241.328 323.269 238.901C323.269 238.901 314.694 235.335 314.482 225.061V222.022C314.482 220.717 314.808 219.429 315.436 218.278L315.738 217.723L319.889 180.575C320.671 173.575 325.484 167.691 332.182 165.55L354.648 158.373L361.967 151.87L402.972 154.389L402.967 154.377Z" fill="#EC6625"/>
<path d="M-1 329L1633 329V227L-1 227V329Z" fill="#FFF4EE"/>
<path d="M788.111 233.59L832.045 266.353L882.294 264.784L830.213 233.59H788.111Z" fill="white"/>
<path d="M800.512 230.991L844.446 263.754L894.694 262.186L842.613 230.991H800.512Z" fill="white"/>
<path d="M688.203 174.611L684.36 189.751L691.052 173.758L688.203 174.611Z" fill="#031026"/>
<path d="M733.113 203.557L726.427 182.43L729.739 205.629L733.113 203.557Z" fill="#031026"/>
<path d="M658.685 187.387L656.059 167.76L660.472 184.05C660.901 185.641 661.123 187.278 661.123 188.926V206.939L658.685 187.381V187.387Z" fill="#031026"/>
<path d="M716.784 125.524L712.702 116.497L684.851 122.421L678.662 142.729H674.163C674.163 142.729 674.003 148.121 675.585 154.749C676.533 158.705 678.451 162.362 681.094 165.447L688.225 173.758L694.375 171.91C699.644 170.324 704.275 167.102 707.592 162.706C709.482 160.199 711.503 157.422 712.981 155.144L707.637 153.45L716.784 125.529V125.524Z" fill="#F0BE9E"/>
<path d="M679.69 91.8045C679.69 91.8045 674.243 89.6066 674.152 84.873L676.202 80.8148C676.664 79.8989 677.44 79.1835 678.388 78.7942L679.684 78.2677C679.684 78.2677 686.159 72.624 691.925 73.5684L700.135 77.2889C702.117 78.1875 703.944 79.4067 705.531 80.9006L721.888 90.116C721.888 90.116 725.262 91.8102 726.016 95.3819C726.016 95.3819 729.39 99.7091 728.454 105.347C727.826 109.142 723.544 119.147 720.809 125.289C719.342 128.58 717.092 131.465 714.255 133.68L713.787 134.041L712.696 115.873H700.506L679.684 91.8045H679.69Z" fill="#031026"/>
<path d="M669.248 116.108C667.866 115.816 666.872 114.488 667.107 112.971C667.278 111.889 668.111 110.991 669.173 110.745C669.813 110.596 670.424 110.676 670.943 110.916L675.488 97.0475C677.806 89.9729 684.503 85.182 691.925 85.514C694.243 85.617 696.43 86.0292 698.257 86.5042C700.946 87.2083 702.185 90.3278 700.746 92.7089C698.931 95.7139 699.222 99.4744 701.289 102.313C704.931 107.328 702.288 114.665 702.288 114.665H705.531C705.799 114.19 706.119 113.738 706.507 113.315C708.934 110.665 712.782 110.252 715.1 112.387C717.418 114.522 717.332 118.403 714.906 121.053C713.027 123.102 710.31 123.806 708.094 123.039L705.222 130.566C703.949 133.898 700.855 136.176 697.309 136.399L681.152 137.412C678.622 137.572 676.11 136.903 673.992 135.5L672.336 134.407C667.934 131.499 666.016 125.993 667.666 120.967L669.253 116.114L669.248 116.108Z" fill="#F0BE9E"/>
<path d="M708.933 116.24C708.374 116.348 707.854 116.749 707.7 117.636C707.826 119.101 709.293 119.548 710.167 118.815C710.367 118.649 710.504 118.437 710.589 118.209C711.634 118.426 712.833 117.848 713.17 116.354C713.067 114.19 710.932 113.509 709.676 114.568C709.168 114.997 708.916 115.621 708.939 116.24H708.933Z" fill="#D58871"/>
<path d="M701.386 130.223L695.488 142.523C693.918 145.803 690.949 148.184 687.415 149.003L674.985 151.882C674.985 151.882 673.598 147.801 674.157 142.724H678.656L683.144 128.002L701.386 130.217V130.223Z" fill="#D58871"/>
<path d="M705.531 114.665C705.531 114.665 703.567 122.81 705.222 130.561C705.222 130.561 704.446 136.994 697.503 137.933L678.183 138.683C678.183 138.683 665.805 136.988 665.805 123.829L666.775 118.409C666.987 117.218 667.786 116.211 668.899 115.73C670.292 115.129 671.857 115.038 673.313 115.467L679.148 117.184C681.814 117.968 683.812 120.258 684.103 123.028C684.155 123.537 684.178 124.087 684.16 124.676L700.512 116.497L702.293 114.665H705.536H705.531Z" fill="#031026"/>
<path d="M699.382 172.345H703.732C704.869 172.345 705.948 172.854 706.667 173.741L710.098 177.937L699.382 172.345Z" fill="#031026"/>
<path d="M682.505 170.467L679.325 168.384C678.263 167.691 676.927 167.571 675.762 168.069L670.127 170.473H682.505V170.467Z" fill="#031026"/>
<path d="M633.735 185.698C633.735 185.698 644.96 180.896 658.68 187.392L664.874 223.882C666.051 230.808 660.998 237.241 654.004 237.716C648.009 238.123 642.665 233.962 641.569 228.037L633.735 185.698Z" fill="#F0BE9E"/>
<path d="M644.96 214.054L715.443 218.169C719.725 218.421 723.921 219.509 727.786 221.375L743.459 228.942L658.069 238.42L644.96 214.054Z" fill="#F0BE9E"/>
<path d="M663.19 213.236L663.772 215.308L655.042 214.798L663.19 213.236Z" fill="#D58871"/>
<path d="M753.775 155.608L774.027 218.605L749.699 225.147L737.995 160.628L753.775 155.608Z" fill="#F0BE9E"/>
<path d="M720.712 124.116L726.421 159.683C726.667 161.212 725.805 162.711 724.355 163.249C721.437 164.343 716.379 165.997 711.588 166.42C710.127 166.546 708.768 165.665 708.271 164.285L696.327 131.293C709.208 125.077 720.718 124.116 720.718 124.116H720.712Z" fill="white"/>
<path d="M697.971 124.253L716.79 119.382L721.083 120.635L720.712 124.116L696.321 131.293H694.694L694.392 130.229C694.135 129.336 694.586 128.391 695.442 128.025L696.321 127.653V126.388C696.321 125.38 697.001 124.505 697.971 124.253Z" fill="#EB6625"/>
<path d="M752.331 161.441L753.775 155.614L747.963 145.133L740.318 129.273C739.473 127.521 737.281 126.806 735.636 127.853C735.556 127.905 735.476 127.956 735.396 128.019L730.897 126.571C730.897 126.571 729.63 125.913 728.625 126.571L726.387 120.235C725.708 118.317 723.955 116.995 721.928 116.875L717.76 116.629C716.538 116.56 715.465 117.43 715.282 118.638C715.077 119.96 716.002 121.191 717.332 121.357L720.586 121.763L720.82 125.913L719.833 126.457C719.05 126.886 718.451 127.59 718.148 128.431L714.18 139.484C713.821 140.491 714.243 141.608 715.174 142.123C716.104 142.638 717.275 142.397 717.926 141.556L719.176 139.953L718.862 142.563C718.725 143.708 719.519 144.75 720.649 144.927C721.466 145.053 722.282 144.693 722.739 144L723.766 142.449L725.514 153.805C725.868 156.089 727.7 157.857 729.995 158.115L733.661 158.527L742.71 163.696L752.331 161.441Z" fill="#F0BE9E"/>
<path d="M737.995 133.422L734.837 133.8L731.554 136.336C731.554 136.336 729.961 136.994 729.025 135.958L725.931 139.06L723.772 142.443L724.612 147.909L737.995 133.417V133.422Z" fill="#D58871"/>
<path d="M735.397 128.008L729.767 132.386L734.283 127.647L735.397 128.008Z" fill="#D58871"/>
<path d="M641.374 247.372H657.749L648.117 270.085L640.341 247.636C640.643 247.47 640.992 247.372 641.369 247.372H641.374Z" fill="#031026"/>
<path d="M728.62 126.56L724.623 129.811C724.058 130.269 723.595 130.841 723.27 131.494L719.639 138.688L722.505 131.121C722.779 130.4 723.213 129.748 723.772 129.21L728.1 125.077L728.625 126.56H728.62Z" fill="#D58871"/>
<path d="M696.322 127.647L711.577 124.116L696.322 126.886V127.647Z" fill="#031026"/>
<path d="M640.341 247.636L647.643 268.722L655.408 225.799C655.836 223.43 657.897 221.701 660.301 221.701H765.285C768.642 221.701 771.035 224.969 770.03 228.18L757.132 269.409C756.459 271.567 754.466 273.032 752.211 273.032H650.092C648.163 273.032 646.45 271.79 645.845 269.953L639.342 250.171C639.005 249.153 639.479 248.105 640.335 247.636H640.341Z" fill="#F2D7C8"/>
<path d="M669.75 118.941L675.379 119.788C675.379 119.788 669.75 127.498 669.75 118.941Z" fill="white"/>
<path d="M679.93 99.5832L679.873 99.7663C679.873 99.7663 685.868 99.5775 687.187 101.106C687.187 101.106 686.422 98.2324 683.185 97.6085C681.757 97.3337 680.347 98.1866 679.924 99.5832H679.93Z" fill="#031026"/>
<path d="M682.328 104.765C682.562 103.577 682.274 102.519 681.683 102.402C681.092 102.284 680.423 103.152 680.188 104.34C679.954 105.528 680.243 106.585 680.833 106.703C681.424 106.82 682.093 105.952 682.328 104.765Z" fill="#031026"/>
<path d="M452.97 203.665L486.021 216.544L476.607 227.368L437.486 224.008L452.97 203.665Z" fill="#F0BE9E"/>
<path d="M450.698 195.234L437.538 211.61L449.721 194.25L450.698 195.234Z" fill="#D3450D"/>
<path d="M347.46 198.703L346.575 217.941C346.512 219.263 346.113 220.539 345.399 221.655L342.818 225.713L347.454 226.526L348.288 222.76C348.568 221.501 348.67 220.213 348.596 218.925L347.449 198.703H347.46Z" fill="#D3450D"/>
<path d="M366.85 201.92L385.742 218.347C389.111 221.278 391.868 224.838 393.867 228.833L397.258 235.616L390.612 226.131C389.43 224.443 388.094 222.863 386.627 221.415L366.855 201.92H366.85Z" fill="#D3450D"/>
<path d="M366.775 100.476C366.775 100.476 359.758 100.259 356.732 107.608L363.949 118.306L366.775 100.476Z" fill="#FCF0EA"/>
<path d="M391.811 152.139L389.019 169.196C389.019 169.196 392.085 175.069 391.811 183.18L395.436 211.702L371.445 179.545L358.616 158.293L364.64 123.972L391.811 152.139Z" fill="#F0BE9E"/>
<path d="M367.997 145.832C367.997 145.832 367.232 165.985 349.236 159.351L359.598 144.561L367.997 145.837V145.832Z" fill="#031026"/>
<path d="M368.939 147.108C368.939 147.108 367.546 160.811 379.262 160.811L381.591 172.688C382.236 175.979 384.275 178.835 387.175 180.507L391.811 183.185C391.811 183.185 392.034 173.466 389.019 169.202L391.811 152.145L368.939 147.114V147.108Z" fill="#D58871"/>
<path d="M406.524 121.872L407.203 118.832C407.203 118.832 406.107 112.433 399.205 108.449C399.205 108.449 391.885 94.6092 366.775 100.482L356.732 107.614C356.732 107.614 350.035 119.989 353.175 127.538C356.316 135.088 358.616 148.928 358.616 148.928L368.888 143.474L383.515 148.928L406.53 121.872H406.524Z" fill="#031026"/>
<path d="M365.342 143.611C367.038 140.669 371.274 139.942 374.814 141.991C375.528 142.403 376.156 142.901 376.692 143.451C376.709 143.451 376.721 143.451 376.738 143.451C378.947 143.199 380.843 141.733 381.762 139.702L384.777 133.079C386.044 130.297 385.913 127.08 384.423 124.413C383.623 122.982 384.314 121.173 385.862 120.641L403.252 114.671C403.252 114.671 410.783 119.428 410.224 130.612L409.487 143.273C409.527 143.273 409.573 143.267 409.613 143.267C411.457 143.267 412.964 144.744 413.01 146.582C413.021 147.057 412.873 147.532 412.599 147.927C411.126 150.067 410.064 150.193 409.087 150.039L408.568 158.951C408.379 162.202 406.547 165.127 403.709 166.707C401.785 167.777 399.553 168.143 397.389 167.748L382.116 164.932C378.628 164.291 375.762 161.801 374.631 158.436L373.072 153.811C371.634 153.851 370.092 153.479 368.671 152.655C365.136 150.605 363.641 146.564 365.336 143.622L365.342 143.611Z" fill="#F0BE9E"/>
<path d="M370.64 149.146C370.76 149.289 370.914 149.415 371.108 149.512C371.565 149.735 372.125 149.707 372.542 149.426C373.318 148.9 373.392 147.829 372.764 147.2C372.73 147.165 372.69 147.131 372.656 147.102C372.365 146.868 372.188 146.524 372.113 146.158C372.039 145.792 371.874 145.483 371.617 145.202C370.857 144.378 369.516 144.344 368.711 145.122C367.905 145.9 367.883 147.228 368.688 148.03C368.962 148.304 369.299 148.488 369.653 148.568C370.035 148.659 370.395 148.837 370.646 149.14L370.64 149.146Z" fill="#D58871"/>
<path d="M419.079 200.941L422.425 220.024L425.748 222.783L419.079 200.941Z" fill="#D3450D"/>
<path d="M410.504 183.18C410.504 183.18 408.619 179.545 401.717 180.175L406.107 185.836L410.498 183.18H410.504Z" fill="#D3450D"/>
<path d="M370.332 185.836L362.59 197.581V193.809L357.572 194.856L370.332 185.836Z" fill="#D3450D"/>
<path d="M419.079 242.044L413.01 244.768C413.01 244.768 395.225 245.186 395.436 239.737L407.204 231.392L419.079 242.044Z" fill="#D58871"/>
<path d="M328.825 216.584C333.05 216.922 340.752 218.169 343.138 222.783L341.739 235.862C341.106 241.763 336.139 246.239 330.218 246.239C324.526 246.239 319.673 242.095 318.776 236.457L316.989 225.267C316.989 225.267 317.115 224.42 317.623 223.235C319.513 218.833 324.057 216.2 328.825 216.578V216.584Z" fill="#F0BE9E"/>
<path d="M394.603 244.78H438.953L424.474 253.932L394.603 244.837V244.78Z" fill="#031026"/>
<path d="M332.467 220.865L390.834 227.368V240.79L330.218 246.239L332.467 220.865Z" fill="#F0BE9E"/>
<path d="M383.72 231.392L390.834 227.362L404.223 229.377L405.553 228.85C406.615 228.432 407.797 228.409 408.876 228.793L410.503 229.371H412.793C413.489 229.371 414.18 229.526 414.808 229.823L427.352 235.747C428.516 236.297 429.538 237.115 430.326 238.128L434.351 243.291H429.538L425.747 249.794L420.837 245.18L421.722 247.773C422.093 248.861 421.46 250.034 420.346 250.315C419.581 250.509 418.77 250.217 418.297 249.582L413.01 242.456C411.856 242.971 410.509 242.793 409.521 241.998L404.64 238.048L398.456 241.151C395.727 242.519 392.553 242.702 389.687 241.66L379.77 238.054L383.72 231.386V231.392Z" fill="#F0BE9E"/>
<path d="M417.823 236.594L420.837 245.192L423.601 247.79L417.823 236.594Z" fill="#D58871"/>
<path d="M424.937 236.594L427.826 246.239L429.539 243.303L424.937 236.594Z" fill="#D58871"/>
<path d="M332.467 220.865L343.138 222.783C343.138 222.783 341.694 220.339 339.598 219.36L332.467 220.86V220.865Z" fill="#D58871"/>
<path d="M507.364 215.514L496.693 209.956C496.693 209.956 492.719 208.908 491.252 209.956L478.491 222.783L507.364 215.514Z" fill="#F0BE9E"/>
<path d="M495.853 215.514L493.227 200.941C493.05 199.968 492.205 199.258 491.217 199.258C489.933 199.258 488.968 200.431 489.213 201.696L492.296 217.506L495.853 215.514Z" fill="#FFF7F5"/>
<path d="M420.672 252.77C421.591 253.05 422.585 252.627 423.018 251.768L438.936 220.425C439.855 218.616 441.654 217.431 443.669 217.305L526.496 212.079C527.929 211.988 528.859 213.573 528.083 214.787L507.369 247.109C506.045 249.175 503.829 250.492 501.386 250.658L422.208 256.204C421.214 256.273 420.221 256.153 419.273 255.844L396.053 248.271C395.179 247.985 394.591 247.172 394.591 246.256V244.843L420.66 252.776L420.672 252.77Z" fill="#F2D7C8"/>
<path d="M400.603 136.702L400.946 137.389C400.946 137.389 396.201 136.479 393.552 137.95C393.552 137.95 394.706 135.237 397.475 134.956C398.776 134.825 400.021 135.529 400.603 136.702Z" fill="#031026"/>
<path d="M406.695 137.069L409.704 137.137C409.653 136.244 408.813 135.575 407.945 135.798C407.472 135.918 407.003 136.267 406.689 137.069H406.695Z" fill="#031026"/>
<path d="M398.017 143.611C398.44 143.611 398.782 142.906 398.782 142.037C398.782 141.168 398.44 140.463 398.017 140.463C397.594 140.463 397.252 141.168 397.252 142.037C397.252 142.906 397.594 143.611 398.017 143.611Z" fill="#031026"/>
<path d="M408.134 142.832C408.648 142.832 409.065 142.117 409.065 141.235C409.065 140.354 408.648 139.639 408.134 139.639C407.62 139.639 407.204 140.354 407.204 141.235C407.204 142.117 407.62 142.832 408.134 142.832Z" fill="#031026"/>
<path d="M407.203 155.099L400.386 156.89C400.386 156.89 406.49 161.275 407.203 155.099Z" fill="white"/>
<path d="M543.224 237.739L518.399 275.562H571.36L587.112 237.739H543.224Z" fill="white"/>
<path d="M552.799 235.02L527.974 272.844H580.929L596.687 235.02H552.799Z" fill="white"/>
<path d="M874.586 156.215C874.586 156.215 874.963 164.28 877.441 172.745C879.925 181.205 895.488 234.231 895.488 234.231L908.432 233.103L894.569 153.977L874.581 156.215H874.586Z" fill="#F0BE9E"/>
<path d="M896.43 230.344L895.494 234.231C895.494 234.231 895.934 238.993 899.81 239.874L912.565 240.876L916.528 241.408C917.59 241.551 918.663 241.248 919.496 240.573L921.443 238.999C921.443 238.999 925.942 241.254 926.947 241.631C927.724 241.923 937.099 243.349 941.249 243.973C942.448 244.15 943.642 243.635 944.332 242.633L946.793 243.108C947.61 243.268 948.42 242.811 948.711 242.026C948.94 241.403 948.786 240.704 948.318 240.235L947.838 239.754L947.689 239.348C947.324 238.34 946.508 237.568 945.48 237.258L935.454 234.236L931.578 233.486L923.95 231.357L919.696 230.979L907.467 227.545L896.436 230.35L896.43 230.344Z" fill="#F0BE9E"/>
<path d="M909.808 233.607L919.182 236.967C919.913 237.23 920.547 237.716 920.992 238.357L921.438 238.998L924.601 240.555L922.134 237.848C921.678 237.344 921.095 236.978 920.444 236.789L909.808 233.612V233.607Z" fill="#D58871"/>
<path d="M928.569 235.77L942.123 240.962C942.831 241.231 943.459 241.666 943.967 242.232L944.321 242.627L946.782 243.102L945.337 241.523C944.755 240.887 944.013 240.418 943.191 240.172L928.569 235.77Z" fill="#D58871"/>
<path d="M947.678 239.342L940.444 237.081L947.29 238.586L947.678 239.342Z" fill="#D58871"/>
</svg>
