<?xml version="1.0" encoding="utf-8"?>
<!-- Generator: Adobe Illustrator 28.0.0, SVG Export Plug-In . SVG Version: 6.00 Build 0)  -->
<svg version="1.1" id="Layer_1" xmlns="http://www.w3.org/2000/svg" xmlns:xlink="http://www.w3.org/1999/xlink" x="0px" y="0px"
	 viewBox="0 0 300 250" style="enable-background:new 0 0 300 250;" xml:space="preserve">
<style type="text/css">
	.st0{fill:#E5866B;}
	.st1{clip-path:url(#SVGID_00000129185254636051792750000004826446147604444818_);}
	.st2{fill:none;}
	.st3{fill:#FFF1EA;}
	.st4{fill:#FFE3D7;}
	.st5{fill:#FFD7CB;}
	.st6{fill:#F5B595;}
	.st7{fill:#013767;}
	.st8{fill:#001028;}
	.st9{fill:#192746;}
	.st10{fill:#E47F64;}
	.st11{fill:#FFFFFF;}
	.st12{fill:#FBD9CD;}
	.st13{fill:#F6C1A7;}
	.st14{fill:#000307;}
	.st15{fill:#E4856B;}
	.st16{fill:#E5A37F;}
	.st17{fill:#F7C2A8;}
	.st18{fill:#FF5A00;}
	.st19{fill:#B93500;}
	.st20{fill:#E24A02;}
	.st21{fill:#F38803;}
</style>
<path class="st0" d="M-153.3,183.8l-1.9,2.5C-155.3,186.3-153.7,186.6-153.3,183.8z"/>
<path class="st0" d="M-154,177.5l-1.8,1.5l-0.8,1.8C-156.6,180.9-154.4,179.8-154,177.5L-154,177.5z"/>
<g>
	<defs>
		<rect id="SVGID_1_" x="0.6" width="298.9" height="250"/>
	</defs>
	<clipPath id="SVGID_00000132063199322420532410000017022814341243606683_">
		<use xlink:href="#SVGID_1_"  style="overflow:visible;"/>
	</clipPath>
	<g style="clip-path:url(#SVGID_00000132063199322420532410000017022814341243606683_);">
		<rect x="0.6" class="st2" width="298.9" height="250"/>
		<rect x="0.6" class="st3" width="298.9" height="250"/>
		<g>
			<path class="st4" d="M254.4,141.7v-15.3h4.7v-3.3h-4.7V99.6h4.7v-3.3h-4.7V72.4h4.7v-3.3h-4.7V45.5h4.7v-3.3h-4.7V18.6h4.7v-3.3
				h-4.7V7.1h-2.4v8.2h-20.2V-8.3h27.2v-3.3h-27.2v-26.8h-5.1v26.8h-9.4v-25.7H212v25.8h-15.5v-24.1h-2.4v24.1h-22.9v-26.8h-2.7
				v26.8h-21.4v3.3h21.4v23.6h-18.7V7.2h-2.7v11.4v23.6v3.3v23.6v72.7h-8v116.4h135.1V141.7L254.4,141.7L254.4,141.7z M149.9,18.6
				h18.7v23.6h-18.7L149.9,18.6L149.9,18.6z M149.9,45.5h18.7v23.6h-18.7L149.9,45.5L149.9,45.5z M154.6,141.7h-4.8v-15.3h4.8V141.7
				z M154.6,123.2h-4.8V99.6h4.8V123.2z M154.6,96.3h-4.8V72.4h4.8V96.3z M171.3,250.6h-5.4v-12.9h5.4V250.6z M171.3,224.2h-5.4
				v-12.9h5.4V224.2z M171.3,197.8h-5.4v-12.9h5.4V197.8z M171.3,171.5h-5.4v-12.9h5.4V171.5z M171.3,145.1h-5.4v-12.9h5.4V145.1z
				 M171.3,118.7h-5.4v-12.9h5.4V118.7z M171.3,92.3h-5.4V79.4h5.4V92.3z M184.1,69.1h-12.8V45.5h12.8V69.1z M184.1,42.2h-12.8V18.6
				h12.8V42.2z M194.1,69.1h-4.7V45.5h4.7V69.1z M194.1,42.2h-4.7V18.6h4.7V42.2z M194.1,15.3h-4.7V5.2h-5.4v10.1h-12.8V-8.3h22.9
				V15.3z M205.5,254.5h-7.8v-16.8h7.8V254.5z M205.5,228.1h-7.8v-16.8h7.8V228.1z M205.5,201.8h-7.8v-16.8h7.8V201.8z M205.5,175.4
				h-7.8v-16.8h7.8V175.4z M205.5,149h-7.8v-16.8h7.8V149z M205.5,122.6h-7.8v-16.8h7.8V122.6z M205.5,96.3h-7.8V79.4h7.8V96.3z
				 M212.1,69.1h-15.5V45.5h15.5V69.1z M212.1,42.2h-15.5V18.6h15.5V42.2z M212.1,15.3h-15.5V-8.3h15.5V15.3z M217.4,250.6H212
				v-12.9h5.4V250.6z M217.4,224.2H212v-12.9h5.4V224.2z M217.4,197.8H212v-12.9h5.4V197.8z M217.4,171.5H212v-12.9h5.4V171.5z
				 M217.4,145.1H212v-12.9h5.4V145.1z M217.4,118.7H212v-12.9h5.4V118.7z M217.4,92.3H212v-11h5.4V92.3z M226.8,69.1h-9.4V45.5h9.4
				V69.1z M226.8,42.2h-9.4V18.6h9.4V42.2z M226.8,15.3h-9.4V-8.3h9.4V15.3z M252.1,141.7h-2.7v-15.3h2.7V141.7z M252.1,123.2h-2.7
				V99.6h2.7V123.2z M252.1,96.3h-2.7V72.4h2.7V96.3z M252.1,69.1h-20.2V45.5h20.2V69.1z M252.1,42.2h-20.2V18.6h20.2V42.2z
				 M263.7,247.9h-5.4v-6.4h5.4V247.9z M263.7,221.5h-5.4v-6.4h5.4V221.5z M263.7,195.2h-5.4v-6.4h5.4V195.2z M263.7,168.8h-5.4
				v-6.4h5.4V168.8z"/>
			<polygon class="st5" points="-47.4,266.4 342.8,266.4 342.8,174.4 290.1,174.4 290.1,151.3 284.3,151.3 284.3,174.4 265.3,174.4 
				265.3,141.5 252.1,141.5 252.1,174.4 238.4,174.4 238.4,156.5 233.2,156.5 233.2,174.4 85.8,174.4 85.8,168.4 28.2,168.4 
				28.2,231.7 -17.5,231.7 -17.5,50.3 -37.6,50.3 -37.6,231.7 -47.4,231.7 			"/>
		</g>
		<g>
			<g>
				<path class="st6" d="M72.1,64.8c0,0-5.8,5.3-3.6,16.2L70,92.1l-3.8,9l19.2,13.8l7.7-16.7l1.9-30.2
					C95.1,68.1,72.1,64.8,72.1,64.8z"/>
				<path class="st7" d="M46.5,194.1c0,0-2.9,7-2.6,8.2c0.2,0.6,0.5,1.8,0.7,2.9c0.3,1.3,0.3,2.7,0,4.1c-1.2,5-4.1,18.5-3.3,28.9
					l1.4,11.9h50.4c0,0-1.8-46.1-3.7-54.3l0,0l-34.3,0.4C55.1,196.1,48.5,196.8,46.5,194.1L46.5,194.1z"/>
				<polygon class="st8" points="87,204.9 84.5,250 93.1,250 				"/>
				<path class="st8" d="M74.5,205.8c0,0-1.1,10.9-8.7,12.5L74.5,205.8z"/>
				<path class="st8" d="M46.6,189.8l-1,6.8c0,0,1.7,1.9,5.8,2.6h33.7c0.6,0,1.2-0.1,1.7-0.2l1.9-0.5c0.7-0.2,1.2-0.9,1.2-1.7v-4.5
					L46.6,189.8L46.6,189.8z"/>
				<polygon class="st9" points="52.1,194.1 52.1,201 55,201 55,193.6 				"/>
				<polygon class="st9" points="74.7,194.1 74.7,201 77.6,201 77.6,193.6 				"/>
				<polygon class="st10" points="83.5,96.7 85.5,114.9 92.2,100.2 				"/>
				<path class="st11" d="M68.7,95.2L68.7,95.2c0.3,1.6,1.1,3,2.2,4l15.2,14.3l1.8-3.9l3.8,8l-1.6,5.1l2.4,21.9
					c0.4,3.6,0.6,7.3,0.5,10.9l-0.7,33.2c-0.1,3.9-3.3,7.1-7.2,7.1c-11.1,0.1-31.5,0.1-33.3,0c-2.6-0.1-5.5-0.6-6.1-3.1
					c-0.6-2.4-2-9.7-2-9.7L43,131.4c0,0,1.9-17.4,15.3-24.4l2.3-1.3l3-3l3.1-5c0.3-0.5,0.5-1.1,0.6-1.7
					C67.5,95.8,67.8,95.4,68.7,95.2L68.7,95.2z"/>
				<path class="st12" d="M86.1,113.6c0,0-2.4,6.1-5.4,7.3L86.1,113.6z"/>
				<path class="st13" d="M87,115.2l1.8,3.7C88.7,118.9,87.2,118.5,87,115.2z"/>
				<path class="st12" d="M62.9,103.7c0,0,3.6-0.5,6.6,4.4C69.5,108.1,66.4,102,62.9,103.7z"/>
				<path class="st12" d="M50.9,139l8.1,41c0.8,4,3.1,7.4,6.4,9.7c2.2,1.5,4.7,2.9,6.8,3.4v2.8l8.4-0.1l-23.1-65.6L50.9,139
					L50.9,139z"/>
				<g>
					<path class="st6" d="M140.3,128.4l-3.8,1.5c-1.2,0.5-2.3,1.2-3.2,2.1l-3.2,3.4c-1.2,1.3-2.1,2.9-2.6,4.6l-1.8,6.8l-15.9,18.5
						l21.1-2.1l8.1-10.9c0,0,0.3-0.2,0.7-0.7c3.7-3.9,3.6-10,0-13.9l-1.9-2.1c0,0,3.8-2.8,4.5-5.2
						C142.8,129.1,141.6,127.9,140.3,128.4L140.3,128.4z"/>
					<path class="st6" d="M134.3,141.8l3.3-6.2l5.7-4.2c1.7-1.2,3.7-1.9,5.7-1.9h1.5c0.6,0,1.1,0.6,0.9,1.2
						c-0.2,0.7-0.7,1.6-2.2,2.1l-2.2,0.8c-0.8,0.3-1.5,0.7-2.1,1.3l-4.2,4.2l5.1-2.6c1-0.5,2.2-0.8,3.4-0.8h4.8
						c0.7,0,1.2,0.7,0.9,1.4c-0.3,0.6-1,1.2-2.6,1.3l-4.8,0.7l-4.2,2.8l3.3-0.9c0.6-0.2,1.1-0.2,1.7-0.2l3.8,0.1
						c1.1,0,1.5,1.5,0.6,2c-0.4,0.2-0.9,0.3-1.7,0.3h-2.5c-0.7,0-1.4,0.2-1.9,0.6l-3.7,2.4l2.6-0.6c1.3-0.3,2.6-0.3,3.9,0.1l0.4,0.1
						c0.8,0.2,0.8,1.4,0,1.7c-0.4,0.1-0.9,0.2-1.5,0.1c-0.6,0-1.2,0-1.8,0.2l-6.5,2.9L134.3,141.8L134.3,141.8z"/>
					<path class="st10" d="M137.6,135.6l-0.6,1.1c-0.3,0.6-0.5,1.3-0.5,2c0,2.3-0.4,7.8-3.3,10c0,0,4.9-2.6,4-10.1
						c-0.1-0.5,0-1,0.1-1.5L137.6,135.6L137.6,135.6z"/>
					<path class="st10" d="M138.8,137.9c0,0,3.5,4.7,3,8.9C141.9,146.8,141.1,142.3,138.8,137.9z"/>
				</g>
				<g>
					<path class="st9" d="M143.4,155.1l-0.3-0.8c-0.5-1.1-1.4-1.9-2.6-2.1l-13-2.1c-1-0.2-2,0.1-2.8,0.8l-1.6,1.4L143.4,155.1
						L143.4,155.1z"/>
					<path class="st9" d="M114.2,152.3l-28.3,26.8l-1.4-0.1l28.8-27.6c0.7-0.7,1.8-1.1,2.8-0.9l36.2,5c0.4,0.1,0.7,0.5,0.6,0.9
						l-36.5-4.8C115.6,151.5,114.8,151.8,114.2,152.3L114.2,152.3z"/>
					<path class="st7" d="M114.2,152.3c0.6-0.6,1.4-0.8,2.2-0.7l36.5,4.8c0,0.1-0.1,0.2-0.1,0.3c-3.9,4.7-20.3,25.4-20.3,25.4
						l-46.6-2.9L114.2,152.3L114.2,152.3z"/>
					<path class="st14" d="M145.1,166.1c0,0-1.7-2.8-4.8-1.6l-7.2,3.2c0,0-6.1,0.4-7,0.7c-0.9,0.3-5.7,3.5-5.7,3.5L98,171.6
						l-0.9-0.9c-0.4-0.4-0.9-0.6-1.4-0.6l-1.4,0l-3.6,4.4l33.6,5.8l14.4-4.7L145.1,166.1L145.1,166.1z"/>
				</g>
				<path class="st11" d="M66.3,116.3c0,0,5.3,5.1,7.5,13.4c1.6,5.9,5.8,31.8,8.2,46.3c0.9,5.6-2.7,11-8.1,12.1l0,0
					c-5.2,1.1-10.4-2.2-11.8-7.5l-12.7-47.2C49.4,133.4,66.3,116.3,66.3,116.3z"/>
				<polygon class="st6" points="90.8,171.6 125.8,173.3 127.5,185.2 79.2,189 				"/>
				<path class="st10" d="M97.2,171.9c0,0,5.2,7.8,0.8,15.6l-4.7,0.3L97.2,171.9z"/>
				<path class="st6" d="M127.5,169.1l-7.6,5.4l1.8,11.3l6.3-0.5c3.3-0.3,6.5-1.5,9.1-3.5c2.5-1.9,5.2-3.9,5.4-4.3
					c1-1.5,1.1-4.3,1.1-4.3l1.5-1.9c0.9-1.2,0-2.6,0-2.6l-1.4-1.4l0,0c0.6-1.1-0.2-2.4-1.4-2.4c-1.3,0-2.5,0.7-2.5,0.7l-4,1.8
					c-0.7,0.3-1.5,0.5-2.3,0.6l-4,0.4C128.9,168.3,128.1,168.6,127.5,169.1L127.5,169.1z M139.5,171.3h-1.9l4.2-2.4l0.1,0.1
					l-0.9,1.4C140.6,171,140.1,171.3,139.5,171.3L139.5,171.3z"/>
				<path class="st15" d="M143.7,173.2l-1.8,2.1C141.9,175.3,143.2,175.7,143.7,173.2z"/>
				<path class="st15" d="M143.4,167.7l-1.6,1.2l-0.8,1.6C141,170.5,142.9,169.7,143.4,167.7L143.4,167.7z"/>
				<path class="st15" d="M137.5,171.3l-3.2,1.9C134.3,173.2,136.7,172.7,137.5,171.3z"/>
				<path class="st11" d="M85.5,170.5L85.5,170.5c0.7-0.2,1.4-0.3,2.1-0.2l9,0.6c0,0,3.9,6.3,0.8,15.1l-3.8,5.5H81
					c-0.7,0-1.4-0.3-1.9-0.9l0,0c-0.4-0.5-1-0.8-1.7-0.9l-3.7-0.4c-5.1-0.5-8.9-5-8.6-10.1l0,0c0.3-5.3,4.9-9.3,10.2-9l8.1,0.5
					C84.1,170.8,84.8,170.7,85.5,170.5L85.5,170.5z"/>
				<path class="st12" d="M86.5,171.6c0,0,2.9,8.4-5.9,18.2C80.7,189.8,86.9,180.5,86.5,171.6z"/>
				<path class="st6" d="M77.2,81.3V68.4L98,61.8c0,0,7.1,6.4,6.7,11.7c-0.1,1.3-0.3,3.5-0.6,6c-0.1,1-0.4,4.5-0.4,4.5l1.1,1.1
					c1.1,1.2,0.8,3.1-0.6,3.9l-1.3,0.7c-0.6,4.6-1.1,8.3-1.1,8.3s-1.4,5.6-9.7,5.6l-9.3-1.8c-3.3-0.6-5.6-3.5-5.6-6.8v-7.6
					c-1-0.7-1.6-1.8-1.6-3.1S76.2,82,77.2,81.3L77.2,81.3z"/>
				<ellipse class="st8" cx="101.5" cy="80.7" rx="0.9" ry="1.6"/>
				<path class="st8" d="M102.5,76.2l0.4,0.8c0,0-3.5-0.8-5,0.6c0,0,0.5-1.4,1.5-2.2C100.5,74.6,101.9,75,102.5,76.2L102.5,76.2z"/>
				<g>
					<path class="st8" d="M90.2,86.9l3.9,2.9c1.5,1.1,3.4,1.4,5.2,0.8c1.3-0.5,2.9-0.9,3.6-0.9c0,0-0.2,6.6-1.1,8.3
						s-0.7,2.3-2.3,3.4s-2.7,1.8-3.3,2.3s-4.3,1.8-5.8,0.6c-1.5-1.2-4.2-0.1-5.4-2c-0.7-1.1-2-3.6-3-5.5c-0.7-1.4-0.5-3.2,0.5-4.4
						c1.7-1.8,3.8-5.1,3.6-9.4c0,0,0-0.2,0-0.6l3.5-0.8L90.2,86.9L90.2,86.9z"/>
					<path class="st11" d="M102.2,95.3l0.1-1.5c0,0-3,0.9-3.8-0.4l0,0C98.5,99,102.1,95.2,102.2,95.3z"/>
					<path class="st10" d="M80.4,80.3c0-0.7,0.7-1.3,1.4-1.1c0.4,0.1,0.7,0.4,0.8,0.8c0.1,0.2,0.1,0.5,0,0.7c-0.1,0.3-0.1,0.7,0,1
						c0,0.1,0.1,0.2,0.1,0.4c0,0.6-0.4,1-0.9,1s-0.9-0.5-0.9-1c0-0.1,0-0.1,0-0.2c0.1-0.3,0-0.7-0.2-1
						C80.5,80.8,80.4,80.6,80.4,80.3z"/>
				</g>
				<path class="st12" d="M71.2,169.5l9.8,1C81,170.6,75.8,168.7,71.2,169.5z"/>
				<path class="st12" d="M74.3,164.5l4.9,4.2C79.2,168.7,77,165.4,74.3,164.5z"/>
			</g>
		</g>
		<g>
			<path class="st16" d="M242.3,66.2l-22.9,2l0.3,30l6.7,16.9l19.8-12.7l-3.2-9.1l2.1-10.9C247.8,71.8,242.3,66.3,242.3,66.2
				L242.3,66.2z"/>
			<polygon class="st0" points="220.5,100.3 226.4,115.2 229.3,97.2 			"/>
			<path class="st11" d="M244,96.5c0.9,0.3,1.2,0.7,1.2,1c0.1,0.6,0.3,1.2,0.6,1.8l2.7,5.1l2.8,3.1l2.2,1.4
				c12.9,7.7,13.9,25,13.9,25l-3.3,51.2c0,0-1.8,7.1-2.5,9.5c-0.8,2.4-3.7,2.7-6.2,2.7c-2.5,0-36.1-0.5-36.1-0.5l-3.1-68.4l8.1-18.4
				l1.6,3.9l15.8-13.4C242.8,99.4,243.6,98.1,244,96.5L244,96.5L244,96.5z"/>
			<path class="st17" d="M230.9,121.3c-3-1.3-5-7.5-5-7.5L230.9,121.3z"/>
			<path class="st17" d="M223,119l1.9-3.6C224.5,118.6,223,119,223,119z"/>
			<path class="st17" d="M242.6,109.2c3.3-4.7,6.8-4,6.8-4C246,103.3,242.6,109.2,242.6,109.2z"/>
			<path class="st18" d="M203.1,204l21.1-4.9l21.4,171.3l-15.8,20.7c0,0-6.9,0.9-11.1-0.6c-4.2-1.5-7.7-8.5-7.7-8.5l8.9-15.5
				l-5.4-60.9c0,0-6-40.4-6.8-44.5C206.9,256.9,203.1,204,203.1,204L203.1,204z"/>
			<path class="st19" d="M261.5,171.3l10.1,35.8c-3.6,1.3-12.4-1.5-12.4-1.5L261.5,171.3z"/>
			<g>
				<polygon class="st19" points="213.1,198.4 222.9,242.1 235.9,368 231.1,349.2 207.8,208.1 				"/>
			</g>
			<path class="st18" d="M260.9,195.7c-2.2,2.6-8.7,1.5-8.7,1.5l-33.9-2.2l-7.5,7.2l13.4,96.7l11.4,66.9c0.4,2.8-0.6,6.6-0.6,6.6
				l-5.2,16.2l12.8,6.8l13.5-15.8c1.4,7.7,0.7,22.1,0.7,22.1l7.1-2.7c0.5-7-2.4-96.1-2.4-96.1l0.1-51.7l2-11.7
				c1.3-10.2-0.8-23.7-1.8-28.8c-0.3-1.3-0.2-2.7,0.2-4c0.3-1,0.7-2.2,0.9-2.8C263.4,202.7,260.9,195.7,260.9,195.7L260.9,195.7z"/>
			<g>
				<path class="st18" d="M260.9,195.7c-2.2,2.6-8.7,1.5-8.7,1.5l-33.9-2.2l-7.5,7.2l13.4,96.7l11.4,66.9c0.4,2.8-0.6,6.6-0.6,6.6
					l-5.2,16.2l12.8,6.8l13.5-15.8c1.4,7.7,0.7,22.1,0.7,22.1l7.1-2.7c0.5-7-2.4-96.1-2.4-96.1l0.1-51.7l2-11.7
					c1.3-10.2-0.8-23.7-1.8-28.8c-0.3-1.3-0.2-2.7,0.2-4c0.3-1,0.7-2.2,0.9-2.8C263.4,202.7,260.9,195.7,260.9,195.7L260.9,195.7z"
					/>
			</g>
			<g>
				<path class="st19" d="M203.8,214.2l-0.5-6.6l18.3-12.1l12.9-0.1c0,0-0.1,1.7-3.4,6.1c-3.3,4.4-7.4,6-11.9,8
					c-4.5,2-6.1,3.4-9,4.3S203.8,214.2,203.8,214.2L203.8,214.2z"/>
			</g>
			<path class="st17" d="M259.4,140.8l-6.2-9L227,195.6l8.3,0.5l0.1-2.8c2.1-0.3,4.6-1.6,6.9-3c3.4-2.1,5.9-5.4,6.9-9.3L259.4,140.8
				L259.4,140.8z"/>
			<path class="st18" d="M225.3,112.1l-1-2.3c-1.6,1.8-9.6,14.4-14.6,31.9s-12.4,67.4-12.4,67.4c2.2,0.8,6.5,4.3,11.4,1.2
				c4.9-3,11-1.2,19.8-9.2c8.8-8,8.1-23.7,8.1-23.7s2.2-47.1,4.5-54.1c1.6-5,7-9,9.9-11c1.2-0.8,2.9-0.8,4,0.1
				c4.3,3.2,9.2,9.2,9.8,15c0.7,6.8-0.8,32.2-3.2,43.7c-2.4,11.6,3.7,24.4,6.4,28c2.7,3.6,1.9,9,1.9,9l4.2,0.2l-0.5-11.6
				c0,0-4-71.8-7.4-78.3c-3.5-6.5-14-11.1-14-11.1c-0.7,0-2.1,0.5-3.2,1c-0.8,0.3-1.6,0.8-2.4,1.4l-16.6,13.1
				c-1.1,0.9-2.5,1.6-3.9,1.9c-2.5,0.6-4-0.1-4.8-1c-0.8-0.9-0.9-2.3-0.3-3.4L225.3,112.1L225.3,112.1z"/>
			<path class="st11" d="M245.4,117.5l15.8,17.8l-15,46.1c-1.7,5.2-7,8.2-12.1,6.8l0,0c-5.3-1.4-8.5-6.9-7.3-12.4
				c3.1-14.3,8.7-39.7,10.5-45.5C239.9,122.3,245.4,117.5,245.4,117.5L245.4,117.5z"/>
			<polygon class="st16" points="228.8,188.9 181.1,182.6 183.4,170.9 218.2,171.1 			"/>
			<path class="st0" d="M211.9,171l3.1,15.9l-4.6-0.5C206.3,178.5,211.9,171,211.9,171L211.9,171z"/>
			<path class="st16" d="M182,166.6c-0.6-0.5-1.3-0.8-2.1-0.9l-3.9-0.6c-0.8-0.1-1.5-0.4-2.2-0.7l-3.8-2c0,0-1.1-0.7-2.5-0.8
				c-1.2,0-2.1,1.2-1.5,2.3l0,0l-1.4,1.4c0,0-0.9,1.3-0.1,2.6l1.4,2c0,0,0,2.8,0.9,4.3c0.2,0.4,2.8,2.6,5.1,4.5
				c2.5,2.1,5.6,3.5,8.8,3.9l6.2,0.9l2.4-11.1L182,166.6L182,166.6z M170,168.2c-0.6,0-1.1-0.4-1.4-0.9l-0.8-1.5l0.1-0.1l4.1,2.6
				L170,168.2L170,168.2z"/>
			<path class="st0" d="M175,170.4l-3.1-2.1C172.7,169.7,175,170.4,175,170.4z"/>
			<path class="st11" d="M223.5,170.2c0.7,0.2,1.4,0.4,2.1,0.3l8-0.1c5.3-0.1,9.6,4.2,9.6,9.4l0,0c0.1,5.1-3.9,9.3-9,9.6l-3.7,0.2
				c-0.6,0-1.2,0.3-1.7,0.8l0,0c-0.5,0.5-1.2,0.8-2,0.8l-12.5-0.7l-3.4-5.7c-2.6-8.8,1.6-14.9,1.6-14.9l8.9-0.1
				C222.1,169.8,222.8,170,223.5,170.2L223.5,170.2L223.5,170.2z"/>
			<path class="st17" d="M227.3,189.6c-8.2-10.1-4.9-18.3-4.9-18.3C221.6,180.1,227.3,189.6,227.3,189.6z"/>
			<path class="st16" d="M236.4,82.3c0.9,0.7,1.5,1.9,1.4,3.1c-0.1,1.3-0.8,2.3-1.8,2.9l-0.4,7.5c-0.2,3.3-2.7,6-5.9,6.5l-9.4,1.3
				c-8.3-0.4-9.3-6.1-9.3-6.1s-0.3-3.7-0.6-8.3c-1-0.4-1.7-1.4-1.6-2.5c0-0.9,0.5-1.7,1.3-2.1c-0.3-4.7-0.6-9.3-0.6-11.6
				c-0.1-5.3,4.5-7.5,4.5-7.5l23.1,3.9L236.4,82.3L236.4,82.3z"/>
			<path class="st8" d="M227.5,83l-3.4-1.1c0.1,10.5-3.3,12.2-5.2,12.4c-0.6,0.1-1.3-0.2-1.7-0.7l-0.7-0.9l4.2-0.1l-3.1-2.1
				c-0.8-0.5-1.7-0.8-2.6-0.9l-4.5-0.2l0.6,8.3c0.5,6,6.6,6.5,6.6,6.5l12.1-1.7c6.6-2,5.6-4.7,5.6-4.7C231.1,96.7,227.5,83,227.5,83
				L227.5,83z"/>
			<path class="st11" d="M216.4,92.6c-1,2.3-5.6,2-5.6,2l-0.1-2H216.4L216.4,92.6z"/>
			
				<ellipse transform="matrix(5.268454e-02 -0.9986 0.9986 5.268454e-02 120.8232 288.1892)" class="st8" cx="212.3" cy="80.4" rx="1.6" ry="0.9"/>
			<path class="st8" d="M214.6,75.3c1,0.8,1.4,2.3,1.4,2.3c-1.3-1.5-4.9-0.9-4.9-0.9l0.5-0.8C212.2,74.8,213.6,74.5,214.6,75.3z"/>
			<path class="st0" d="M220.1,68c0,0,0.8,3.6,0.2,3.7c-0.6,0.1-10.5-0.8-10.5-0.8c0.2-1.2,1.2-2.3,1.2-2.3S220.1,68,220.1,68z"/>
			<g>
				<path class="st0" d="M233.2,81.2c0,0.2-0.1,0.4-0.2,0.6c-0.2,0.3-0.3,0.6-0.3,0.9c0,0.1,0,0.1,0,0.2c0,0.6-0.5,1-1,1
					c-0.5,0-0.9-0.5-0.9-1.1c0-0.1,0-0.2,0.1-0.3c0.1-0.3,0.2-0.7,0.1-1c-0.1-0.2-0.1-0.5,0-0.7c0.1-0.4,0.4-0.6,0.8-0.7
					C232.6,79.9,233.3,80.5,233.2,81.2L233.2,81.2z"/>
				<path class="st8" d="M241.1,62.6c8.8,4.5,5.2,17.7,5.2,17.7l-2.6,13.1c0,0-2.3-0.1-4.7-1.5c-2.5-1.4-3.9-6.2-3.9-6.2
					c1.9-4,0.1-8.6-3.6-8.6c-3-0.1-3.8,4.4-4,6l-3.4-0.9l0-0.1c0.7-3.9-1.4-6.2-3.1-8.5c-1.6-2.4-0.8-8.3-0.8-8.3L241.1,62.6
					L241.1,62.6z"/>
			</g>
			<path class="st11" d="M238.1,67.1L250,77.9c-0.2,1.2-1.3,3-1.9,3.9c-0.3,0.4-0.7,0.5-1.2,0.4l-7.6-2.4c-0.8-0.2-1.4-0.7-1.9-1.4
				l-2.2-3.3c-0.4-0.6-1-1-1.6-1.3l-4.9-1.8c-0.5-0.2-0.9-0.4-1.3-0.7l-1.8-1.4C225.6,69.8,238.1,67.1,238.1,67.1z"/>
			<path class="st20" d="M223.1,50.5l23.9,4.2l-1.5-1.9c-0.6-0.8-1.4-1.5-2.2-2c-1.9-1.2-5.4-3.2-8.5-3.5c-3.3-0.3-7.7-0.1-9.8,0
				c-0.7,0-1.3,0.6-1.4,1.2L223.1,50.5L223.1,50.5z"/>
			<path class="st18" d="M202.3,65.2l6.2-0.7c0,0,5.8-8.2,8.1-10.5c1.4-1.5,4.7-2.9,7.5-3.9c2.9-1,6-1.3,9-0.8l6.8,1.1
				c2.9,0.5,5.5,2,7.2,4.3c6.6,9.2,3.2,21,3.2,21l0.5,3.2l-7.3-1.9c-0.7-0.2-1.4-0.6-1.8-1.2l-1.5-2.1c-0.6-0.8-1.4-1.4-2.4-1.7
				l-5.1-1.6c-0.9-0.3-1.9-0.3-2.8,0l-3.4,1.1c-0.5,0.2-1,0.2-1.5,0.1c-3.7-0.6-19.8-3.1-21.3-3.6c-0.8-0.2-1.4-0.8-1.8-1.4
				C201.4,66,201.7,65.3,202.3,65.2L202.3,65.2z"/>
			<path class="st20" d="M225.6,69c-21.3-2.2-17.1-4.6-17.1-4.6C202.3,67.6,225.6,69,225.6,69z"/>
			<path class="st21" d="M212.4,134.4c-1.4,1.8-3.4,10.2-3.4,10.2l2.3-0.4l15.1,2.6l2.2-8.8l-12.7-2.7L212.4,134.4L212.4,134.4z"/>
			<path class="st17" d="M227.9,170.5l9.8-0.5C233.1,168.9,227.9,170.5,227.9,170.5z"/>
			<path class="st17" d="M229.8,168.8l5.1-3.9C232.2,165.6,229.8,168.8,229.8,168.8z"/>
		</g>
	</g>
</g>
<path class="st8" d="M106.1,63l-5.9,3.7L97,67.6l-0.2,0.7c-0.4,1.9-1.6,3.5-3.3,4.4c-1.7,1-3.8,2.7-3.9,5.3v5.4l0,0
	c-1,0-3.6,0-3.6-1c0-2.4-1-5.6-4.5-5.8c-3,0.3-2.8,2.5-3.5,5.5c-0.8,3.3-0.6,7.9-4,8.6L69.2,92L66,75.7c0,0-1.9-17,6.3-21.4l2.3-1
	c0.9-0.4,1.9-0.5,2.9-0.3l0.6,0.1c0,0,2.7-1.4,4-1.3s5.7,1,5.7,1s0.2-0.1,0.6-0.1c1.5-0.3,3.1-0.2,4.5,0.4c3,1.2,8.8,3.6,11,4.6
	c0.9,0.4,1.8,1,2.3,1.9C106.7,60.6,107.1,61.8,106.1,63L106.1,63z"/>
</svg>
