<svg width="30" height="30" viewBox="0 0 30 30" fill="none" xmlns="http://www.w3.org/2000/svg">
<path d="M16.25 9.37H24.835" stroke="#004A80" stroke-width="2" stroke-linecap="round" stroke-linejoin="round"/>
<path d="M5.16504 9.37H9.21004" stroke="#004A80" stroke-width="2" stroke-linecap="round" stroke-linejoin="round"/>
<path d="M12.67 11.28C13.7249 11.28 14.58 10.4249 14.58 9.36999C14.58 8.31513 13.7249 7.45999 12.67 7.45999C11.6151 7.45999 10.76 8.31513 10.76 9.36999C10.76 10.4249 11.6151 11.28 12.67 11.28Z" fill="#EC6625"/>
<path d="M13.75 15.21H5.16504" stroke="#004A80" stroke-width="1.5" stroke-linecap="round" stroke-linejoin="round"/>
<path d="M24.835 15.21H20.79" stroke="#004A80" stroke-width="1.5" stroke-linecap="round" stroke-linejoin="round"/>
<path d="M17.3299 17.12C18.3848 17.12 19.2399 16.2649 19.2399 15.21C19.2399 14.1551 18.3848 13.3 17.3299 13.3C16.2751 13.3 15.4199 14.1551 15.4199 15.21C15.4199 16.2649 16.2751 17.12 17.3299 17.12Z" fill="#EC6625"/>
<path d="M9.99504 20.63H5.16504" stroke="#004A80" stroke-width="1.5" stroke-linecap="round" stroke-linejoin="round"/>
<path d="M24.8349 20.63H16.6699" stroke="#004A80" stroke-width="1.5" stroke-linecap="round" stroke-linejoin="round"/>
<path d="M13.575 22.54C14.6299 22.54 15.485 21.6849 15.485 20.63C15.485 19.5751 14.6299 18.72 13.575 18.72C12.5202 18.72 11.665 19.5751 11.665 20.63C11.665 21.6849 12.5202 22.54 13.575 22.54Z" fill="#EC6625"/>
</svg>
