<svg width="30" height="30" viewBox="0 0 30 30" fill="none" xmlns="http://www.w3.org/2000/svg">
<path d="M15.73 25.79H8.265C7.015 25.79 6 24.775 6 23.525V8.15999C6 6.90999 7.015 5.89499 8.265 5.89499H9.63" stroke="#004A80" stroke-width="1.5" stroke-linecap="round" stroke-linejoin="round"/>
<path d="M18.4751 5.89499H19.8401C21.0901 5.89499 22.1051 6.90999 22.1051 8.15999V14.605" stroke="#004A80" stroke-width="1.5" stroke-linecap="round" stroke-linejoin="round"/>
<path d="M12.005 4H16.1C17.325 4 18.32 4.995 18.32 6.22V7.055C18.32 7.465 17.99 7.795 17.58 7.795H10.53C10.12 7.795 9.79004 7.465 9.79004 7.055V6.22C9.79004 4.995 10.785 4 12.01 4H12.005Z" stroke="#004A80" stroke-width="1.5" stroke-linecap="round" stroke-linejoin="round"/>
<path d="M10.615 11.075H8.69995V12.99H10.615V11.075Z" stroke="#004A80" stroke-linecap="round" stroke-linejoin="round"/>
<path d="M12.53 11.71H18.935" stroke="#004A80" stroke-width="1.5" stroke-linecap="round" stroke-linejoin="round"/>
<path d="M10.615 15.54H8.69995V17.455H10.615V15.54Z" stroke="#004A80" stroke-linecap="round" stroke-linejoin="round"/>
<path d="M12.53 16.18H14.465" stroke="#004A80" stroke-width="1.5" stroke-linecap="round" stroke-linejoin="round"/>
<path d="M10.615 20.005H8.69995V21.92H10.615V20.005Z" stroke="#004A80" stroke-linecap="round" stroke-linejoin="round"/>
<path d="M12.53 20.645H13.315" stroke="#004A80" stroke-width="1.5" stroke-linecap="round" stroke-linejoin="round"/>
<path d="M20.135 25.595C22.4822 25.595 24.385 23.6922 24.385 21.345C24.385 18.9978 22.4822 17.095 20.135 17.095C17.7878 17.095 15.885 18.9978 15.885 21.345C15.885 23.6922 17.7878 25.595 20.135 25.595Z" stroke="#EC6625" stroke-width="2" stroke-linecap="round" stroke-linejoin="round"/>
<path d="M21.885 19.905C21.47 19.49 20.785 19.49 20.37 19.905L20.135 20.14L19.9 19.905C19.485 19.49 18.8 19.49 18.385 19.905C17.97 20.32 17.97 21.005 18.385 21.42L18.745 21.78L20.005 23.04C20.075 23.11 20.19 23.11 20.26 23.04L21.52 21.78L21.88 21.42C22.295 21.005 22.295 20.32 21.88 19.905H21.885Z" fill="#EC6625"/>
</svg>
