<svg width="450" height="246" viewBox="0 0 450 246" fill="none" xmlns="http://www.w3.org/2000/svg">
<g clip-path="url(#clip0_5635_28386)">
<path d="M48.2668 246H311.883C322.051 246 331.477 242.858 339.259 237.489C348.179 231.333 358.838 228.186 369.679 228.186H371.659C414.926 228.186 450 193.128 450 149.881C450 118.44 431.461 91.3289 404.708 78.8693C398.218 75.8459 394.288 69.2104 394.308 62.0553V61.9266C394.308 35.2806 372.699 13.6816 346.041 13.6816H82.4248C55.7667 13.6816 34.158 35.2806 34.158 61.9266C34.158 88.5727 55.7667 110.172 82.4248 110.172C90.4545 110.172 96.1722 118 93.6871 125.63C92.2663 129.994 91.2168 134.522 90.5832 139.188C89.7762 145.086 84.801 149.51 78.8457 149.51H48.2717C21.6087 149.505 0 171.109 0 197.75C0 224.396 21.6087 245.995 48.2668 245.995" fill="url(#paint0_linear_5635_28386)"/>
<mask id="mask0_5635_28386" style="mask-type:luminance" maskUnits="userSpaceOnUse" x="0" y="13" width="450" height="233">
<path d="M48.2668 246H311.883C322.051 246 331.477 242.858 339.259 237.489C348.179 231.333 358.838 228.186 369.679 228.186H371.659C414.926 228.186 450 193.128 450 149.881C450 118.44 431.461 91.3289 404.708 78.8693C398.218 75.8459 394.288 69.2104 394.308 62.0553V61.9266C394.308 35.2806 372.699 13.6816 346.041 13.6816H82.4248C55.7667 13.6816 34.158 35.2806 34.158 61.9266C34.158 88.5727 55.7667 110.172 82.4248 110.172C90.4545 110.172 96.1722 118 93.6871 125.63C92.2663 129.994 91.2168 134.522 90.5832 139.188C89.7762 145.086 84.801 149.51 78.8457 149.51H48.2717C21.6087 149.505 0 171.109 0 197.75C0 224.396 21.6087 245.995 48.2668 245.995" fill="white"/>
</mask>
<g mask="url(#mask0_5635_28386)">
<path d="M463.975 190.199H-41.7371V255.718H463.975V190.199Z" fill="url(#paint1_linear_5635_28386)"/>
<path d="M44.6871 190.197L-44.9745 279.818L-44.6244 280.168L45.0371 190.547L44.6871 190.197Z" fill="url(#paint2_linear_5635_28386)"/>
<path d="M171.984 190.195L82.3224 279.816L82.6724 280.166L172.334 190.545L171.984 190.195Z" fill="url(#paint3_linear_5635_28386)"/>
<path d="M299.286 190.194L209.624 279.815L209.974 280.165L299.636 190.544L299.286 190.194Z" fill="url(#paint4_linear_5635_28386)"/>
<path d="M426.588 190.198L336.926 279.819L337.276 280.169L426.938 190.548L426.588 190.198Z" fill="url(#paint5_linear_5635_28386)"/>
<path d="M197.33 232.115C289.194 232.115 363.664 230.7 363.664 228.953C363.664 227.207 289.194 225.792 197.33 225.792C105.465 225.792 30.9948 227.207 30.9948 228.953C30.9948 230.7 105.465 232.115 197.33 232.115Z" fill="url(#paint6_linear_5635_28386)"/>
</g>
<path d="M334.991 221.649C334.472 221.847 333.937 221.991 333.387 222.08L322.071 223.896C321.432 224 320.789 224.049 320.145 224.049H304.625V225.38C304.625 225.999 305.13 226.504 305.749 226.504H324.878L339.457 224.613C340.402 224.49 341.11 223.688 341.11 222.733V220.581C341.11 220.17 341.061 219.759 340.976 219.358L334.991 221.644V221.649Z" fill="#FFF9F6"/>
<path d="M322.071 223.896L333.387 222.08C333.937 221.991 334.472 221.847 334.991 221.65L340.972 219.363C340.873 218.918 340.724 218.483 340.521 218.072L333.858 204.534L318.893 205.934V209.952C318.893 211.12 318.437 212.248 317.62 213.084L312.724 218.126C311.818 219.062 310.635 219.685 309.343 219.878C307.512 220.15 304.922 220.907 304.62 222.995V224.049H320.14C320.784 224.049 321.427 224 322.066 223.896H322.071Z" fill="#031026"/>
<path d="M278.997 62.0308L272.581 72.8624C270.868 75.7521 271.809 79.4831 274.685 81.2199C277.522 82.932 281.2 82.0759 282.992 79.2901L289.284 69.5124L278.992 62.0308H278.997Z" fill="#F2C0A0"/>
<path d="M287.928 69.3389L278.834 63.3516L285.68 75.1184L287.928 69.3389Z" fill="#D78A71"/>
<path d="M273.007 72.0654L254.977 92.7143L261.492 97.7021L282.017 80.0221L273.007 72.0654Z" fill="#F2C0A0"/>
<path d="M256.136 91.3931L259.844 92.7934L263.071 96.3462L260.428 99.9238L258.126 106.871C257.908 107.529 257.21 107.905 256.542 107.722C255.893 107.544 255.482 106.901 255.601 106.238L256.141 103.16L253.675 104.491C253.121 104.793 252.671 105.243 252.369 105.797L251.012 112.195L249.576 110.379C249.101 109.776 248.755 109.083 248.562 108.336L246.864 101.794C246.864 101.794 246.982 100.043 248.735 98.9886L256.136 91.3931Z" fill="#031026"/>
<path d="M289.289 115.704L287.551 123.65C287.551 123.65 290.358 148.896 296.67 172.271L314.442 204.999L315.843 208.972L318.883 209.908H330.11L336.66 206.869L317.016 157.313L310.615 115.704H289.284H289.289Z" fill="#002D49"/>
<path d="M310.62 115.704H289.289L287.551 123.65C287.551 123.65 290.358 148.896 296.67 172.272L300.719 179.733L316.596 154.602L310.61 115.699L310.62 115.704Z" fill="#031026"/>
<path d="M303.18 38.7937L293.868 40.6641C293.868 40.6641 288.957 42.0645 287.319 45.5728L277.73 62.6391L285.68 67.7803L288.952 113.131H325.67L332.684 72.4564L337.729 60.4817C340.239 54.5191 337.675 47.6065 331.848 44.7909C331.635 44.687 331.516 44.6375 331.516 44.6375L324.269 38.7937C324.269 36.5967 322.487 34.8203 320.293 34.8203H308.511C307.378 34.8203 306.299 35.3052 305.546 36.1464L303.185 38.7937H303.18Z" fill="#FFF9F6"/>
<path d="M310.62 21.3413L306.497 37.705L305.873 45.6518L312.888 42.8462L320.838 37.5467L325.516 24.1469L310.62 21.3413Z" fill="#F2C0A0"/>
<path d="M314.407 26.171V33.1232C314.407 34.2464 314.581 35.3647 314.927 36.4335L316.269 40.59L320.838 37.5469L323.125 30.9905L314.407 26.166V26.171Z" fill="#D78A71"/>
<path d="M275.67 225.762C275.136 225.806 274.601 225.791 274.071 225.727L263.126 224.351C262.512 224.272 261.903 224.148 261.304 223.975L246.968 219.784L246.606 221.016C246.438 221.59 246.77 222.189 247.339 222.357L265.007 227.523L278.982 229.715C279.888 229.859 280.759 229.305 281.017 228.424L281.601 226.435C281.71 226.054 281.779 225.663 281.804 225.272L275.66 225.767L275.67 225.762Z" fill="#FFF9F6"/>
<path d="M263.131 224.351L274.076 225.727C274.606 225.791 275.141 225.806 275.675 225.761L281.819 225.267C281.848 224.826 281.829 224.386 281.754 223.95L279.254 209.645L265.052 206.899L263.967 210.61C263.651 211.689 262.928 212.604 261.948 213.163L256.067 216.498C254.977 217.117 253.715 217.374 252.473 217.206C250.705 216.964 248.111 216.964 247.27 218.814L246.987 219.784L261.324 223.975C261.918 224.148 262.527 224.277 263.146 224.351H263.131Z" fill="#031026"/>
<path d="M294.804 117.574L279.601 158.719L262.764 209.68L260.428 214.589L269.784 219.967C269.784 219.967 277.032 222.303 282.18 219.967L282.883 215.291L284.522 212.956L285.69 206.642V201.501L288.962 196.36L296.695 177.032C297.774 174.34 299.111 171.757 300.695 169.327L317.492 143.528C317.492 143.528 328.249 129.504 323.808 118.747L294.809 117.579L294.804 117.574Z" fill="#002D49"/>
<path d="M328.17 69.3389L328.714 70.8184C328.714 70.8184 325.289 73.154 319.323 70.0762L328.17 69.334V69.3389Z" fill="#031026"/>
<path d="M296.442 58.6655L324.274 38.7935L331.521 44.6374L318.19 53.2868C318.19 53.2868 310.472 59.1306 317.021 68.2452C317.021 68.2452 322.635 74.1781 328.714 70.8183L335.561 65.6425L332.689 72.4562L330.59 114.813V124.808L299.017 124.818L292.002 123.883L289.898 121.31V123.645H286.626L285.69 67.7752L288.165 59.576C289.472 55.2513 291.447 51.1541 294.017 47.443L299.497 39.5308L303.19 38.7886L296.447 58.6606L296.442 58.6655Z" fill="#EC6625"/>
<path d="M331.333 99.8101L308.175 100.864H298.868L295.432 101.794L286.234 100.849L286.314 105.446H295.432H300.447L310.62 106.277L330.986 106.762L331.333 99.8101Z" fill="#F4A640"/>
<path d="M331.813 90.1611L309.011 91.9375H299.7L296.269 92.8678L286.086 92.0068L286.175 97.0688L296.269 96.5196H301.284L311.457 97.3509H331.422L331.813 90.1611Z" fill="#F4A640"/>
<path d="M289.947 121.315L289.838 121.305L292.596 83.4859L292.863 77.3749C293.026 73.5846 293.581 69.7942 294.507 66.1128L296.388 58.6509L296.492 58.6756L294.611 66.1375C293.685 69.8091 293.135 73.5945 292.967 77.3749L292.7 83.4859L289.942 121.31L289.947 121.315Z" fill="#031026"/>
<path d="M315.229 61.2339C315.229 61.2339 325.521 64.663 328.17 69.339L305.908 82.5211C302.437 84.5746 297.952 83.2484 296.16 79.6412C294.527 76.3507 295.739 72.3575 298.932 70.5365L315.229 61.2388V61.2339Z" fill="#F2C0A0"/>
<path d="M298.086 71.1055L269.547 88.35L273.913 94.1196L304.625 83.2137L298.086 71.1055Z" fill="#F2C0A0"/>
<path d="M314.492 61.4715L322.402 54.5391L314.492 59.6654C314.492 59.6654 314.309 60.947 314.492 61.4764V61.4715Z" fill="#031026"/>
<path d="M311.799 11.2124V18.323C311.556 18.2339 311.308 18.1993 311.056 18.2339C309.873 18.3922 309.101 19.9361 309.328 21.6828C309.551 23.385 310.645 24.6517 311.799 24.5726V27.4277C311.799 29.6148 313.031 31.6139 314.987 32.5936L321.125 35.6664C321.962 36.087 322.883 36.3048 323.818 36.3048C326.1 36.3048 328.189 35.0182 329.199 32.9746C330.907 29.5158 333.209 23.86 333.308 18.3824V13.3946L311.794 11.2124H311.799Z" fill="#F2C0A0"/>
<path d="M305.873 45.6519L309.289 49.4917L305.873 47.0522L300.447 46.8543L305.873 45.6519Z" fill="#031026"/>
<path d="M322.897 28.0018C321.818 28.076 320.759 27.6802 319.972 26.933L317.774 24.8448C317.041 24.1471 316.61 23.1872 316.576 22.1777L316.472 19.0059L318.402 15.1117L318.6 11.9053L309.289 14.1369L309.917 18.9515C309.917 18.9515 310.917 17.6996 312.472 18.8624C313.818 19.8719 314.254 21.7027 313.591 23.2515L311.799 27.4327C311.799 29.6198 313.031 31.6189 314.987 32.5987L321.125 35.6715C321.962 36.0921 322.883 36.3098 323.818 36.3098C326.1 36.3098 328.189 35.0233 329.199 32.9797C329.635 32.094 330.115 31.0548 330.585 29.9167C328.105 28.0117 324.818 27.883 322.892 28.0117L322.897 28.0018Z" fill="#031026"/>
<path d="M308.214 14.9536C308.214 14.9536 331.12 13.8205 334.798 18.4619C334.798 18.4619 335.382 9.69368 334.214 6.893C334.214 6.893 331.056 -0.702496 318.195 0.346524C318.195 0.346524 307.482 1.925 308.219 14.9586L308.214 14.9536Z" fill="#EC6625"/>
<path d="M309.289 20.614C309.289 20.614 306.63 19.7679 306.68 16.5763C306.7 15.3194 307.7 14.2952 308.952 14.1814C314.318 13.6915 329.823 12.6227 337.1 15.7895C339.011 16.6208 338.986 19.3968 337.051 20.1736C336.051 20.5744 334.803 20.7971 333.308 20.5645V19.7134C333.308 18.7337 332.764 17.8282 331.892 17.3779C329.585 16.1854 323.922 14.5376 311.214 16.0419C310.303 16.1507 309.655 16.982 309.774 17.8925L309.912 18.9514L309.284 20.619L309.289 20.614Z" fill="#D8501A"/>
<path d="M325.516 0.771746C325.516 0.771746 328.714 7.47162 327.313 13.8202H325.516C325.516 4.66598 321.298 0.242288 321.298 0.242288C321.298 0.242288 324.482 -0.564269 325.516 0.771746Z" fill="#D8501A"/>
<path d="M45.9698 229.424C48.343 229.424 50.2668 227.501 50.2668 225.129C50.2668 222.756 48.343 220.833 45.9698 220.833C43.5967 220.833 41.6729 222.756 41.6729 225.129C41.6729 227.501 43.5967 229.424 45.9698 229.424Z" fill="#031026"/>
<path d="M45.9698 228.424C47.7907 228.424 49.2668 226.949 49.2668 225.129C49.2668 223.308 47.7907 221.833 45.9698 221.833C44.149 221.833 42.6729 223.308 42.6729 225.129C42.6729 226.949 44.149 228.424 45.9698 228.424Z" fill="#002D49"/>
<path d="M25.7571 210.343L91.296 213.96H205.037V207.399H25.9057C25.0888 207.399 24.4304 208.057 24.4304 208.873C24.4304 209.631 25.0047 210.269 25.7621 210.343H25.7571Z" fill="#EC6625"/>
<path d="M200.666 192.411L221.255 200.125C222.275 200.506 222.74 201.694 222.255 202.668C221.874 203.43 221.022 203.831 220.191 203.633L196.919 198.185L200.666 192.406V192.411Z" fill="#031026"/>
<path d="M238.156 198.047H215.988C214.429 198.047 213.166 199.309 213.166 200.865C213.166 202.421 214.429 203.683 215.988 203.683H238.156C239.714 203.683 240.978 202.421 240.978 200.865C240.978 199.309 239.714 198.047 238.156 198.047Z" fill="#031026"/>
<path d="M226.601 179.293C233.156 179.293 238.478 184.612 238.478 191.164V200.867H214.73V191.164C214.73 184.612 220.052 179.293 226.606 179.293H226.601Z" fill="#031026"/>
<path d="M222.443 158.679H217.225V210.684H222.443V158.679Z" fill="#031026"/>
<path d="M253.875 102.874L229.64 181.957L232.996 182.985L257.231 103.902L253.875 102.874Z" fill="#031026"/>
<path d="M243.423 156.873L237.666 181.727C236.869 185.157 233.285 187.151 229.953 186.013C226.701 184.904 225.062 181.272 226.384 178.1L236.171 154.656L243.428 156.878L243.423 156.873Z" fill="#031026"/>
<path d="M196.483 158.897L185.666 207.404H205.042V162.741H225.042V159.772C225.042 157.447 223.156 155.562 220.829 155.562H200.656C198.656 155.562 196.924 156.952 196.488 158.902L196.483 158.897Z" fill="#EC6625"/>
<path d="M219.686 229.419C226.324 229.419 231.705 224.04 231.705 217.404C231.705 210.769 226.324 205.39 219.686 205.39C213.047 205.39 207.666 210.769 207.666 217.404C207.666 224.04 213.047 229.419 219.686 229.419Z" fill="#031026"/>
<path d="M45.6381 223.604L52.435 216.811H75.3655V218.958H64.8953L46.8559 225.514C46.346 225.698 45.7816 225.509 45.4846 225.054C45.1876 224.594 45.247 223.99 45.6381 223.599V223.604Z" fill="#031026"/>
<path d="M219.686 224.609C223.666 224.609 226.893 221.383 226.893 217.404C226.893 213.425 223.666 210.2 219.686 210.2C215.705 210.2 212.478 213.425 212.478 217.404C212.478 221.383 215.705 224.609 219.686 224.609Z" fill="#002D49"/>
<path d="M28.4897 207.903V214.747C28.4897 217.077 30.3808 218.963 32.7075 218.963H181.448C183.78 218.963 185.666 217.072 185.666 214.747V207.903C185.666 205.573 183.775 203.688 181.448 203.688H32.7075C30.3759 203.688 28.4897 205.578 28.4897 207.903ZM97.0781 215.84H44.8955C42.5639 215.84 40.6777 213.95 40.6777 211.624C40.6777 209.294 42.5688 207.409 44.8955 207.409H97.0781C99.4098 207.409 101.296 209.299 101.296 211.624C101.296 213.955 99.4048 215.84 97.0781 215.84ZM168.949 215.84H116.766C114.434 215.84 112.548 213.95 112.548 211.624C112.548 209.294 114.439 207.409 116.766 207.409H168.949C171.28 207.409 173.166 209.299 173.166 211.624C173.166 213.955 171.275 215.84 168.949 215.84Z" fill="#031026"/>
<path d="M253.455 102.513L247.53 121.85C247.164 123.044 247.835 124.308 249.03 124.674C250.225 125.04 251.49 124.368 251.856 123.174L257.781 103.838C258.147 102.643 257.475 101.379 256.281 101.013C255.086 100.647 253.821 101.319 253.455 102.513Z" fill="#031026"/>
<path d="M315.229 61.2339L325.19 71.1006L328.17 69.339C328.17 69.339 325.759 64.4007 315.229 61.2339Z" fill="#D78A71"/>
<path d="M312.407 20.8021C312.407 20.238 311.893 19.7977 311.308 19.9214C310.952 19.9956 310.675 20.2925 310.615 20.6487C310.576 20.9011 310.635 21.1386 310.769 21.3266C310.868 21.4652 310.912 21.6384 310.868 21.7967C310.843 21.8858 310.838 21.9897 310.858 22.0936C310.907 22.3311 311.11 22.5241 311.353 22.5637C311.739 22.628 312.076 22.3311 312.076 21.96C312.076 21.9303 312.076 21.9056 312.071 21.8759C312.046 21.6978 312.081 21.5196 312.195 21.3811C312.328 21.2277 312.407 21.0248 312.407 20.8021Z" fill="#D78A71"/>
<path d="M329.244 25.2409C329.105 25.2409 328.967 25.2606 328.843 25.3002C329.308 25.4536 329.645 25.894 329.645 26.4086C329.645 27.0568 329.12 27.5814 328.472 27.5814C328.417 27.5814 328.363 27.5764 328.308 27.5665C328.551 27.7991 328.883 27.9426 329.244 27.9426C329.992 27.9426 330.6 27.3389 330.6 26.5868C330.6 25.8346 329.996 25.231 329.244 25.231V25.2409Z" fill="#D78A71"/>
<path d="M326.14 21.3118C326.237 20.8126 326.132 20.3725 325.907 20.3289C325.681 20.2854 325.42 20.6548 325.324 21.1541C325.227 21.6534 325.332 22.0934 325.557 22.137C325.783 22.1806 326.044 21.8111 326.14 21.3118Z" fill="#031026"/>
<path d="M332.001 22.6468C332.097 22.1475 331.993 21.7074 331.767 21.6639C331.542 21.6203 331.281 21.9897 331.184 22.489C331.088 22.9883 331.192 23.4284 331.418 23.4719C331.643 23.5155 331.904 23.1461 332.001 22.6468Z" fill="#031026"/>
<path d="M325.739 29.6842V30.2435C325.739 30.7584 326.071 31.2138 326.561 31.3673L328.031 31.8326C328.031 31.8326 327.858 29.8178 325.739 29.6792V29.6842Z" fill="white"/>
<path d="M325.912 18.4566L326.363 19.3081C326.363 19.3081 324.071 18.823 323.412 19.3081C323.412 19.3081 324.071 17.7784 325.912 18.4566Z" fill="#031026"/>
<path d="M330.477 19.649L329.764 20.2975C329.764 20.2975 332.085 20.6144 332.541 21.2926C332.541 21.2926 332.437 19.6342 330.477 19.649Z" fill="#031026"/>
<path d="M277.334 93.605L273.264 95.7229C273.264 95.7229 272.784 98.1029 271.849 98.7858L267.957 104.001C267.294 104.887 266.032 105.055 265.165 104.372C264.477 103.828 264.23 102.893 264.561 102.081L266.309 97.8159L261.824 98.4691C260.883 98.6077 260.047 99.147 259.537 99.9536L255.666 106.074C255.314 106.782 254.497 107.124 253.745 106.881C252.918 106.609 252.458 105.723 252.725 104.892L253.646 101.992C252.873 101.324 252.839 100.137 253.576 99.4241L261.269 91.9721L261.621 91.3239C262.136 90.3738 263.047 89.7009 264.111 89.498L268.512 88.6519L271.537 86.6924L277.334 93.605Z" fill="#002D49"/>
<path d="M89.8405 163.483H39.9995V203.836H89.8405V163.483Z" fill="#D9BC8E"/>
<path d="M111.949 163.483H89.8455V203.836H111.949V163.483Z" fill="url(#paint7_linear_5635_28386)"/>
<path d="M105.647 181.653H104.454L102.885 181.089L100.895 181.653L99.3156 181.025L97.182 181.653V163.483H105.647V181.653Z" fill="url(#paint8_linear_5635_28386)"/>
<path d="M84.5832 194.108H69.6279V201.298H84.5832V194.108Z" fill="url(#paint9_linear_5635_28386)"/>
<path d="M56.5042 193.262H43.1034V194.108H56.5042V193.262Z" fill="#282828"/>
<path d="M50.0637 195.098H43.1034V195.944H50.0637V195.098Z" fill="#282828"/>
<path d="M47.0538 196.928H43.1034V197.775H47.0538V196.928Z" fill="#282828"/>
<path d="M56.5042 196.928H51.8508V197.775H56.5042V196.928Z" fill="#282828"/>
<path d="M72.316 195.444H71.8606V199.813H72.316V195.444Z" fill="#282828"/>
<path d="M76.8754 195.444H76.4199V198.814H76.8754V195.444Z" fill="#282828"/>
<path d="M73.2269 195.444H72.7715V198.814H73.2269V195.444Z" fill="#282828"/>
<path d="M74.1378 195.444H73.6824V198.814H74.1378V195.444Z" fill="#282828"/>
<path d="M75.0487 195.444H74.5933V198.814H75.0487V195.444Z" fill="#282828"/>
<path d="M75.9645 195.444H75.509V198.814H75.9645V195.444Z" fill="#282828"/>
<path d="M77.7863 195.444H77.3308V198.814H77.7863V195.444Z" fill="#282828"/>
<path d="M78.6971 195.444H78.2417V198.814H78.6971V195.444Z" fill="#282828"/>
<path d="M79.608 195.444H79.1526V198.814H79.608V195.444Z" fill="#282828"/>
<path d="M80.5239 195.444H80.0685V198.814H80.5239V195.444Z" fill="#282828"/>
<path d="M81.4348 195.444H80.9794V198.814H81.4348V195.444Z" fill="#282828"/>
<path d="M82.3456 195.444H81.8901V199.813H82.3456V195.444Z" fill="#282828"/>
<path d="M162.711 163.483H112.87V203.836H162.711V163.483Z" fill="#D9BC8E"/>
<path d="M184.815 163.483H162.711V203.836H184.815V163.483Z" fill="url(#paint10_linear_5635_28386)"/>
<path d="M178.513 181.653H177.325L175.755 181.089L173.765 181.653L172.181 181.025L170.052 181.653V163.483H178.513V181.653Z" fill="url(#paint11_linear_5635_28386)"/>
<path d="M157.449 194.108H142.493V201.298H157.449V194.108Z" fill="url(#paint12_linear_5635_28386)"/>
<path d="M129.375 193.262H115.974V194.108H129.375V193.262Z" fill="#282828"/>
<path d="M122.934 195.098H115.974V195.944H122.934V195.098Z" fill="#282828"/>
<path d="M119.924 196.928H115.974V197.775H119.924V196.928Z" fill="#282828"/>
<path d="M129.375 196.928H124.721V197.775H129.375V196.928Z" fill="#282828"/>
<path d="M145.182 195.444H144.726V199.813H145.182V195.444Z" fill="#282828"/>
<path d="M149.741 195.444H149.286V198.814H149.741V195.444Z" fill="#282828"/>
<path d="M146.097 195.444H145.642V198.814H146.097V195.444Z" fill="#282828"/>
<path d="M147.008 195.444H146.553V198.814H147.008V195.444Z" fill="#282828"/>
<path d="M147.919 195.444H147.464V198.814H147.919V195.444Z" fill="#282828"/>
<path d="M148.83 195.444H148.375V198.814H148.83V195.444Z" fill="#282828"/>
<path d="M150.657 195.444H150.201V198.814H150.657V195.444Z" fill="#282828"/>
<path d="M151.568 195.444H151.112V198.814H151.568V195.444Z" fill="#282828"/>
<path d="M152.479 195.444H152.023V198.814H152.479V195.444Z" fill="#282828"/>
<path d="M153.389 195.444H152.934V198.814H153.389V195.444Z" fill="#282828"/>
<path d="M154.3 195.444H153.845V198.814H154.3V195.444Z" fill="#282828"/>
<path d="M155.216 195.444H154.761V199.813H155.216V195.444Z" fill="#282828"/>
<path d="M128.707 122.799H78.8655V163.152H128.707V122.799Z" fill="#D9BC8E"/>
<path d="M150.81 122.799H128.707V163.152H150.81V122.799Z" fill="url(#paint13_linear_5635_28386)"/>
<path d="M144.508 140.969H143.32L141.751 140.405L139.761 140.969L138.177 140.341L136.043 140.969V122.799H144.508V140.969Z" fill="url(#paint14_linear_5635_28386)"/>
<path d="M123.444 153.424H108.489V160.614H123.444V153.424Z" fill="url(#paint15_linear_5635_28386)"/>
<path d="M95.3702 152.578H81.9694V153.424H95.3702V152.578Z" fill="#282828"/>
<path d="M88.9297 154.409H81.9694V155.255H88.9297V154.409Z" fill="#282828"/>
<path d="M85.9198 156.244H81.9694V157.091H85.9198V156.244Z" fill="#282828"/>
<path d="M95.3702 156.244H90.7168V157.091H95.3702V156.244Z" fill="#282828"/>
<path d="M111.177 154.755H110.722V159.124H111.177V154.755Z" fill="#282828"/>
<path d="M115.736 154.755H115.281V158.125H115.736V154.755Z" fill="#282828"/>
<path d="M112.093 154.755H111.637V158.125H112.093V154.755Z" fill="#282828"/>
<path d="M113.004 154.755H112.548V158.125H113.004V154.755Z" fill="#282828"/>
<path d="M113.915 154.755H113.459V158.125H113.915V154.755Z" fill="#282828"/>
<path d="M114.825 154.755H114.37V158.125H114.825V154.755Z" fill="#282828"/>
<path d="M116.652 154.755H116.197V158.125H116.652V154.755Z" fill="#282828"/>
<path d="M117.563 154.755H117.108V158.125H117.563V154.755Z" fill="#282828"/>
<path d="M118.474 154.755H118.018V158.125H118.474V154.755Z" fill="#282828"/>
<path d="M119.385 154.755H118.929V158.125H119.385V154.755Z" fill="#282828"/>
<path d="M120.296 154.755H119.84V158.125H120.296V154.755Z" fill="#282828"/>
<path d="M121.212 154.755H120.756V159.124H121.212V154.755Z" fill="#282828"/>
</g>
<defs>
<linearGradient id="paint0_linear_5635_28386" x1="310.506" y1="-83.4516" x2="206.596" y2="208.299" gradientUnits="userSpaceOnUse">
<stop stop-color="white"/>
<stop offset="0.44" stop-color="#CAF0FF"/>
<stop offset="1" stop-color="#A7CDF2"/>
</linearGradient>
<linearGradient id="paint1_linear_5635_28386" x1="211.117" y1="308.12" x2="211.117" y2="146.017" gradientUnits="userSpaceOnUse">
<stop stop-color="#350E00"/>
<stop offset="1" stop-color="#9B7654"/>
</linearGradient>
<linearGradient id="paint2_linear_5635_28386" x1="0.0330182" y1="208.646" x2="0.0330219" y2="339.427" gradientUnits="userSpaceOnUse">
<stop stop-color="#35180F"/>
<stop offset="1" stop-color="#5E3018" stop-opacity="0"/>
</linearGradient>
<linearGradient id="paint3_linear_5635_28386" x1="127.328" y1="208.648" x2="127.328" y2="339.429" gradientUnits="userSpaceOnUse">
<stop stop-color="#35180F"/>
<stop offset="1" stop-color="#5E3018" stop-opacity="0"/>
</linearGradient>
<linearGradient id="paint4_linear_5635_28386" x1="254.628" y1="208.643" x2="254.628" y2="339.424" gradientUnits="userSpaceOnUse">
<stop stop-color="#35180F"/>
<stop offset="1" stop-color="#5E3018" stop-opacity="0"/>
</linearGradient>
<linearGradient id="paint5_linear_5635_28386" x1="381.927" y1="208.647" x2="381.927" y2="339.428" gradientUnits="userSpaceOnUse">
<stop stop-color="#35180F"/>
<stop offset="1" stop-color="#5E3018" stop-opacity="0"/>
</linearGradient>
<linearGradient id="paint6_linear_5635_28386" x1="153.241" y1="230.403" x2="390.862" y2="222.573" gradientUnits="userSpaceOnUse">
<stop stop-color="#35180F"/>
<stop offset="1" stop-color="#5E3018" stop-opacity="0"/>
</linearGradient>
<linearGradient id="paint7_linear_5635_28386" x1="79.7416" y1="137.985" x2="128.794" y2="243.983" gradientUnits="userSpaceOnUse">
<stop stop-color="#C19C67"/>
<stop offset="1" stop-color="#D9BC8E"/>
</linearGradient>
<linearGradient id="paint8_linear_5635_28386" x1="100.801" y1="166.917" x2="101.928" y2="177.353" gradientUnits="userSpaceOnUse">
<stop stop-color="#FBE3D9"/>
<stop offset="1" stop-color="#F3F3F1"/>
</linearGradient>
<linearGradient id="paint9_linear_5635_28386" x1="67.3656" y1="187.408" x2="96.6928" y2="218.447" gradientUnits="userSpaceOnUse">
<stop stop-color="#FBE3D9"/>
<stop offset="1" stop-color="#D8B7AB"/>
</linearGradient>
<linearGradient id="paint10_linear_5635_28386" x1="132.845" y1="108.351" x2="203.973" y2="239.381" gradientUnits="userSpaceOnUse">
<stop stop-color="#C19C67"/>
<stop offset="1" stop-color="#D9BC8E"/>
</linearGradient>
<linearGradient id="paint11_linear_5635_28386" x1="173.671" y1="166.917" x2="174.799" y2="177.353" gradientUnits="userSpaceOnUse">
<stop stop-color="#FBE3D9"/>
<stop offset="1" stop-color="#F3F3F1"/>
</linearGradient>
<linearGradient id="paint12_linear_5635_28386" x1="140.236" y1="187.408" x2="169.563" y2="218.447" gradientUnits="userSpaceOnUse">
<stop stop-color="#FBE3D9"/>
<stop offset="1" stop-color="#D8B7AB"/>
</linearGradient>
<linearGradient id="paint13_linear_5635_28386" x1="123.657" y1="113.338" x2="194.785" y2="244.374" gradientUnits="userSpaceOnUse">
<stop stop-color="#C19C67"/>
<stop offset="1" stop-color="#D9BC8E"/>
</linearGradient>
<linearGradient id="paint14_linear_5635_28386" x1="139.667" y1="126.233" x2="140.795" y2="136.669" gradientUnits="userSpaceOnUse">
<stop stop-color="#FBE3D9"/>
<stop offset="1" stop-color="#F3F3F1"/>
</linearGradient>
<linearGradient id="paint15_linear_5635_28386" x1="106.231" y1="146.724" x2="135.559" y2="177.757" gradientUnits="userSpaceOnUse">
<stop stop-color="#FBE3D9"/>
<stop offset="1" stop-color="#D8B7AB"/>
</linearGradient>
<clipPath id="clip0_5635_28386">
<rect width="450" height="246" fill="white"/>
</clipPath>
</defs>
</svg>
