<svg width="450" height="233" viewBox="0 0 450 233" fill="none" xmlns="http://www.w3.org/2000/svg">
<g clip-path="url(#clip0_5593_22322)">
<path d="M48.2668 232.428H311.883C322.051 232.428 331.477 229.285 339.259 223.913C348.179 217.755 358.838 214.606 369.679 214.606H371.659C414.926 214.606 450 179.533 450 136.266C450 104.811 431.461 77.6872 404.708 65.222C398.218 62.1973 394.288 55.5587 394.308 48.4004V48.2717C394.308 21.6136 372.699 0.00488281 346.041 0.00488281H82.4248C55.7667 0.00488281 34.158 21.6136 34.158 48.2717C34.158 74.9298 55.7667 96.5385 82.4248 96.5385C90.4545 96.5385 96.1722 104.37 93.6871 112.004C92.2663 116.37 91.2168 120.9 90.5832 125.568C89.7762 131.469 84.801 135.894 78.8457 135.894H48.2717C21.6087 135.89 0 157.503 0 184.156C0 210.814 21.6087 232.423 48.2668 232.423" fill="url(#paint0_linear_5593_22322)"/>
<mask id="mask0_5593_22322" style="mask-type:luminance" maskUnits="userSpaceOnUse" x="0" y="0" width="450" height="233">
<path d="M48.2668 232.428H311.883C322.051 232.428 331.477 229.285 339.259 223.913C348.179 217.755 358.838 214.606 369.679 214.606H371.659C414.926 214.606 450 179.533 450 136.266C450 104.811 431.461 77.6872 404.708 65.222C398.218 62.1973 394.288 55.5587 394.308 48.4004V48.2717C394.308 21.6136 372.699 0.00488281 346.041 0.00488281H82.4248C55.7667 0.00488281 34.158 21.6136 34.158 48.2717C34.158 74.9298 55.7667 96.5385 82.4248 96.5385C90.4545 96.5385 96.1722 104.37 93.6871 112.004C92.2663 116.37 91.2168 120.9 90.5832 125.568C89.7762 131.469 84.801 135.894 78.8457 135.894H48.2717C21.6087 135.89 0 157.503 0 184.156C0 210.814 21.6087 232.423 48.2668 232.423" fill="white"/>
</mask>
<g mask="url(#mask0_5593_22322)">
<path d="M314.274 242.131L259.21 255.829L166.27 211.775L217.037 176.86L314.274 242.131Z" fill="#081D46"/>
<path d="M216.77 195.394L314.274 242.132V185.994L216.77 139.251V195.394Z" fill="#1D497C"/>
<path d="M310.784 187.87L220.844 144.87V143.553L311.858 187.068V237.562L310.784 237.062V187.87Z" fill="url(#paint1_linear_5593_22322)"/>
<path d="M166.27 155.771L217.037 139.251V195.261L166.27 211.775V155.771Z" fill="#102F58"/>
<path d="M189.775 154.83L191.656 151.474L193.671 150.806V200.498H190.983L189.775 154.83Z" fill="#081D46"/>
<path d="M212.775 144.355V145.355L170.062 159.251V206.701L168.855 207.097V158.647L212.775 144.355Z" fill="#081D46"/>
<path d="M176.909 212.196L260.284 250.458L302.383 240.25L304.071 241.057L259.75 251.8L174.869 212.855L176.909 212.196Z" fill="#051429"/>
<path d="M169.132 163.454L213.186 149.424L213.126 148.211L169.092 162.266L169.132 163.454Z" fill="#081D46"/>
<path d="M169.122 162.929L213.171 148.885L213.126 147.231L169.038 161.271L169.122 162.929Z" fill="#295E94"/>
<path d="M169.132 169.905L213.186 155.87L213.126 154.657L169.092 168.712L169.132 169.905Z" fill="#081D46"/>
<path d="M169.122 169.375L213.171 155.336L213.126 153.677L169.038 167.722L169.122 169.375Z" fill="#295E94"/>
<path d="M168.998 175.949L213.047 161.915L212.993 160.702L168.959 174.756L168.998 175.949Z" fill="#081D46"/>
<path d="M168.988 175.42L213.037 161.375L212.988 159.722L168.904 173.761L168.988 175.42Z" fill="#295E94"/>
<path d="M168.998 182.261L213.047 168.226L212.993 167.013L168.959 181.067L168.998 182.261Z" fill="#081D46"/>
<path d="M168.988 181.731L213.037 167.692L212.988 166.033L168.904 180.073L168.988 181.731Z" fill="#295E94"/>
<path d="M168.998 188.573L213.047 174.538L212.993 173.325L168.959 187.38L168.998 188.573Z" fill="#081D46"/>
<path d="M168.988 188.043L213.037 174.004L212.988 172.345L168.904 186.39L168.988 188.043Z" fill="#295E94"/>
<path d="M168.998 194.884L213.047 180.85L212.993 179.637L168.959 193.691L168.998 194.884Z" fill="#081D46"/>
<path d="M168.988 194.36L213.037 180.315L212.988 178.657L168.904 192.701L168.988 194.36Z" fill="#295E94"/>
<path d="M168.998 201.196L213.047 187.162L212.993 185.949L168.959 200.003L168.998 201.196Z" fill="#081D46"/>
<path d="M168.988 200.672L213.037 186.627L212.988 184.969L168.904 199.013L168.988 200.672Z" fill="#295E94"/>
<path d="M168.998 207.241L213.047 193.206L212.993 191.993L168.959 206.047L168.998 207.241Z" fill="#081D46"/>
<path d="M168.988 206.711L213.037 192.672L212.988 191.013L168.904 205.058L168.988 206.711Z" fill="#295E94"/>
<path d="M186.151 152.281L192.731 149.459V201.3L186.151 204.122V152.281Z" fill="#102F58"/>
<path d="M305.769 235.126L308.591 236.334V185.553L305.769 184.157V235.126Z" fill="url(#paint2_linear_5593_22322)"/>
<path d="M306.665 235.503L308.848 236.592V185.622L306.665 184.538V235.503Z" fill="#295E94"/>
<path d="M300.531 232.706L303.353 233.914V183.137L300.531 181.736V232.706Z" fill="url(#paint3_linear_5593_22322)"/>
<path d="M301.427 233.087L303.61 234.172V183.207L301.427 182.118V233.087Z" fill="#295E94"/>
<path d="M295.294 230.29L298.116 231.498V180.721L295.294 179.32V230.29Z" fill="url(#paint4_linear_5593_22322)"/>
<path d="M296.19 230.671L298.373 231.756V180.786L296.19 179.702V230.671Z" fill="#295E94"/>
<path d="M290.056 227.671L292.878 228.879V178.103L290.056 176.702V227.671Z" fill="url(#paint5_linear_5593_22322)"/>
<path d="M290.952 228.053L293.135 229.137V178.167L290.952 177.083V228.053Z" fill="#295E94"/>
<path d="M284.819 225.186L287.64 226.394V175.617L284.819 174.216V225.186Z" fill="url(#paint6_linear_5593_22322)"/>
<path d="M285.715 225.567L287.898 226.652V175.682L285.715 174.598V225.567Z" fill="#295E94"/>
<path d="M279.581 222.771L282.403 223.978V173.197L279.581 171.801V222.771Z" fill="url(#paint7_linear_5593_22322)"/>
<path d="M280.477 223.147L282.66 224.236V173.266L280.477 172.182V223.147Z" fill="#295E94"/>
<path d="M274.344 220.151L277.165 221.359V170.578L274.344 169.182V220.151Z" fill="url(#paint8_linear_5593_22322)"/>
<path d="M275.24 220.528L277.423 221.617V170.647L275.24 169.563V220.528Z" fill="#295E94"/>
<path d="M269.106 217.731L271.923 218.939V168.162L269.106 166.761V217.731Z" fill="url(#paint9_linear_5593_22322)"/>
<path d="M270.002 218.112L272.18 219.196V168.232L270.002 167.143V218.112Z" fill="#295E94"/>
<path d="M263.868 215.181L266.685 216.389V165.612L263.868 164.211V215.181Z" fill="url(#paint10_linear_5593_22322)"/>
<path d="M264.764 215.563L266.943 216.647V165.677L264.764 164.593V215.563Z" fill="#295E94"/>
<path d="M258.631 212.696L261.448 213.904V163.128L258.631 161.727V212.696Z" fill="url(#paint11_linear_5593_22322)"/>
<path d="M259.527 213.078L261.705 214.162V163.192L259.527 162.108V213.078Z" fill="#295E94"/>
<path d="M253.393 210.142L256.21 211.354V160.573L253.393 159.177V210.142Z" fill="url(#paint12_linear_5593_22322)"/>
<path d="M254.284 210.523L256.467 211.612V160.642L254.284 159.558V210.523Z" fill="#295E94"/>
<path d="M248.156 207.657L250.972 208.87V158.088L248.156 156.692V207.657Z" fill="url(#paint13_linear_5593_22322)"/>
<path d="M249.047 208.038L251.23 209.127V158.157L249.047 157.073V208.038Z" fill="#295E94"/>
<path d="M242.913 205.107L245.735 206.315V155.538L242.913 154.137V205.107Z" fill="url(#paint14_linear_5593_22322)"/>
<path d="M243.809 205.488L245.992 206.572V155.603L243.809 154.519V205.488Z" fill="#295E94"/>
<path d="M237.676 202.691L240.497 203.899V153.123L237.676 151.722V202.691Z" fill="url(#paint15_linear_5593_22322)"/>
<path d="M238.572 203.073L240.755 204.157V153.187L238.572 152.103V203.073Z" fill="#295E94"/>
<path d="M232.438 200.137L235.26 201.345V150.568L232.438 149.167V200.137Z" fill="url(#paint16_linear_5593_22322)"/>
<path d="M233.334 200.518L235.517 201.602V150.637L233.334 149.548V200.518Z" fill="#295E94"/>
<path d="M227.2 197.652L230.022 198.86V148.083L227.2 146.687V197.652Z" fill="url(#paint17_linear_5593_22322)"/>
<path d="M228.096 198.033L230.28 199.117V148.153L228.096 147.063V198.033Z" fill="#295E94"/>
<path d="M221.963 195.167L224.785 196.38V145.598L221.963 144.202V195.167Z" fill="url(#paint18_linear_5593_22322)"/>
<path d="M222.859 195.548L225.042 196.637V145.668L222.859 144.583V195.548Z" fill="#295E94"/>
<path d="M216.77 254.156L314.274 300.893V244.755L216.77 198.018V254.156Z" fill="#1D497C"/>
<path d="M310.784 246.636L220.844 203.637V202.315L311.858 245.829V296.329L310.784 295.824V246.636Z" fill="url(#paint19_linear_5593_22322)"/>
<path d="M166.27 214.538L217.037 198.018V254.022L166.27 270.542V214.538Z" fill="#102F58"/>
<path d="M189.775 213.597L191.656 210.241L193.671 209.567V259.26H190.983L189.775 213.597Z" fill="#081D46"/>
<path d="M212.775 203.122V204.117L170.062 218.013V265.468L168.855 265.859V217.409L212.775 203.122Z" fill="#081D46"/>
<path d="M169.132 222.221L213.186 208.186L213.126 206.973L169.092 221.027L169.132 222.221Z" fill="#081D46"/>
<path d="M169.122 221.696L213.171 207.652L213.126 205.993L169.038 220.038L169.122 221.696Z" fill="#295E94"/>
<path d="M169.132 228.666L213.186 214.637L213.126 213.424L169.092 227.478L169.132 228.666Z" fill="#081D46"/>
<path d="M169.122 228.142L213.171 214.097L213.126 212.444L169.038 226.483L169.122 228.142Z" fill="#295E94"/>
<path d="M168.998 234.711L213.047 220.681L212.993 219.463L168.959 233.523L168.998 234.711Z" fill="#081D46"/>
<path d="M168.988 234.186L213.037 220.142L212.988 218.483L168.904 232.528L168.988 234.186Z" fill="#295E94"/>
<path d="M168.998 241.022L213.047 226.993L212.993 225.78L168.959 239.834L168.998 241.022Z" fill="#081D46"/>
<path d="M168.988 240.498L213.037 226.453L212.988 224.8L168.904 238.839L168.988 240.498Z" fill="#295E94"/>
<path d="M168.998 247.334L213.047 233.305L212.993 232.092L168.959 246.146L168.998 247.334Z" fill="#081D46"/>
<path d="M168.988 246.81L213.037 232.765L212.988 231.112L168.904 245.151L168.988 246.81Z" fill="#295E94"/>
<path d="M186.151 211.048L192.731 208.226V260.067L186.151 262.889V211.048Z" fill="#102F58"/>
<path d="M279.581 281.532L282.403 282.74V231.963L279.581 230.562V281.532Z" fill="url(#paint20_linear_5593_22322)"/>
<path d="M280.477 281.914L282.66 282.998V232.033L280.477 230.944V281.914Z" fill="#295E94"/>
<path d="M274.344 278.913L277.165 280.121V229.344L274.344 227.943V278.913Z" fill="url(#paint21_linear_5593_22322)"/>
<path d="M275.24 279.294L277.423 280.379V229.414L275.24 228.325V279.294Z" fill="#295E94"/>
<path d="M269.106 276.498L271.923 277.705V226.929L269.106 225.528V276.498Z" fill="url(#paint22_linear_5593_22322)"/>
<path d="M270.002 276.879L272.18 277.963V226.993L270.002 225.909V276.879Z" fill="#295E94"/>
<path d="M263.868 273.943L266.685 275.151V224.374L263.868 222.978V273.943Z" fill="url(#paint23_linear_5593_22322)"/>
<path d="M264.764 274.324L266.943 275.408V224.444L264.764 223.354V274.324Z" fill="#295E94"/>
<path d="M258.631 271.458L261.448 272.671V221.889L258.631 220.493V271.458Z" fill="url(#paint24_linear_5593_22322)"/>
<path d="M259.527 271.839L261.705 272.928V221.959L259.527 220.875V271.839Z" fill="#295E94"/>
<path d="M253.393 268.908L256.21 270.116V219.339L253.393 217.938V268.908Z" fill="url(#paint25_linear_5593_22322)"/>
<path d="M254.284 269.29L256.467 270.374V219.404L254.284 218.32V269.29Z" fill="#295E94"/>
<path d="M248.156 266.423L250.973 267.631V216.855L248.156 215.454V266.423Z" fill="url(#paint26_linear_5593_22322)"/>
<path d="M249.047 266.805L251.23 267.889V216.919L249.047 215.835V266.805Z" fill="#295E94"/>
<path d="M242.913 263.874L245.735 265.081V214.3L242.913 212.904V263.874Z" fill="url(#paint27_linear_5593_22322)"/>
<path d="M243.809 264.25L245.992 265.339V214.369L243.809 213.285V264.25Z" fill="#295E94"/>
<path d="M237.676 261.453L240.497 262.661V211.884L237.676 210.483V261.453Z" fill="url(#paint28_linear_5593_22322)"/>
<path d="M238.572 261.834L240.755 262.919V211.954L238.572 210.865V261.834Z" fill="#295E94"/>
<path d="M232.438 258.903L235.26 260.111V209.335L232.438 207.934V258.903Z" fill="url(#paint29_linear_5593_22322)"/>
<path d="M233.334 259.285L235.517 260.369V209.399L233.334 208.315V259.285Z" fill="#295E94"/>
<path d="M227.2 256.418L230.022 257.626V206.85L227.2 205.449V256.418Z" fill="url(#paint30_linear_5593_22322)"/>
<path d="M228.096 256.8L230.28 257.884V206.914L228.096 205.83V256.8Z" fill="#295E94"/>
<path d="M221.963 253.933L224.785 255.141V204.364L221.963 202.963V253.933Z" fill="url(#paint31_linear_5593_22322)"/>
<path d="M222.859 254.314L225.042 255.399V204.429L222.859 203.345V254.314Z" fill="#295E94"/>
<path d="M205.859 198.305L122.221 219.117L-18.9503 152.202L58.1627 99.1626L205.859 198.305Z" fill="#081D46"/>
<path d="M57.7568 127.316L205.859 198.305V113.034L57.7568 42.0444V127.316Z" fill="#1D497C"/>
<path d="M200.557 115.89L63.9448 50.5743V48.5693L202.186 114.668V191.37L200.557 190.607V115.89Z" fill="url(#paint32_linear_5593_22322)"/>
<path d="M-18.9503 67.1333L58.1627 42.0444V127.113L-18.9503 152.202V67.1333Z" fill="#102F58"/>
<path d="M16.7523 65.7076L19.6087 60.6087L22.6681 59.5889V135.068H18.5889L16.7523 65.7076Z" fill="#081D46"/>
<path d="M51.6826 49.792V51.3068L-13.1929 72.4155V144.494L-15.0295 145.093V71.4997L51.6826 49.792Z" fill="#081D46"/>
<path d="M-2.797 152.84L123.85 210.954L187.795 195.454L190.354 196.676L123.038 212.993L-5.89102 153.835L-2.797 152.84Z" fill="#051429"/>
<path d="M-14.6038 78.8066L52.3064 57.49L52.2173 55.6484L-14.6682 76.9947L-14.6038 78.8066Z" fill="#081D46"/>
<path d="M-14.6186 78.0045L52.2866 56.673L52.2173 54.1582L-14.7474 75.4897L-14.6186 78.0045Z" fill="#295E94"/>
<path d="M-14.6038 88.5986L52.3064 67.282L52.2173 65.4404L-14.6682 86.7867L-14.6038 88.5986Z" fill="#081D46"/>
<path d="M-14.6186 87.7965L52.2866 66.465L52.2173 63.9502L-14.7474 85.2816L-14.6186 87.7965Z" fill="#295E94"/>
<path d="M-14.8117 97.7768L52.1034 76.4652L52.0143 74.6187L-14.8711 95.9699L-14.8117 97.7768Z" fill="#081D46"/>
<path d="M-14.8266 96.9796L52.0836 75.6481L52.0143 73.1333L-14.9503 94.4598L-14.8266 96.9796Z" fill="#295E94"/>
<path d="M-14.8117 107.366L52.1034 86.054L52.0143 84.2075L-14.8711 105.559L-14.8117 107.366Z" fill="#081D46"/>
<path d="M-14.8266 106.568L52.0836 85.237L52.0143 82.7222L-14.9503 104.049L-14.8266 106.568Z" fill="#295E94"/>
<path d="M-14.8117 116.955L52.1034 95.638L52.0143 93.7964L-14.8711 115.143L-14.8117 116.955Z" fill="#081D46"/>
<path d="M-14.8266 116.152L52.0836 94.821L52.0143 92.3062L-14.9503 113.638L-14.8266 116.152Z" fill="#295E94"/>
<path d="M-14.8117 126.543L52.1034 105.227L52.0143 103.385L-14.8711 124.732L-14.8117 126.543Z" fill="#081D46"/>
<path d="M-14.8266 125.741L52.0836 104.41L52.0143 101.895L-14.9503 123.226L-14.8266 125.741Z" fill="#295E94"/>
<path d="M-14.8117 136.128L52.1034 114.816L52.0143 112.975L-14.8711 134.321L-14.8117 136.128Z" fill="#081D46"/>
<path d="M-14.8266 135.331L52.0836 113.999L52.0143 111.484L-14.9503 132.811L-14.8266 135.331Z" fill="#295E94"/>
<path d="M-14.8117 145.311L52.1034 123.994L52.0143 122.153L-14.8711 143.499L-14.8117 145.311Z" fill="#081D46"/>
<path d="M-14.8266 144.509L52.0836 123.177L52.0143 120.663L-14.9503 141.994L-14.8266 144.509Z" fill="#295E94"/>
<path d="M11.2425 61.8315L21.2374 57.5444V136.291L11.2425 140.573V61.8315Z" fill="#102F58"/>
<path d="M192.938 187.667L197.226 189.503V112.37L192.938 110.247V187.667Z" fill="url(#paint33_linear_5593_22322)"/>
<path d="M194.3 188.241L197.617 189.894V112.474L194.3 110.826V188.241Z" fill="#295E94"/>
<path d="M184.983 183.993L189.27 185.83V108.702L184.983 106.573V183.993Z" fill="url(#paint34_linear_5593_22322)"/>
<path d="M186.344 184.572L189.661 186.221V108.801L186.344 107.152V184.572Z" fill="#295E94"/>
<path d="M177.028 180.32L181.31 182.157V105.029L177.028 102.905V180.32Z" fill="url(#paint35_linear_5593_22322)"/>
<path d="M178.389 180.899L181.701 182.548V105.128L178.389 103.479V180.899Z" fill="#295E94"/>
<path d="M169.072 176.345L173.355 178.176V101.049L169.072 98.9248V176.345Z" fill="url(#paint36_linear_5593_22322)"/>
<path d="M170.434 176.919L173.746 178.567V101.152L170.434 99.5039V176.919Z" fill="#295E94"/>
<path d="M161.117 172.568L165.399 174.404V97.2766L161.117 95.1528V172.568Z" fill="url(#paint37_linear_5593_22322)"/>
<path d="M162.473 173.147L165.79 174.795V97.3755L162.473 95.7271V173.147Z" fill="#295E94"/>
<path d="M153.162 168.894L157.444 170.731V93.6032L153.162 91.4795V168.894Z" fill="url(#paint38_linear_5593_22322)"/>
<path d="M154.518 169.474L157.835 171.122V93.7071L154.518 92.0586V169.474Z" fill="#295E94"/>
<path d="M145.206 164.919L149.488 166.756V89.6282L145.206 87.4995V164.919Z" fill="url(#paint39_linear_5593_22322)"/>
<path d="M146.563 165.499L149.88 167.147V89.7271L146.563 88.0786V165.499Z" fill="#295E94"/>
<path d="M137.246 161.246L141.533 163.083V85.9548L137.246 83.8311V161.246Z" fill="url(#paint40_linear_5593_22322)"/>
<path d="M138.607 161.825L141.924 163.474V86.0538L138.607 84.4053V161.825Z" fill="#295E94"/>
<path d="M129.291 157.37L133.578 159.207V82.0788L129.291 79.9551V157.37Z" fill="url(#paint41_linear_5593_22322)"/>
<path d="M130.652 157.949L133.969 159.598V82.1778L130.652 80.5293V157.949Z" fill="#295E94"/>
<path d="M121.335 153.598L125.617 155.434V78.3015L121.335 76.1777V153.598Z" fill="url(#paint42_linear_5593_22322)"/>
<path d="M122.697 154.177L126.009 155.825V78.4053L122.697 76.7568V154.177Z" fill="#295E94"/>
<path d="M113.38 149.722L117.662 151.558V74.4255L113.38 72.3018V149.722Z" fill="url(#paint43_linear_5593_22322)"/>
<path d="M114.741 150.301L118.053 151.949V74.5294L114.741 72.8809V150.301Z" fill="#295E94"/>
<path d="M105.425 145.949L109.707 147.781V70.653L105.425 68.5293V145.949Z" fill="url(#paint44_linear_5593_22322)"/>
<path d="M106.786 146.523L110.098 148.172V70.7569L106.786 69.1084V146.523Z" fill="#295E94"/>
<path d="M97.4692 142.073L101.751 143.905V66.7771L97.4692 64.6533V142.073Z" fill="url(#paint45_linear_5593_22322)"/>
<path d="M98.8257 142.647L102.142 144.296V66.8809L98.8257 65.2324V142.647Z" fill="#295E94"/>
<path d="M89.5139 138.4L93.796 140.237V63.1037L89.5139 60.98V138.4Z" fill="url(#paint46_linear_5593_22322)"/>
<path d="M90.8703 138.979L94.1871 140.628V63.2076L90.8703 61.5591V138.979Z" fill="#295E94"/>
<path d="M81.5536 134.523L85.8406 136.36V59.2273L81.5536 57.1035V134.523Z" fill="url(#paint47_linear_5593_22322)"/>
<path d="M82.9149 135.103L86.2317 136.751V59.3311L82.9149 57.6826V135.103Z" fill="#295E94"/>
<path d="M73.5982 130.747L77.8853 132.583V55.4553L73.5982 53.3315V130.747Z" fill="url(#paint48_linear_5593_22322)"/>
<path d="M74.9596 131.326L78.2764 132.974V55.5591L74.9596 53.9106V131.326Z" fill="#295E94"/>
<path d="M65.6429 126.974L69.9299 128.811V51.6829L65.6429 49.5542V126.974Z" fill="url(#paint49_linear_5593_22322)"/>
<path d="M67.0042 127.553L70.321 129.202V51.7818L67.0042 50.1333V127.553Z" fill="#295E94"/>
<path d="M205.859 287.349L122.221 308.155L-18.9503 241.245L58.1627 188.206L205.859 287.349Z" fill="#081D46"/>
<path d="M57.7568 216.354L205.859 287.349V202.077L57.7568 131.083V216.354Z" fill="#1D497C"/>
<path d="M200.557 204.934L63.9448 139.618V137.613L202.186 203.706V280.413L200.557 279.651V204.934Z" fill="url(#paint50_linear_5593_22322)"/>
<path d="M-18.9503 156.177L58.1627 131.083V216.151L-18.9503 241.245V156.177Z" fill="#102F58"/>
<path d="M16.7523 154.746L19.6087 149.647L22.6681 148.627V224.107H18.5889L16.7523 154.746Z" fill="#081D46"/>
<path d="M51.6826 138.835V140.35L-13.1929 161.459V233.537L-15.0295 234.136V160.543L51.6826 138.835Z" fill="#081D46"/>
<path d="M-14.6038 167.845L52.3064 146.533L52.2173 144.692L-14.6682 166.038L-14.6038 167.845Z" fill="#081D46"/>
<path d="M-14.6186 167.048L52.2866 145.716L52.2173 143.202L-14.7474 164.528L-14.6186 167.048Z" fill="#295E94"/>
<path d="M-14.6038 177.637L52.3064 156.325L52.2173 154.484L-14.6682 175.83L-14.6038 177.637Z" fill="#081D46"/>
<path d="M-14.6186 176.84L52.2866 155.508L52.2173 152.994L-14.7474 174.32L-14.6186 176.84Z" fill="#295E94"/>
<path d="M-14.8117 186.82L52.1034 165.504L52.0143 163.662L-14.8711 185.008L-14.8117 186.82Z" fill="#081D46"/>
<path d="M-14.8266 186.018L52.0836 164.687L52.0143 162.172L-14.9503 183.503L-14.8266 186.018Z" fill="#295E94"/>
<path d="M-14.8117 196.409L52.1034 175.093L52.0143 173.251L-14.8711 194.597L-14.8117 196.409Z" fill="#081D46"/>
<path d="M-14.8266 195.607L52.0836 174.276L52.0143 171.761L-14.9503 193.087L-14.8266 195.607Z" fill="#295E94"/>
<path d="M-14.8117 205.993L52.1034 184.681L52.0143 182.84L-14.8711 204.186L-14.8117 205.993Z" fill="#081D46"/>
<path d="M-14.8266 205.196L52.0836 183.864L52.0143 181.35L-14.9503 202.676L-14.8266 205.196Z" fill="#295E94"/>
<path d="M-14.8117 215.582L52.1034 194.271L52.0143 192.424L-14.8711 213.776L-14.8117 215.582Z" fill="#081D46"/>
<path d="M-14.8266 214.785L52.0836 193.454L52.0143 190.939L-14.9503 212.265L-14.8266 214.785Z" fill="#295E94"/>
<path d="M-14.8117 225.171L52.1034 203.855L52.0143 202.013L-14.8711 223.364L-14.8117 225.171Z" fill="#081D46"/>
<path d="M-14.8266 224.369L52.0836 203.043L52.0143 200.523L-14.9503 221.854L-14.8266 224.369Z" fill="#295E94"/>
<path d="M-14.8117 234.35L52.1034 213.038L52.0143 211.196L-14.8711 232.543L-14.8117 234.35Z" fill="#081D46"/>
<path d="M-14.8266 233.552L52.0836 212.221L52.0143 209.706L-14.9503 231.033L-14.8266 233.552Z" fill="#295E94"/>
<path d="M11.2425 150.87L21.2374 146.588V225.33L11.2425 229.617V150.87Z" fill="#102F58"/>
<path d="M192.938 276.705L197.226 278.542V201.414L192.938 199.29V276.705Z" fill="url(#paint51_linear_5593_22322)"/>
<path d="M194.3 277.284L197.617 278.933V201.513L194.3 199.864V277.284Z" fill="#295E94"/>
<path d="M184.983 273.032L189.27 274.869V197.741L184.983 195.617V273.032Z" fill="url(#paint52_linear_5593_22322)"/>
<path d="M186.344 273.611L189.661 275.26V197.845L186.344 196.196V273.611Z" fill="#295E94"/>
<path d="M177.028 269.364L181.31 271.2V194.068L177.028 191.944V269.364Z" fill="url(#paint53_linear_5593_22322)"/>
<path d="M178.389 269.938L181.701 271.591V194.171L178.389 192.523V269.938Z" fill="#295E94"/>
<path d="M169.072 265.383L173.355 267.22V190.092L169.072 187.963V265.383Z" fill="url(#paint54_linear_5593_22322)"/>
<path d="M170.434 265.962L173.746 267.611V190.191L170.434 188.542V265.962Z" fill="#295E94"/>
<path d="M161.117 261.611L165.399 263.448V186.315L161.117 184.191V261.611Z" fill="url(#paint55_linear_5593_22322)"/>
<path d="M162.473 262.19L165.79 263.839V186.419L162.473 184.771V262.19Z" fill="#295E94"/>
<path d="M153.162 257.938L157.444 259.775V182.647L153.162 180.518V257.938Z" fill="url(#paint56_linear_5593_22322)"/>
<path d="M154.518 258.517L157.835 260.166V182.746L154.518 181.097V258.517Z" fill="#295E94"/>
<path d="M145.206 253.958L149.488 255.795V178.667L145.206 176.543V253.958Z" fill="url(#paint57_linear_5593_22322)"/>
<path d="M146.563 254.537L149.88 256.186V178.771L146.563 177.122V254.537Z" fill="#295E94"/>
<path d="M137.246 250.29L141.533 252.126V174.993L137.246 172.87V250.29Z" fill="url(#paint58_linear_5593_22322)"/>
<path d="M138.607 250.864L141.924 252.517V175.097L138.607 173.449V250.864Z" fill="#295E94"/>
<path d="M129.291 246.414L133.578 248.25V171.117L129.291 168.994V246.414Z" fill="url(#paint59_linear_5593_22322)"/>
<path d="M130.652 246.988L133.969 248.641V171.221L130.652 169.573V246.988Z" fill="#295E94"/>
<path d="M121.335 242.636L125.617 244.473V167.345L121.335 165.221V242.636Z" fill="url(#paint60_linear_5593_22322)"/>
<path d="M122.697 243.215L126.009 244.864V167.449L122.697 165.795V243.215Z" fill="#295E94"/>
<path d="M113.38 238.76L117.662 240.597V163.469L113.38 161.345V238.76Z" fill="url(#paint61_linear_5593_22322)"/>
<path d="M114.741 239.339L118.053 240.988V163.573L114.741 161.919V239.339Z" fill="#295E94"/>
<path d="M105.425 234.988L109.707 236.824V159.697L105.425 157.568V234.988Z" fill="url(#paint62_linear_5593_22322)"/>
<path d="M106.786 235.567L110.098 237.215V159.795L106.786 158.147V235.567Z" fill="#295E94"/>
<path d="M97.4692 231.112L101.751 232.948V155.821L97.4692 153.692V231.112Z" fill="url(#paint63_linear_5593_22322)"/>
<path d="M98.8257 231.691L102.142 233.339V155.919L98.8257 154.271V231.691Z" fill="#295E94"/>
<path d="M89.5139 227.438L93.796 229.275V152.147L89.5139 150.023V227.438Z" fill="url(#paint64_linear_5593_22322)"/>
<path d="M90.8703 228.018L94.1871 229.666V152.251L90.8703 150.598V228.018Z" fill="#295E94"/>
<path d="M81.5536 223.562L85.8406 225.399V148.271L81.5536 146.147V223.562Z" fill="url(#paint65_linear_5593_22322)"/>
<path d="M82.9149 224.141L86.2317 225.79V148.375L82.9149 146.721V224.141Z" fill="#295E94"/>
<path d="M73.5982 219.79L77.8853 221.627V144.499L73.5982 142.37V219.79Z" fill="url(#paint66_linear_5593_22322)"/>
<path d="M74.9596 220.369L78.2764 222.018V144.598L74.9596 142.949V220.369Z" fill="#295E94"/>
<path d="M65.6429 216.018L69.9299 217.854V140.721L65.6429 138.598V216.018Z" fill="url(#paint67_linear_5593_22322)"/>
<path d="M67.0042 216.592L70.321 218.24V140.825L67.0042 139.177V216.592Z" fill="#295E94"/>
<path d="M57.7568 304.893L205.859 375.882V290.611L57.7568 219.622V304.893Z" fill="#1D497C"/>
<path d="M200.557 293.468L63.9448 228.151V226.146L202.186 292.245V368.947L200.557 368.185V293.468Z" fill="url(#paint68_linear_5593_22322)"/>
<path d="M-18.9503 244.71L58.1627 219.622V304.69L-18.9503 329.779V244.71Z" fill="#102F58"/>
<path d="M51.6826 227.369V228.884L-13.1929 249.998V322.071L-15.0295 322.67V249.077L51.6826 227.369Z" fill="#081D46"/>
<path d="M-14.6186 255.582L52.2866 234.255L52.2173 231.735L-14.7474 253.067L-14.6186 255.582Z" fill="#295E94"/>
<path d="M73.5982 308.329L77.8853 310.16V233.032L73.5982 230.909V308.329Z" fill="url(#paint69_linear_5593_22322)"/>
<path d="M74.9596 308.903L78.2764 310.551V233.136L74.9596 231.488V308.903Z" fill="#295E94"/>
<path d="M65.6429 304.551L69.9299 306.388V229.26L65.6429 227.131V304.551Z" fill="url(#paint70_linear_5593_22322)"/>
<path d="M67.0042 305.13L70.321 306.779V229.359L67.0042 227.71V305.13Z" fill="#295E94"/>
<path d="M403.337 99.3454L403.803 98.984L353.199 33.96L352.996 34.0392L306.497 51.8954L306.705 52.44L353.006 34.6629L403.337 99.3454Z" fill="#1D497C"/>
<path d="M387.565 98.187L388.08 97.9098L353.239 33.9551L253.309 68.1329L253.502 68.6874L352.962 34.6679L387.565 98.187Z" fill="#1D497C"/>
<path d="M405.243 156.607L348.546 170.711L252.849 125.355L305.12 89.3999L405.243 156.607Z" fill="#D0502D"/>
<path d="M304.848 108.484L405.243 156.607V98.801L304.848 50.6777V108.484Z" fill="#E5873C"/>
<path d="M401.644 100.737L309.041 56.4649V55.1035L402.753 99.91V151.904L401.644 151.39V100.737Z" fill="#D0502D"/>
<path d="M252.849 67.6874L305.12 50.6777V108.345L252.849 125.355V67.6874Z" fill="#D0502D"/>
<path d="M277.051 66.7222L278.987 63.2618L281.061 62.5737L281.017 112.885L278.294 113.737L277.051 66.7222Z" fill="#D0502D"/>
<path d="M300.729 55.9351V56.9598L256.755 71.2715V120.127L255.507 120.533V70.6478L300.729 55.9351Z" fill="#D0502D"/>
<path d="M263.799 125.786L349.65 165.181L392.996 154.671L394.733 155.498L349.095 166.562L261.7 126.459L263.799 125.786Z" fill="#E5873C"/>
<path d="M255.656 84.0783L301.012 69.6279L300.952 67.8755L255.616 82.3456L255.656 84.0783Z" fill="#D0502D"/>
<path d="M255.646 83.029L301.002 68.5688L301.031 62.1777L255.636 76.638L255.646 83.029Z" fill="#E5873C"/>
<path d="M255.656 93.9987L301.012 79.5484L300.952 77.7959L255.616 92.266L255.656 93.9987Z" fill="#D0502D"/>
<path d="M255.646 92.9494L301.002 78.4892L301.031 72.0981L255.636 86.5584L255.646 92.9494Z" fill="#E5873C"/>
<path d="M255.656 106.563L301.012 92.1128L300.952 90.3604L255.616 104.83L255.656 106.563Z" fill="#D0502D"/>
<path d="M255.646 105.514L301.002 91.0586L301.031 84.6626L255.636 99.1228L255.646 105.514Z" fill="#E5873C"/>
<path d="M255.656 116.484L301.012 102.033L300.952 100.281L255.616 114.751L255.656 116.484Z" fill="#D0502D"/>
<path d="M255.646 115.434L301.002 100.974L301.031 94.583L255.636 109.043L255.646 115.434Z" fill="#E5873C"/>
<path d="M273.319 64.0934L280.091 61.1875V114.568L273.319 117.474V64.0934Z" fill="#D0502D"/>
<path d="M396.486 149.395L399.387 150.637V98.3556L396.486 96.915V149.395Z" fill="#D0502D"/>
<path d="M397.407 149.786L399.654 150.905V98.425L397.407 97.3062V149.786Z" fill="#EC6625"/>
<path d="M391.09 146.904L393.996 148.147V95.8654L391.09 94.4248V146.904Z" fill="#D0502D"/>
<path d="M392.011 147.296L394.258 148.414V95.9347L392.011 94.8159V147.296Z" fill="#EC6625"/>
<path d="M385.699 144.414L388.6 145.657V93.3751L385.699 91.9346V144.414Z" fill="#D0502D"/>
<path d="M386.62 144.805L388.867 145.924V93.4445L386.62 92.3257V144.805Z" fill="#EC6625"/>
<path d="M380.303 141.716L383.209 142.964V90.6774L380.303 89.2368V141.716Z" fill="#D0502D"/>
<path d="M381.224 142.108L383.471 143.226V90.7467L381.224 89.6279V142.108Z" fill="#EC6625"/>
<path d="M374.912 139.162L377.813 140.404V88.1227L374.912 86.6821V139.162Z" fill="#D0502D"/>
<path d="M375.833 139.553L378.08 140.667V88.1871L375.833 87.0732V139.553Z" fill="#EC6625"/>
<path d="M369.516 136.672L372.422 137.915V85.633L369.516 84.1924V136.672Z" fill="#D0502D"/>
<path d="M370.441 137.063L372.689 138.182V85.7023L370.441 84.5835V137.063Z" fill="#EC6625"/>
<path d="M364.125 133.974L367.031 135.216V82.9347L364.125 81.4941V133.974Z" fill="#D0502D"/>
<path d="M365.046 134.365L367.293 135.484V83.0041L365.046 81.8853V134.365Z" fill="#EC6625"/>
<path d="M358.734 131.484L361.635 132.731V80.4445L358.734 79.0039V131.484Z" fill="#D0502D"/>
<path d="M359.655 131.875L361.902 132.993V80.5138L359.655 79.395V131.875Z" fill="#EC6625"/>
<path d="M353.338 128.855L356.244 130.103V77.8161L353.338 76.3755V128.855Z" fill="#D0502D"/>
<path d="M354.259 129.251L356.506 130.365V77.8853L354.259 76.7715V129.251Z" fill="#EC6625"/>
<path d="M347.947 126.3L350.848 127.543V75.2614L347.947 73.8208V126.3Z" fill="#D0502D"/>
<path d="M348.867 126.692L351.115 127.81V75.3307L348.867 74.2119V126.692Z" fill="#EC6625"/>
<path d="M342.551 123.672L345.457 124.915V72.633L342.551 71.1924V123.672Z" fill="#D0502D"/>
<path d="M343.471 124.063L345.719 125.182V72.7023L343.471 71.5835V124.063Z" fill="#EC6625"/>
<path d="M337.16 121.112L340.061 122.36V70.0734L337.16 68.6328V121.112Z" fill="#D0502D"/>
<path d="M338.081 121.504L340.328 122.622V70.1427L338.081 69.0239V121.504Z" fill="#EC6625"/>
<path d="M331.764 118.484L334.67 119.732V67.445L331.764 66.0044V118.484Z" fill="#D0502D"/>
<path d="M332.689 118.88L334.937 119.994V67.5142L332.689 66.4004V118.88Z" fill="#EC6625"/>
<path d="M326.373 115.999L329.279 117.241V64.9596L326.373 63.519V115.999Z" fill="#D0502D"/>
<path d="M327.293 116.39L329.541 117.509V65.029L327.293 63.9102V116.39Z" fill="#EC6625"/>
<path d="M320.982 113.37L323.883 114.613V62.3312L320.982 60.8906V113.37Z" fill="#D0502D"/>
<path d="M321.902 113.761L324.15 114.88V62.4005L321.902 61.2817V113.761Z" fill="#EC6625"/>
<path d="M315.586 110.811L318.492 112.053V59.7716L315.586 58.3311V110.811Z" fill="#D0502D"/>
<path d="M316.506 111.202L318.754 112.321V59.841L316.506 58.7222V111.202Z" fill="#EC6625"/>
<path d="M310.195 108.252L313.096 109.499V57.2125L310.195 55.772V108.252Z" fill="#D0502D"/>
<path d="M311.115 108.643L313.363 109.762V57.2819L311.115 56.1631V108.643Z" fill="#EC6625"/>
<path d="M273.368 64.9399L274.487 65.5587V114.415L273.289 114.83L273.368 64.9399Z" fill="#D0502D"/>
<path d="M292.309 59.2021V64.9694L291.937 65.1575V72.4396L292.685 72.1624V74.7663L291.972 74.9842V82.0187L292.611 81.8009V87.3404L291.947 87.588V94.781L292.65 94.5532V97.2611L291.947 97.4888V104.662L292.819 104.35V107.969L291.472 108.464V59.3903L292.309 59.2021Z" fill="#D0502D"/>
<path d="M290.73 69.8955L292.338 69.3163C292.393 69.2965 292.432 69.2421 292.432 69.1827V67.5589C292.432 67.4599 292.338 67.3956 292.244 67.4253L290.636 68.0045C290.581 68.0243 290.541 68.0787 290.541 68.1381V69.7619C290.541 69.8609 290.636 69.9252 290.73 69.8955Z" fill="#D0502D"/>
<path d="M290.7 69.8609L292.309 69.2817C292.363 69.2619 292.403 69.2074 292.403 69.148V67.5242C292.403 67.4252 292.309 67.3609 292.215 67.3906L290.606 67.9698C290.551 67.9896 290.512 68.044 290.512 68.1035V69.7272C290.512 69.8262 290.606 69.8906 290.7 69.8609Z" fill="#FAE6DC"/>
<path d="M290.73 102.043L292.338 101.464C292.393 101.444 292.432 101.39 292.432 101.331V99.7069C292.432 99.6079 292.338 99.5435 292.244 99.5732L290.636 100.152C290.581 100.172 290.541 100.227 290.541 100.286V101.91C290.541 102.009 290.636 102.073 290.73 102.043Z" fill="#D0502D"/>
<path d="M290.7 102.009L292.309 101.43C292.363 101.41 292.403 101.355 292.403 101.296V99.6722C292.403 99.5732 292.309 99.5088 292.215 99.5385L290.606 100.118C290.551 100.138 290.512 100.192 290.512 100.251V101.875C290.512 101.974 290.606 102.039 290.7 102.009Z" fill="#FAE6DC"/>
<path d="M290.73 58.9253L292.338 58.3461C292.393 58.3263 292.432 58.2719 292.432 58.2124V56.5887C292.432 56.4897 292.338 56.4253 292.244 56.455L290.636 57.0342C290.581 57.054 290.541 57.1085 290.541 57.1679V58.7917C290.541 58.8907 290.636 58.955 290.73 58.9253Z" fill="#D0502D"/>
<path d="M290.7 58.8906L292.309 58.3114C292.363 58.2916 292.403 58.2372 292.403 58.1778V56.554C292.403 56.455 292.309 56.3907 292.215 56.4204L290.606 56.9996C290.551 57.0194 290.512 57.0738 290.512 57.1332V58.757C290.512 58.856 290.606 58.9203 290.7 58.8906Z" fill="#FAE6DC"/>
<path d="M291.244 111.494H291.294C291.548 111.494 291.754 111.288 291.754 111.033V56.7863C291.754 56.5321 291.548 56.3259 291.294 56.3259H291.244C290.99 56.3259 290.784 56.5321 290.784 56.7863V111.033C290.784 111.288 290.99 111.494 291.244 111.494Z" fill="#FCF1EB"/>
<path d="M291.858 67.6033L291.764 67.5538C291.764 67.5538 291.022 67.3904 290.774 67.9251V69.8359C290.774 69.8359 291.031 69.3112 291.764 69.4745L291.848 69.3706L291.858 67.6033Z" fill="#FAE6DC"/>
<path d="M291.858 99.7512L291.764 99.7017C291.764 99.7017 291.022 99.5384 290.774 100.073V101.984C290.774 101.984 291.031 101.459 291.764 101.623L291.848 101.519L291.858 99.7512Z" fill="#FAE6DC"/>
<path d="M290.73 111.098L292.338 110.518C292.393 110.499 292.432 110.444 292.432 110.385V108.761C292.432 108.662 292.338 108.598 292.244 108.627L290.636 109.207C290.581 109.226 290.541 109.281 290.541 109.34V110.964C290.541 111.063 290.636 111.127 290.73 111.098Z" fill="#D0502D"/>
<path d="M290.7 111.063L292.309 110.484C292.363 110.464 292.403 110.41 292.403 110.35V108.726C292.403 108.627 292.309 108.563 292.215 108.593L290.606 109.172C290.551 109.192 290.512 109.246 290.512 109.306V110.929C290.512 111.028 290.606 111.093 290.7 111.063Z" fill="#FAE6DC"/>
<path d="M291.858 108.806L291.764 108.756C291.764 108.756 291.022 108.593 290.774 109.128V111.039C290.774 111.039 291.031 110.514 291.764 110.677L291.848 110.573L291.858 108.806Z" fill="#FAE6DC"/>
<path d="M291.858 56.6331L291.764 56.5836C291.764 56.5836 291.022 56.4202 290.774 56.9548V58.8657C290.774 58.8657 291.031 58.341 291.764 58.5043L291.848 58.4004L291.858 56.6331Z" fill="#FAE6DC"/>
<path d="M286.358 61.0244V66.7917L285.987 66.9748V74.2619L286.73 73.9797V76.5836L286.017 76.8015V83.841L286.66 83.6232V89.1627L285.997 89.4102V96.6032L286.7 96.3755V99.0834L285.997 99.3062V106.479L286.863 106.167V109.786L285.522 110.281V61.2076L286.358 61.0244Z" fill="#D0502D"/>
<path d="M284.779 71.7173L286.388 71.1381C286.442 71.1183 286.482 71.0638 286.482 71.0044V69.3807C286.482 69.2817 286.388 69.2173 286.294 69.247L284.685 69.8262C284.631 69.846 284.591 69.9005 284.591 69.9599V71.5836C284.591 71.6827 284.685 71.747 284.779 71.7173Z" fill="#D0502D"/>
<path d="M284.749 71.6826L286.358 71.1034C286.413 71.0836 286.452 71.0292 286.452 70.9698V69.346C286.452 69.247 286.358 69.1827 286.264 69.2124L284.655 69.7916C284.601 69.8114 284.561 69.8658 284.561 69.9252V71.549C284.561 71.648 284.655 71.7123 284.749 71.6826Z" fill="#FAE6DC"/>
<path d="M284.779 103.865L286.388 103.286C286.442 103.266 286.482 103.212 286.482 103.152V101.529C286.482 101.43 286.388 101.365 286.294 101.395L284.685 101.974C284.631 101.994 284.591 102.048 284.591 102.108V103.732C284.591 103.831 284.685 103.895 284.779 103.865Z" fill="#D0502D"/>
<path d="M284.749 103.831L286.358 103.251C286.413 103.232 286.452 103.177 286.452 103.118V101.494C286.452 101.395 286.358 101.331 286.264 101.36L284.655 101.94C284.601 101.959 284.561 102.014 284.561 102.073V103.697C284.561 103.796 284.655 103.86 284.749 103.831Z" fill="#FAE6DC"/>
<path d="M284.779 60.7422L286.388 60.163C286.442 60.1432 286.482 60.0887 286.482 60.0293V58.4056C286.482 58.3066 286.388 58.2422 286.294 58.2719L284.685 58.8511C284.631 58.8709 284.591 58.9254 284.591 58.9848V60.6085C284.591 60.7076 284.685 60.7719 284.779 60.7422Z" fill="#D0502D"/>
<path d="M284.749 60.7075L286.358 60.1283C286.413 60.1085 286.452 60.0541 286.452 59.9947V58.3709C286.452 58.2719 286.358 58.2076 286.264 58.2373L284.655 58.8165C284.601 58.8363 284.561 58.8907 284.561 58.9501V60.5739C284.561 60.6729 284.655 60.7372 284.749 60.7075Z" fill="#FAE6DC"/>
<path d="M285.294 113.311H285.343C285.598 113.311 285.804 113.104 285.804 112.85V58.6032C285.804 58.349 285.598 58.1428 285.343 58.1428H285.294C285.04 58.1428 284.834 58.349 284.834 58.6032V112.85C284.834 113.104 285.04 113.311 285.294 113.311Z" fill="#FCF1EB"/>
<path d="M285.903 69.4251L285.809 69.3756C285.809 69.3756 285.066 69.2122 284.819 69.7468V71.6577C284.819 71.6577 285.076 71.133 285.809 71.2963L285.893 71.1924L285.903 69.4251Z" fill="#FAE6DC"/>
<path d="M285.903 101.573L285.809 101.524C285.809 101.524 285.066 101.361 284.819 101.895V103.806C284.819 103.806 285.076 103.281 285.809 103.445L285.893 103.341L285.903 101.573Z" fill="#FAE6DC"/>
<path d="M284.779 112.915L286.388 112.335C286.442 112.316 286.482 112.261 286.482 112.202V110.578C286.482 110.479 286.388 110.415 286.294 110.444L284.685 111.024C284.631 111.043 284.591 111.098 284.591 111.157V112.781C284.591 112.88 284.685 112.944 284.779 112.915Z" fill="#D0502D"/>
<path d="M284.749 112.88L286.358 112.301C286.413 112.281 286.452 112.226 286.452 112.167V110.543C286.452 110.444 286.358 110.38 286.264 110.41L284.655 110.989C284.601 111.009 284.561 111.063 284.561 111.122V112.746C284.561 112.845 284.655 112.91 284.749 112.88Z" fill="#FAE6DC"/>
<path d="M285.903 110.623L285.809 110.573C285.809 110.573 285.066 110.41 284.819 110.945V112.855C284.819 112.855 285.076 112.331 285.809 112.494L285.893 112.39L285.903 110.623Z" fill="#FAE6DC"/>
<path d="M285.903 58.45L285.809 58.4005C285.809 58.4005 285.066 58.2371 284.819 58.7717V60.6826C284.819 60.6826 285.076 60.1579 285.809 60.3212L285.893 60.2173L285.903 58.45Z" fill="#FAE6DC"/>
<path d="M269.165 66.8115V72.5738L268.794 72.7619V80.049L269.537 79.7668V82.3708L268.824 82.5886V89.6281L269.462 89.4103V94.9498L268.804 95.1973V102.39L269.507 102.163V104.866L268.804 105.093V112.266L269.67 111.955V115.573L268.329 116.068V66.9947L269.165 66.8115Z" fill="#D0502D"/>
<path d="M267.586 77.5044L269.195 76.9252C269.25 76.9054 269.289 76.8509 269.289 76.7915V75.1678C269.289 75.0688 269.195 75.0044 269.101 75.0341L267.492 75.6133C267.438 75.6331 267.398 75.6876 267.398 75.747V77.3707C267.398 77.4698 267.492 77.5341 267.586 77.5044Z" fill="#D0502D"/>
<path d="M267.552 77.4697L269.16 76.8905C269.215 76.8707 269.255 76.8163 269.255 76.7569V75.1331C269.255 75.0341 269.16 74.9698 269.066 74.9995L267.458 75.5787C267.403 75.5985 267.363 75.6529 267.363 75.7123V77.3361C267.363 77.4351 267.458 77.4995 267.552 77.4697Z" fill="#FAE6DC"/>
<path d="M267.586 109.652L269.195 109.073C269.25 109.053 269.289 108.999 269.289 108.94V107.316C269.289 107.217 269.195 107.152 269.101 107.182L267.492 107.761C267.438 107.781 267.398 107.836 267.398 107.895V109.519C267.398 109.618 267.492 109.682 267.586 109.652Z" fill="#D0502D"/>
<path d="M267.552 109.618L269.16 109.038C269.215 109.019 269.255 108.964 269.255 108.905V107.281C269.255 107.182 269.16 107.118 269.066 107.147L267.458 107.727C267.403 107.746 267.363 107.801 267.363 107.86V109.484C267.363 109.583 267.458 109.647 267.552 109.618Z" fill="#FAE6DC"/>
<path d="M267.586 66.5293L269.195 65.9501C269.25 65.9303 269.289 65.8759 269.289 65.8165V64.1927C269.289 64.0937 269.195 64.0293 269.101 64.059L267.492 64.6383C267.438 64.6581 267.398 64.7125 267.398 64.7719V66.3957C267.398 66.4947 267.492 66.559 267.586 66.5293Z" fill="#D0502D"/>
<path d="M267.552 66.4947L269.16 65.9154C269.215 65.8956 269.255 65.8412 269.255 65.7818V64.158C269.255 64.059 269.16 63.9947 269.066 64.0244L267.458 64.6036C267.403 64.6234 267.363 64.6778 267.363 64.7372V66.361C267.363 66.46 267.458 66.5244 267.552 66.4947Z" fill="#FAE6DC"/>
<path d="M268.096 119.098H268.146C268.4 119.098 268.606 118.892 268.606 118.637V64.3903C268.606 64.1361 268.4 63.9299 268.146 63.9299H268.096C267.842 63.9299 267.636 64.1361 267.636 64.3903V118.637C267.636 118.892 267.842 119.098 268.096 119.098Z" fill="#FCF1EB"/>
<path d="M268.71 75.2122L268.616 75.1627C268.616 75.1627 267.873 74.9993 267.626 75.5339V77.4448C267.626 77.4448 267.883 76.9201 268.616 77.0834L268.7 76.9795L268.71 75.2122Z" fill="#FAE6DC"/>
<path d="M268.71 107.361L268.616 107.311C268.616 107.311 267.873 107.148 267.626 107.682V109.593C267.626 109.593 267.883 109.069 268.616 109.232L268.7 109.128L268.71 107.361Z" fill="#FAE6DC"/>
<path d="M267.586 118.702L269.195 118.122C269.25 118.103 269.289 118.048 269.289 117.989V116.365C269.289 116.266 269.195 116.202 269.101 116.231L267.492 116.811C267.438 116.83 267.398 116.885 267.398 116.944V118.568C267.398 118.667 267.492 118.731 267.586 118.702Z" fill="#D0502D"/>
<path d="M267.552 118.667L269.16 118.088C269.215 118.068 269.255 118.014 269.255 117.954V116.33C269.255 116.231 269.16 116.167 269.066 116.197L267.458 116.776C267.403 116.796 267.363 116.85 267.363 116.91V118.533C267.363 118.632 267.458 118.697 267.552 118.667Z" fill="#FAE6DC"/>
<path d="M268.71 116.41L268.616 116.36C268.616 116.36 267.873 116.197 267.626 116.732V118.643C267.626 118.643 267.883 118.118 268.616 118.281L268.7 118.177L268.71 116.41Z" fill="#FAE6DC"/>
<path d="M268.71 64.2371L268.616 64.1876C268.616 64.1876 267.873 64.0242 267.626 64.5588V66.4697C267.626 66.4697 267.883 65.945 268.616 66.1083L268.7 66.0044L268.71 64.2371Z" fill="#FAE6DC"/>
<path d="M263.21 68.6284V74.3957L262.839 74.5788V81.8659L263.586 81.5887V84.1926L262.873 84.4104V91.445L263.512 91.2272V96.7667L262.849 97.0142V104.207L263.552 103.98V106.687L262.849 106.915V114.083L263.72 113.776V117.39L262.373 117.89V68.8165L263.21 68.6284Z" fill="#D0502D"/>
<path d="M261.631 79.3213L263.24 78.7421C263.294 78.7223 263.334 78.6678 263.334 78.6084V76.9847C263.334 76.8857 263.24 76.8213 263.146 76.851L261.537 77.4302C261.482 77.45 261.443 77.5045 261.443 77.5639V79.1876C261.443 79.2867 261.537 79.351 261.631 79.3213Z" fill="#D0502D"/>
<path d="M261.601 79.2866L263.21 78.7074C263.264 78.6876 263.304 78.6332 263.304 78.5738V76.95C263.304 76.851 263.21 76.7867 263.116 76.8164L261.507 77.3956C261.453 77.4154 261.413 77.4698 261.413 77.5292V79.153C261.413 79.252 261.507 79.3163 261.601 79.2866Z" fill="#FAE6DC"/>
<path d="M261.631 111.469L263.24 110.89C263.294 110.87 263.334 110.816 263.334 110.756V109.133C263.334 109.034 263.24 108.969 263.146 108.999L261.537 109.578C261.482 109.598 261.443 109.652 261.443 109.712V111.336C261.443 111.435 261.537 111.499 261.631 111.469Z" fill="#D0502D"/>
<path d="M261.601 111.435L263.21 110.855C263.264 110.836 263.304 110.781 263.304 110.722V109.098C263.304 108.999 263.21 108.935 263.116 108.964L261.507 109.544C261.453 109.563 261.413 109.618 261.413 109.677V111.301C261.413 111.4 261.507 111.464 261.601 111.435Z" fill="#FAE6DC"/>
<path d="M261.631 68.3462L263.24 67.767C263.294 67.7472 263.334 67.6927 263.334 67.6333V66.0096C263.334 65.9106 263.24 65.8462 263.146 65.8759L261.537 66.4551C261.482 66.4749 261.443 66.5294 261.443 66.5888V68.2125C261.443 68.3116 261.537 68.3759 261.631 68.3462Z" fill="#D0502D"/>
<path d="M261.601 68.3115L263.21 67.7323C263.264 67.7125 263.304 67.6581 263.304 67.5987V65.9749C263.304 65.8759 263.21 65.8116 263.116 65.8413L261.507 66.4205C261.453 66.4403 261.413 66.4947 261.413 66.5541V68.1779C261.413 68.2769 261.507 68.3412 261.601 68.3115Z" fill="#FAE6DC"/>
<path d="M262.146 120.915H262.195C262.449 120.915 262.656 120.708 262.656 120.454V66.2072C262.656 65.953 262.449 65.7468 262.195 65.7468H262.146C261.891 65.7468 261.685 65.953 261.685 66.2072V120.454C261.685 120.708 261.891 120.915 262.146 120.915Z" fill="#FCF1EB"/>
<path d="M262.76 77.0291L262.666 76.9796C262.666 76.9796 261.923 76.8162 261.675 77.3508V79.2617C261.675 79.2617 261.933 78.737 262.666 78.9003L262.75 78.7964L262.76 77.0291Z" fill="#FAE6DC"/>
<path d="M262.76 109.177L262.666 109.128C262.666 109.128 261.923 108.965 261.675 109.499V111.41C261.675 111.41 261.933 110.885 262.666 111.049L262.75 110.945L262.76 109.177Z" fill="#FAE6DC"/>
<path d="M261.631 120.519L263.24 119.939C263.294 119.92 263.334 119.865 263.334 119.806V118.182C263.334 118.083 263.24 118.019 263.146 118.048L261.537 118.628C261.482 118.647 261.443 118.702 261.443 118.761V120.385C261.443 120.484 261.537 120.548 261.631 120.519Z" fill="#D0502D"/>
<path d="M261.601 120.484L263.21 119.905C263.264 119.885 263.304 119.83 263.304 119.771V118.147C263.304 118.048 263.21 117.984 263.116 118.014L261.507 118.593C261.453 118.613 261.413 118.667 261.413 118.727V120.35C261.413 120.449 261.507 120.514 261.601 120.484Z" fill="#FAE6DC"/>
<path d="M262.76 118.227L262.666 118.177C262.666 118.177 261.923 118.014 261.675 118.549V120.459C261.675 120.459 261.933 119.935 262.666 120.098L262.75 119.994L262.76 118.227Z" fill="#FAE6DC"/>
<path d="M262.76 66.054L262.666 66.0045C262.666 66.0045 261.923 65.8411 261.675 66.3757V68.2866C261.675 68.2866 261.933 67.7619 262.666 67.9252L262.75 67.8213L262.76 66.054Z" fill="#FAE6DC"/>
<path d="M289.447 94.4146L289.774 94.2909C289.814 94.276 289.838 94.2414 289.838 94.2018V93.2166C289.838 93.1473 289.769 93.1028 289.71 93.1275L289.383 93.2513C289.343 93.2661 289.319 93.3008 289.319 93.3404V94.3255C289.319 94.3948 289.388 94.4394 289.447 94.4146Z" fill="#D0502D"/>
<path d="M289.418 94.4049L289.744 94.2811C289.784 94.2662 289.809 94.2316 289.809 94.192V93.2069C289.809 93.1375 289.739 93.093 289.68 93.1177L289.353 93.2415C289.314 93.2564 289.289 93.291 289.289 93.3306V94.3158C289.289 94.3851 289.358 94.4296 289.418 94.4049Z" fill="#FAE6DC"/>
<path d="M288.5 94.4845L292.652 93.117C292.828 93.0589 292.924 92.8686 292.866 92.692L292.854 92.6544C292.796 92.4778 292.605 92.3818 292.429 92.4399L288.277 93.8074C288.1 93.8656 288.004 94.0559 288.063 94.2325L288.075 94.2701C288.133 94.4467 288.323 94.5427 288.5 94.4845Z" fill="#FCF1EB"/>
<path d="M289.809 93.291C289.809 93.291 289.502 93.5633 289.809 94.0534L289.299 94.2217C289.299 94.2217 288.992 93.8059 289.299 93.4692L289.814 93.291H289.809Z" fill="#FAE6DC"/>
<path d="M283.309 96.3507L283.636 96.2269C283.675 96.2121 283.7 96.1774 283.7 96.1378V95.1527C283.7 95.0834 283.631 95.0388 283.571 95.0635L283.244 95.1873C283.205 95.2022 283.18 95.2368 283.18 95.2764V96.2616C283.18 96.3309 283.249 96.3754 283.309 96.3507Z" fill="#D0502D"/>
<path d="M283.279 96.3404L283.606 96.2167C283.645 96.2018 283.67 96.1671 283.67 96.1275V95.1424C283.67 95.0731 283.601 95.0285 283.541 95.0533L283.215 95.1771C283.175 95.1919 283.15 95.2266 283.15 95.2662V96.2513C283.15 96.3206 283.22 96.3652 283.279 96.3404Z" fill="#FAE6DC"/>
<path d="M282.353 96.4205L286.504 95.0531C286.681 94.9949 286.777 94.8046 286.719 94.628L286.706 94.5904C286.648 94.4138 286.458 94.3178 286.281 94.376L282.13 95.7435C281.953 95.8016 281.857 95.9919 281.915 96.1685L281.927 96.2061C281.986 96.3827 282.176 96.4787 282.353 96.4205Z" fill="#FCF1EB"/>
<path d="M283.67 95.2266C283.67 95.2266 283.363 95.4988 283.67 95.9889L283.16 96.1572C283.16 96.1572 282.853 95.7414 283.16 95.4048L283.675 95.2266H283.67Z" fill="#FAE6DC"/>
<path d="M266.175 101.772L266.502 101.648C266.542 101.633 266.566 101.598 266.566 101.559V100.574C266.566 100.504 266.497 100.46 266.438 100.484L266.111 100.608C266.071 100.623 266.047 100.658 266.047 100.697V101.682C266.047 101.752 266.116 101.796 266.175 101.772Z" fill="#D0502D"/>
<path d="M266.151 101.761L266.477 101.638C266.517 101.623 266.542 101.588 266.542 101.548V100.563C266.542 100.494 266.472 100.449 266.413 100.474L266.086 100.598C266.047 100.613 266.022 100.647 266.022 100.687V101.672C266.022 101.742 266.091 101.786 266.151 101.761Z" fill="#FAE6DC"/>
<path d="M265.224 101.842L269.376 100.475C269.553 100.417 269.649 100.226 269.59 100.05L269.578 100.012C269.52 99.8357 269.33 99.7397 269.153 99.7979L265.001 101.165C264.825 101.223 264.729 101.414 264.787 101.59L264.799 101.628C264.857 101.805 265.048 101.901 265.224 101.842Z" fill="#FCF1EB"/>
<path d="M266.537 100.647C266.537 100.647 266.23 100.92 266.537 101.41L266.027 101.578C266.027 101.578 265.72 101.162 266.027 100.826L266.542 100.647H266.537Z" fill="#FAE6DC"/>
<path d="M260.037 103.707L260.364 103.583C260.403 103.568 260.428 103.534 260.428 103.494V102.509C260.428 102.44 260.359 102.395 260.299 102.42L259.972 102.544C259.933 102.559 259.908 102.593 259.908 102.633V103.618C259.908 103.687 259.977 103.732 260.037 103.707Z" fill="#D0502D"/>
<path d="M260.012 103.702L260.339 103.578C260.378 103.564 260.403 103.529 260.403 103.489V102.504C260.403 102.435 260.334 102.39 260.274 102.415L259.948 102.539C259.908 102.554 259.883 102.588 259.883 102.628V103.613C259.883 103.682 259.953 103.727 260.012 103.702Z" fill="#FAE6DC"/>
<path d="M259.086 103.777L263.238 102.41C263.415 102.351 263.511 102.161 263.453 101.984L263.44 101.947C263.382 101.77 263.192 101.674 263.015 101.732L258.863 103.1C258.687 103.158 258.591 103.348 258.649 103.525L258.661 103.563C258.719 103.739 258.91 103.835 259.086 103.777Z" fill="#FCF1EB"/>
<path d="M260.398 102.583C260.398 102.583 260.091 102.856 260.398 103.346L259.888 103.514C259.888 103.514 259.581 103.098 259.888 102.762L260.403 102.583H260.398Z" fill="#FAE6DC"/>
<path d="M353.61 26.8857L354.57 28.9897L351.397 29.3214L350.551 27.3313L353.61 26.8857Z" fill="#D0502D"/>
<path d="M352.056 22.9407L351.551 29.0149C351.536 29.1832 351.387 29.307 351.214 29.2921C350.858 29.2525 350.551 29.0248 350.407 28.6931L343.764 13.1339C343.679 12.9408 343.808 12.723 344.016 12.6982L344.67 12.7675C344.823 12.7824 344.967 12.8666 345.056 12.9953L351.996 22.7427C352.036 22.8021 352.056 22.8714 352.051 22.9407H352.056Z" fill="#D0502D"/>
<path d="M358.164 17.9701L351.669 29.064C351.605 29.168 351.452 29.1581 351.402 29.0492L344.709 13.2919C344.6 13.0395 344.843 12.7771 345.105 12.8613L357.773 16.9503C358.199 17.0889 358.387 17.584 358.164 17.9701Z" fill="#D0502D"/>
<path d="M353.64 28.6683L353.437 30.2772C353.412 30.4851 353.234 30.6386 353.026 30.6386C352.833 30.6386 352.665 30.7722 352.62 30.9603C352.476 31.6237 352.268 33.1732 353.095 34.3761L353.224 33.8316C353.278 33.6088 353.476 33.4554 353.704 33.4554C353.986 33.4554 354.209 33.688 354.194 33.9702C354.174 34.3811 354.12 34.9801 353.966 35.5395C353.803 36.1286 353.249 36.5197 352.64 36.5197C352.12 36.5197 351.645 36.2326 351.407 35.7722C350.892 34.7672 350.224 32.7375 350.858 29.6386C350.932 29.2673 351.199 28.9604 351.561 28.8415L352.214 28.6237V28.5693C352.214 28.2029 352.481 27.8762 352.848 27.8366C352.853 27.8366 352.863 27.8366 352.867 27.8366C353.328 27.797 353.699 28.2128 353.64 28.6683Z" fill="#041226"/>
<path d="M354.249 24.3591C357.174 23.7905 358.958 20.3032 358.232 16.57C357.506 12.8368 354.546 10.2714 351.621 10.84C348.696 11.4087 346.912 14.896 347.638 18.6292C348.364 22.3624 351.324 24.9278 354.249 24.3591Z" fill="#1D497C"/>
<path d="M354.375 24.3601C357.301 23.7915 359.084 20.3041 358.358 16.5709C357.633 12.8378 354.673 10.2724 351.748 10.841C348.822 11.4096 347.039 14.897 347.765 18.6302C348.49 22.3633 351.45 24.9287 354.375 24.3601Z" fill="#041226"/>
<path d="M354.239 24.9305L354.313 24.4108C354.026 24.3711 347.358 23.292 348.63 14.1534V14.1188V-20.8115H348.105V14.099C346.769 23.7474 354.16 24.9157 354.234 24.9305H354.239Z" fill="#1D497C"/>
<path d="M358.526 -20.4351H358.001V19.8021H358.526V-20.4351Z" fill="#1D497C"/>
<path d="M355.018 24.2883C357.943 23.7197 359.726 20.2324 359.001 16.4992C358.275 12.766 355.315 10.2006 352.39 10.7692C349.464 11.3379 347.681 14.8252 348.407 18.5584C349.133 22.2916 352.092 24.857 355.018 24.2883Z" fill="#1D497C"/>
<path d="M355.185 24.2468C358.111 23.6782 359.894 20.1909 359.168 16.4577C358.442 12.7245 355.483 10.1591 352.557 10.7277C349.632 11.2964 347.849 14.7837 348.574 18.5169C349.3 22.2501 352.26 24.8154 355.185 24.2468Z" fill="#041226"/>
<path d="M355.546 22.9407L355.041 29.0149C355.026 29.1832 354.877 29.307 354.704 29.2921C354.348 29.2525 354.041 29.0248 353.897 28.6931L347.254 13.1339C347.17 12.9408 347.298 12.723 347.506 12.6982L348.16 12.7675C348.313 12.7824 348.457 12.8666 348.546 12.9953L355.486 22.7427C355.526 22.8021 355.546 22.8714 355.541 22.9407H355.546Z" fill="#D0502D"/>
<path d="M361.659 17.9701L355.164 29.064C355.1 29.168 354.947 29.1581 354.897 29.0492L348.204 13.2919C348.095 13.0395 348.338 12.7771 348.6 12.8613L361.268 16.9503C361.694 17.0889 361.882 17.584 361.659 17.9701Z" fill="#E5873C"/>
<path d="M351.521 22.1387L348.125 22.6832L348.521 23.4703L351.966 22.9258L351.521 22.1387Z" fill="#D0502D"/>
<path d="M352.996 24.9453L349.605 25.4849L349.996 26.272L353.442 25.7324L352.996 24.9453Z" fill="#D0502D"/>
<path d="M353.169 26.1138L354.13 28.2177L350.957 28.5494L350.105 26.5544L353.169 26.1138Z" fill="#D0502D"/>
<path d="M247.864 36.6037C247.864 36.6037 226.448 27.386 211.636 31.9949C196.825 36.6037 189.914 28.7028 168.191 26.0692C146.469 23.4356 117.177 38.9057 103.682 32.3216C90.1871 25.7375 42.4649 34.9552 42.4649 34.9552L247.864 36.5988V36.6037Z" fill="white"/>
<path d="M480.718 199.835H421.198C421.198 199.835 426.377 195.954 435.758 197.894C445.139 199.835 446.431 189.805 458.079 195.305C469.723 200.805 477.49 194.657 480.722 199.835H480.718Z" fill="white"/>
<path d="M128.964 144.583L95.7514 155.222C95.7514 155.222 83.811 158.479 80.9892 166.078C78.1675 173.677 66.0092 212.533 66.0092 212.533C66.0092 212.533 59.6776 219.275 62.5785 228.161C64.2963 233.424 68.9844 237.344 74.5091 237.666C77.9447 237.864 81.7417 236.731 84.0288 231.854L94.2317 209.493L95.3901 240.156H169.34L168.473 206.884L190.835 225.117C190.835 225.117 194.934 234.666 204.725 234.018C216.022 233.265 218.404 219.691 216.23 214.478C214.057 209.271 209.285 207.964 209.285 207.964L178.894 170.192C178.894 170.192 172.597 162.375 164.567 161.073C156.538 159.771 136.345 150.217 136.345 150.217L128.964 144.573V144.583Z" fill="#E86624"/>
<path d="M93.801 204.439L99.4445 174.103L78.8209 220.557L93.801 204.439Z" fill="#C63317"/>
<path d="M123.702 139.806L119.197 141.87L117.568 151.152C117.568 151.152 130.177 163.251 144.226 165.86C144.226 165.86 151.652 160.325 152.518 157.177V146.89L123.702 139.811V139.806Z" fill="#C63317"/>
<path d="M69.6527 215.948L87.2862 202.538L96.4049 212.523L81.5189 231.552C79.2912 234.399 75.7665 236.087 72.1725 235.641C70.1873 235.399 68.1181 234.542 66.4448 232.493C64.7716 230.443 64.2716 228.097 64.326 225.919C64.425 221.973 66.5092 218.334 69.6477 215.948H69.6527Z" fill="#FABE9E"/>
<path d="M84.2466 209.271L82.5635 198.414C82.3852 197.261 82.0536 196.142 81.5783 195.078L81.1971 194.231C80.6724 193.053 81.5189 191.726 82.806 191.701C83.6724 191.682 84.6129 191.929 85.3555 192.805C86.1525 193.741 86.6822 194.642 87.0288 195.375C87.5782 196.533 88.4446 197.498 89.5584 198.127L89.905 198.325C90.7861 198.82 91.8802 198.706 92.6376 198.038L96.791 194.36C97.4098 193.81 97.989 193.221 98.5187 192.588L100.831 189.845C101.286 189.3 102.073 189.182 102.672 189.568C103.345 190.003 103.524 190.909 103.063 191.563L99.8405 196.142L96.7465 200.538L102.281 196.305L108.771 189.206C109.494 188.414 110.727 188.39 111.484 189.147C112.172 189.835 112.222 190.934 111.593 191.682L110.583 192.89L111.88 193.919C112.717 194.583 112.92 195.776 112.35 196.682L111.969 197.29L111.989 197.315C113.132 198.939 113.068 201.122 111.826 202.672L105.637 210.379C104.563 211.721 103.137 212.736 101.519 213.32L93.5287 216.201L84.2367 209.28L84.2466 209.271Z" fill="#FABE9E"/>
<path d="M162.003 149.816C161.592 148.702 162.32 147.479 163.498 147.33C164.587 147.192 165.988 147.523 167.409 149.251L170.048 153.578C170.424 154.192 171.087 154.568 171.805 154.568C172.562 154.568 173.26 154.152 173.617 153.484C174.201 152.395 174.211 151.093 173.637 149.999L167.716 138.722L174.548 137.034C175.805 136.722 177.137 136.915 178.255 137.568L179.117 138.068L180.028 137.667C181.602 136.979 183.434 137.212 184.78 138.281L185.285 138.677C186.884 139.944 187.874 141.83 188.003 143.87L189.32 164.548L176.731 170.192L166.612 160.672C165.983 160.083 165.503 159.35 165.206 158.543L162.008 149.816H162.003Z" fill="#FABE9E"/>
<path d="M170.716 152.999L175.152 145.276C175.805 144.137 175.736 142.727 174.973 141.657L161.84 123.108L157.033 137.469L166.909 153.058C167.79 154.484 169.874 154.454 170.711 152.999H170.716Z" fill="black"/>
<path d="M177.949 159.127L173.864 167.553L191.344 222.617C193.384 229.038 200.409 232.409 206.691 229.988C212.938 227.577 215.889 220.424 213.156 214.31L188.488 159.132H177.954L177.949 159.127Z" fill="#FABE9E"/>
<path d="M177.82 137.954C176.81 137.301 175.508 137.306 174.503 137.959L169.553 140.583C168.874 140.944 168.449 141.643 168.434 142.41C168.434 142.425 168.434 142.444 168.434 142.459C168.419 144.034 170.087 145.063 171.488 144.345L176.711 141.657L180.166 139.469L177.815 137.954H177.82Z" fill="#FABE9E"/>
<path d="M176.656 136.068C176.082 135.014 174.939 134.39 173.741 134.484L168.142 134.41C167.374 134.4 166.666 134.811 166.285 135.474C166.275 135.489 166.27 135.504 166.261 135.519C165.493 136.895 166.464 138.598 168.038 138.638L173.909 138.786L177.993 138.524L176.656 136.068Z" fill="#FABE9E"/>
<path d="M177.048 145.667C177.048 145.667 178.567 146.86 179.651 145.667L184.646 141.023L180.166 146.197C180.166 146.197 178.023 148.053 177.048 145.667Z" fill="#E6876A"/>
<path d="M110.028 194.949L104.494 201.186C104.494 201.186 108.053 199.053 110.028 194.949Z" fill="#E6876A"/>
<path d="M111.004 198.904L106.118 204.439C106.118 204.439 109.4 202.805 111.004 198.904Z" fill="#E6876A"/>
<path d="M124.677 117.88C123.311 130.766 121.751 145.667 121.751 145.667C121.751 145.667 129.568 154.132 143.078 158.202C143.078 158.202 149.751 154.296 151.38 151.365L157.038 104.014L145.013 102.188C134.999 100.668 125.741 107.806 124.677 117.88Z" fill="#FABE9E"/>
<path d="M145.013 102.187C137.201 100.999 129.865 105.098 126.504 111.737L125.924 138.043C125.924 141.895 127.068 145.657 129.211 148.86L132.409 153.637C135.404 155.325 138.969 156.964 143.073 158.201C143.073 158.201 149.746 154.296 151.375 151.365L157.033 104.014L145.008 102.187H145.013Z" fill="#E6876A"/>
<path d="M164.404 108.058C162.285 100.732 156.266 99.103 156.266 99.103L132.33 103.336L129.672 118.86C129.474 118.84 129.281 118.801 129.078 118.801C126.112 118.801 123.707 121.207 123.707 124.172C123.707 126.722 125.489 128.845 127.87 129.395L127.548 131.266C126.969 134.647 127.914 138.108 130.127 140.721L135.513 147.088C137.137 149.003 139.39 150.286 141.865 150.697L143.682 150.998C146.894 151.533 150.177 150.563 152.582 148.365L155.172 145.999C157.191 144.152 158.642 141.786 159.37 139.152C161.572 131.147 166.013 113.638 164.399 108.053L164.404 108.058Z" fill="#FABE9E"/>
<path d="M123.702 108.222V123.108C123.702 123.108 123.746 122.771 123.919 122.296C125.088 119.078 129.89 119.974 129.89 123.395V125.593C129.89 126.667 129.479 127.702 128.736 128.479C128.157 129.088 127.771 129.856 127.642 130.682C127.251 133.103 126.593 138.341 127.612 141.019C128.969 144.573 131.518 148.974 135.751 151.142C139.984 153.311 144.87 154.573 148.612 153.533C152.355 152.494 155.84 151.142 158.058 146.875C159.305 144.474 160.478 135.024 160.478 135.024L158.548 137.454C158.548 137.454 156.756 134.093 155.29 132.628C153.825 131.162 150.241 131.054 150.241 131.054C150.241 131.054 145.682 129.801 142.914 131.054C141.825 131.544 140.687 132.167 139.706 132.742C138.147 133.653 136.152 133.256 135.038 131.831L133.805 130.261C133.058 129.306 132.637 128.138 132.607 126.93L132.429 120.128C132.37 117.767 133.494 115.534 135.429 114.182L137.791 112.529C139.38 111.415 140.033 109.385 139.395 107.559C139.395 107.559 142.756 102.836 147.315 104.791C151.875 106.747 164.409 108.049 164.409 108.049C164.409 108.049 164.736 97.7915 155.127 94.8609C149.845 93.247 143.424 92.6728 138.721 92.4797C133.216 92.252 127.929 95.1727 125.533 100.133C124.469 102.346 123.707 105.034 123.707 108.212L123.702 108.222Z" fill="#0B151F"/>
<path d="M151.384 126.127C151.29 126.127 151.201 126.147 151.112 126.157C151.825 126.796 152.281 127.717 152.281 128.746C152.281 129.85 151.761 130.82 150.964 131.459C151.102 131.479 151.241 131.504 151.384 131.504C152.87 131.504 154.073 130.301 154.073 128.816C154.073 127.33 152.87 126.127 151.384 126.127Z" fill="#E6876A"/>
<path d="M148.88 138.177C147.696 137.4 146.201 136.42 146.191 136.42L145.365 134.954C145.484 134.89 148.236 133.355 151.647 138.118C150.825 138.707 149.721 138.732 148.875 138.172L148.88 138.177Z" fill="#FFF3EC"/>
<path d="M127.751 124.217C127.895 124.038 127.989 123.826 127.989 123.578C127.989 123.009 127.528 122.548 126.959 122.548C126.39 122.548 125.929 123.009 125.929 123.578C125.929 123.949 126.137 124.266 126.434 124.444C126.132 124.692 125.929 125.053 125.929 125.479C125.929 126.227 126.538 126.835 127.286 126.835C128.033 126.835 128.642 126.227 128.642 125.479C128.642 124.895 128.271 124.41 127.751 124.217Z" fill="#E6876A"/>
<path d="M147.625 123.403C147.756 122.543 147.525 121.795 147.108 121.732C146.692 121.668 146.249 122.314 146.118 123.173C145.987 124.033 146.218 124.781 146.634 124.844C147.051 124.908 147.494 124.262 147.625 123.403Z" fill="#0B151F"/>
<path d="M158.15 125.246C158.281 124.386 158.049 123.638 157.633 123.574C157.217 123.511 156.773 124.156 156.642 125.016C156.512 125.875 156.743 126.624 157.159 126.687C157.575 126.75 158.019 126.105 158.15 125.246Z" fill="#0B151F"/>
<path d="M149.479 120.093L145.746 119.42C145.241 119.331 144.726 119.38 144.251 119.573L142.969 120.093L144.221 119.034C144.776 118.563 145.493 118.341 146.216 118.405L148.558 118.623L149.479 120.088V120.093Z" fill="#0B151F"/>
<path d="M155.756 120.9L159.543 121.153C160.053 121.187 160.543 121.365 160.954 121.667L162.073 122.484L161.117 121.153C160.691 120.564 160.053 120.167 159.335 120.059L157.008 119.702L155.756 120.9Z" fill="#0B151F"/>
<path d="M123.702 112.667L145.365 116.9C145.365 116.9 159.221 120.633 173.919 118.346C175.087 118.162 175.26 116.563 174.152 116.162L166.32 113.321C166.32 113.321 166.305 97.3656 158.276 91.5043C153.429 87.9697 144.875 87.9895 138.845 88.5588C133.4 89.0736 128.538 92.3062 126.122 97.2121C124.261 100.989 122.875 106.148 123.707 112.667H123.702Z" fill="#E86624"/>
<path d="M145.365 114.781C145.365 114.781 158.3 116.573 166.32 113.316C166.32 113.316 163.934 117.549 145.365 114.781Z" fill="#C63317"/>
<path d="M147.746 94.2666C147.746 94.2666 143.746 103.712 144.226 111.36C144.226 111.36 142.81 101.915 147.746 94.2666Z" fill="#C63317"/>
<path d="M142.969 164.771L145.152 202.746C145.295 205.211 145.3 207.686 145.167 210.152L144.167 229.023L146.053 212.86C146.602 208.167 146.652 203.424 146.201 198.721L142.969 164.771Z" fill="#C63317"/>
<path d="M168.473 206.884L166.32 183.439L182.478 218.3L168.473 206.884Z" fill="#C63317"/>
</g>
</g>
<defs>
<linearGradient id="paint0_linear_5593_22322" x1="310.511" y1="-97.1723" x2="206.518" y2="194.681" gradientUnits="userSpaceOnUse">
<stop stop-color="white"/>
<stop offset="0.44" stop-color="#CAF0FF"/>
<stop offset="1" stop-color="#A7CDF2"/>
</linearGradient>
<linearGradient id="paint1_linear_5593_22322" x1="220.844" y1="190.558" x2="311.858" y2="190.558" gradientUnits="userSpaceOnUse">
<stop stop-color="#102F58"/>
<stop offset="1" stop-color="#081D46"/>
</linearGradient>
<linearGradient id="paint2_linear_5593_22322" x1="305.769" y1="210.246" x2="308.591" y2="210.246" gradientUnits="userSpaceOnUse">
<stop stop-color="#102F58"/>
<stop offset="1" stop-color="#081D46"/>
</linearGradient>
<linearGradient id="paint3_linear_5593_22322" x1="300.531" y1="207.825" x2="303.353" y2="207.825" gradientUnits="userSpaceOnUse">
<stop stop-color="#102F58"/>
<stop offset="1" stop-color="#081D46"/>
</linearGradient>
<linearGradient id="paint4_linear_5593_22322" x1="295.294" y1="205.409" x2="298.116" y2="205.409" gradientUnits="userSpaceOnUse">
<stop stop-color="#102F58"/>
<stop offset="1" stop-color="#081D46"/>
</linearGradient>
<linearGradient id="paint5_linear_5593_22322" x1="290.056" y1="202.79" x2="292.878" y2="202.79" gradientUnits="userSpaceOnUse">
<stop stop-color="#102F58"/>
<stop offset="1" stop-color="#081D46"/>
</linearGradient>
<linearGradient id="paint6_linear_5593_22322" x1="284.819" y1="200.305" x2="287.64" y2="200.305" gradientUnits="userSpaceOnUse">
<stop stop-color="#102F58"/>
<stop offset="1" stop-color="#081D46"/>
</linearGradient>
<linearGradient id="paint7_linear_5593_22322" x1="279.581" y1="197.89" x2="282.403" y2="197.89" gradientUnits="userSpaceOnUse">
<stop stop-color="#102F58"/>
<stop offset="1" stop-color="#081D46"/>
</linearGradient>
<linearGradient id="paint8_linear_5593_22322" x1="274.344" y1="195.27" x2="277.165" y2="195.27" gradientUnits="userSpaceOnUse">
<stop stop-color="#102F58"/>
<stop offset="1" stop-color="#081D46"/>
</linearGradient>
<linearGradient id="paint9_linear_5593_22322" x1="269.106" y1="192.85" x2="271.928" y2="192.85" gradientUnits="userSpaceOnUse">
<stop stop-color="#102F58"/>
<stop offset="1" stop-color="#081D46"/>
</linearGradient>
<linearGradient id="paint10_linear_5593_22322" x1="263.868" y1="190.3" x2="266.685" y2="190.3" gradientUnits="userSpaceOnUse">
<stop stop-color="#102F58"/>
<stop offset="1" stop-color="#081D46"/>
</linearGradient>
<linearGradient id="paint11_linear_5593_22322" x1="258.631" y1="187.815" x2="261.448" y2="187.815" gradientUnits="userSpaceOnUse">
<stop stop-color="#102F58"/>
<stop offset="1" stop-color="#081D46"/>
</linearGradient>
<linearGradient id="paint12_linear_5593_22322" x1="253.393" y1="185.266" x2="256.21" y2="185.266" gradientUnits="userSpaceOnUse">
<stop stop-color="#102F58"/>
<stop offset="1" stop-color="#081D46"/>
</linearGradient>
<linearGradient id="paint13_linear_5593_22322" x1="248.156" y1="182.781" x2="250.972" y2="182.781" gradientUnits="userSpaceOnUse">
<stop stop-color="#102F58"/>
<stop offset="1" stop-color="#081D46"/>
</linearGradient>
<linearGradient id="paint14_linear_5593_22322" x1="242.918" y1="180.226" x2="245.735" y2="180.226" gradientUnits="userSpaceOnUse">
<stop stop-color="#102F58"/>
<stop offset="1" stop-color="#081D46"/>
</linearGradient>
<linearGradient id="paint15_linear_5593_22322" x1="237.676" y1="177.81" x2="240.497" y2="177.81" gradientUnits="userSpaceOnUse">
<stop stop-color="#102F58"/>
<stop offset="1" stop-color="#081D46"/>
</linearGradient>
<linearGradient id="paint16_linear_5593_22322" x1="232.438" y1="175.256" x2="235.26" y2="175.256" gradientUnits="userSpaceOnUse">
<stop stop-color="#102F58"/>
<stop offset="1" stop-color="#081D46"/>
</linearGradient>
<linearGradient id="paint17_linear_5593_22322" x1="227.2" y1="172.776" x2="230.022" y2="172.776" gradientUnits="userSpaceOnUse">
<stop stop-color="#102F58"/>
<stop offset="1" stop-color="#081D46"/>
</linearGradient>
<linearGradient id="paint18_linear_5593_22322" x1="221.963" y1="170.291" x2="224.785" y2="170.291" gradientUnits="userSpaceOnUse">
<stop stop-color="#102F58"/>
<stop offset="1" stop-color="#081D46"/>
</linearGradient>
<linearGradient id="paint19_linear_5593_22322" x1="220.844" y1="249.319" x2="-23.7671" y2="249.319" gradientUnits="userSpaceOnUse">
<stop stop-color="#102F58"/>
<stop offset="1" stop-color="#081D46"/>
</linearGradient>
<linearGradient id="paint20_linear_5593_22322" x1="279.581" y1="256.651" x2="282.403" y2="256.651" gradientUnits="userSpaceOnUse">
<stop stop-color="#102F58"/>
<stop offset="1" stop-color="#081D46"/>
</linearGradient>
<linearGradient id="paint21_linear_5593_22322" x1="274.344" y1="254.032" x2="277.165" y2="254.032" gradientUnits="userSpaceOnUse">
<stop stop-color="#102F58"/>
<stop offset="1" stop-color="#081D46"/>
</linearGradient>
<linearGradient id="paint22_linear_5593_22322" x1="269.106" y1="251.617" x2="271.928" y2="251.617" gradientUnits="userSpaceOnUse">
<stop stop-color="#102F58"/>
<stop offset="1" stop-color="#081D46"/>
</linearGradient>
<linearGradient id="paint23_linear_5593_22322" x1="263.868" y1="249.067" x2="266.685" y2="249.067" gradientUnits="userSpaceOnUse">
<stop stop-color="#102F58"/>
<stop offset="1" stop-color="#081D46"/>
</linearGradient>
<linearGradient id="paint24_linear_5593_22322" x1="258.631" y1="246.582" x2="261.448" y2="246.582" gradientUnits="userSpaceOnUse">
<stop stop-color="#102F58"/>
<stop offset="1" stop-color="#081D46"/>
</linearGradient>
<linearGradient id="paint25_linear_5593_22322" x1="253.393" y1="244.027" x2="256.21" y2="244.027" gradientUnits="userSpaceOnUse">
<stop stop-color="#102F58"/>
<stop offset="1" stop-color="#081D46"/>
</linearGradient>
<linearGradient id="paint26_linear_5593_22322" x1="248.156" y1="241.542" x2="250.973" y2="241.542" gradientUnits="userSpaceOnUse">
<stop stop-color="#102F58"/>
<stop offset="1" stop-color="#081D46"/>
</linearGradient>
<linearGradient id="paint27_linear_5593_22322" x1="242.918" y1="238.993" x2="245.735" y2="238.993" gradientUnits="userSpaceOnUse">
<stop stop-color="#102F58"/>
<stop offset="1" stop-color="#081D46"/>
</linearGradient>
<linearGradient id="paint28_linear_5593_22322" x1="237.676" y1="236.572" x2="240.497" y2="236.572" gradientUnits="userSpaceOnUse">
<stop stop-color="#102F58"/>
<stop offset="1" stop-color="#081D46"/>
</linearGradient>
<linearGradient id="paint29_linear_5593_22322" x1="232.438" y1="234.022" x2="235.26" y2="234.022" gradientUnits="userSpaceOnUse">
<stop stop-color="#102F58"/>
<stop offset="1" stop-color="#081D46"/>
</linearGradient>
<linearGradient id="paint30_linear_5593_22322" x1="227.2" y1="231.538" x2="230.022" y2="231.538" gradientUnits="userSpaceOnUse">
<stop stop-color="#102F58"/>
<stop offset="1" stop-color="#081D46"/>
</linearGradient>
<linearGradient id="paint31_linear_5593_22322" x1="221.963" y1="229.052" x2="224.785" y2="229.052" gradientUnits="userSpaceOnUse">
<stop stop-color="#102F58"/>
<stop offset="1" stop-color="#081D46"/>
</linearGradient>
<linearGradient id="paint32_linear_5593_22322" x1="63.9448" y1="119.97" x2="202.186" y2="119.97" gradientUnits="userSpaceOnUse">
<stop stop-color="#102F58"/>
<stop offset="1" stop-color="#081D46"/>
</linearGradient>
<linearGradient id="paint33_linear_5593_22322" x1="192.938" y1="149.875" x2="197.226" y2="149.875" gradientUnits="userSpaceOnUse">
<stop stop-color="#102F58"/>
<stop offset="1" stop-color="#081D46"/>
</linearGradient>
<linearGradient id="paint34_linear_5593_22322" x1="184.983" y1="146.202" x2="189.27" y2="146.202" gradientUnits="userSpaceOnUse">
<stop stop-color="#102F58"/>
<stop offset="1" stop-color="#081D46"/>
</linearGradient>
<linearGradient id="paint35_linear_5593_22322" x1="177.028" y1="142.529" x2="181.31" y2="142.529" gradientUnits="userSpaceOnUse">
<stop stop-color="#102F58"/>
<stop offset="1" stop-color="#081D46"/>
</linearGradient>
<linearGradient id="paint36_linear_5593_22322" x1="169.072" y1="138.553" x2="173.355" y2="138.553" gradientUnits="userSpaceOnUse">
<stop stop-color="#102F58"/>
<stop offset="1" stop-color="#081D46"/>
</linearGradient>
<linearGradient id="paint37_linear_5593_22322" x1="161.117" y1="134.776" x2="165.399" y2="134.776" gradientUnits="userSpaceOnUse">
<stop stop-color="#102F58"/>
<stop offset="1" stop-color="#081D46"/>
</linearGradient>
<linearGradient id="paint38_linear_5593_22322" x1="153.162" y1="131.108" x2="157.444" y2="131.108" gradientUnits="userSpaceOnUse">
<stop stop-color="#102F58"/>
<stop offset="1" stop-color="#081D46"/>
</linearGradient>
<linearGradient id="paint39_linear_5593_22322" x1="145.206" y1="127.128" x2="149.488" y2="127.128" gradientUnits="userSpaceOnUse">
<stop stop-color="#102F58"/>
<stop offset="1" stop-color="#081D46"/>
</linearGradient>
<linearGradient id="paint40_linear_5593_22322" x1="137.246" y1="123.454" x2="141.533" y2="123.454" gradientUnits="userSpaceOnUse">
<stop stop-color="#102F58"/>
<stop offset="1" stop-color="#081D46"/>
</linearGradient>
<linearGradient id="paint41_linear_5593_22322" x1="129.291" y1="119.578" x2="133.578" y2="119.578" gradientUnits="userSpaceOnUse">
<stop stop-color="#102F58"/>
<stop offset="1" stop-color="#081D46"/>
</linearGradient>
<linearGradient id="paint42_linear_5593_22322" x1="121.335" y1="115.806" x2="125.622" y2="115.806" gradientUnits="userSpaceOnUse">
<stop stop-color="#102F58"/>
<stop offset="1" stop-color="#081D46"/>
</linearGradient>
<linearGradient id="paint43_linear_5593_22322" x1="113.38" y1="111.93" x2="117.662" y2="111.93" gradientUnits="userSpaceOnUse">
<stop stop-color="#102F58"/>
<stop offset="1" stop-color="#081D46"/>
</linearGradient>
<linearGradient id="paint44_linear_5593_22322" x1="105.425" y1="108.158" x2="109.707" y2="108.158" gradientUnits="userSpaceOnUse">
<stop stop-color="#102F58"/>
<stop offset="1" stop-color="#081D46"/>
</linearGradient>
<linearGradient id="paint45_linear_5593_22322" x1="97.4692" y1="104.282" x2="101.751" y2="104.282" gradientUnits="userSpaceOnUse">
<stop stop-color="#102F58"/>
<stop offset="1" stop-color="#081D46"/>
</linearGradient>
<linearGradient id="paint46_linear_5593_22322" x1="89.5139" y1="100.608" x2="93.796" y2="100.608" gradientUnits="userSpaceOnUse">
<stop stop-color="#102F58"/>
<stop offset="1" stop-color="#081D46"/>
</linearGradient>
<linearGradient id="paint47_linear_5593_22322" x1="81.5536" y1="96.7318" x2="85.8406" y2="96.7318" gradientUnits="userSpaceOnUse">
<stop stop-color="#102F58"/>
<stop offset="1" stop-color="#081D46"/>
</linearGradient>
<linearGradient id="paint48_linear_5593_22322" x1="73.5982" y1="92.9598" x2="77.8853" y2="92.9598" gradientUnits="userSpaceOnUse">
<stop stop-color="#102F58"/>
<stop offset="1" stop-color="#081D46"/>
</linearGradient>
<linearGradient id="paint49_linear_5593_22322" x1="65.6429" y1="89.1825" x2="69.9299" y2="89.1825" gradientUnits="userSpaceOnUse">
<stop stop-color="#102F58"/>
<stop offset="1" stop-color="#081D46"/>
</linearGradient>
<linearGradient id="paint50_linear_5593_22322" x1="63.9448" y1="209.013" x2="202.186" y2="209.013" gradientUnits="userSpaceOnUse">
<stop stop-color="#102F58"/>
<stop offset="1" stop-color="#081D46"/>
</linearGradient>
<linearGradient id="paint51_linear_5593_22322" x1="192.938" y1="238.913" x2="197.226" y2="238.913" gradientUnits="userSpaceOnUse">
<stop stop-color="#102F58"/>
<stop offset="1" stop-color="#081D46"/>
</linearGradient>
<linearGradient id="paint52_linear_5593_22322" x1="184.983" y1="235.245" x2="189.27" y2="235.245" gradientUnits="userSpaceOnUse">
<stop stop-color="#102F58"/>
<stop offset="1" stop-color="#081D46"/>
</linearGradient>
<linearGradient id="paint53_linear_5593_22322" x1="177.028" y1="231.572" x2="181.31" y2="231.572" gradientUnits="userSpaceOnUse">
<stop stop-color="#102F58"/>
<stop offset="1" stop-color="#081D46"/>
</linearGradient>
<linearGradient id="paint54_linear_5593_22322" x1="169.072" y1="227.592" x2="173.355" y2="227.592" gradientUnits="userSpaceOnUse">
<stop stop-color="#102F58"/>
<stop offset="1" stop-color="#081D46"/>
</linearGradient>
<linearGradient id="paint55_linear_5593_22322" x1="161.117" y1="223.82" x2="165.399" y2="223.82" gradientUnits="userSpaceOnUse">
<stop stop-color="#102F58"/>
<stop offset="1" stop-color="#081D46"/>
</linearGradient>
<linearGradient id="paint56_linear_5593_22322" x1="153.162" y1="220.146" x2="157.444" y2="220.146" gradientUnits="userSpaceOnUse">
<stop stop-color="#102F58"/>
<stop offset="1" stop-color="#081D46"/>
</linearGradient>
<linearGradient id="paint57_linear_5593_22322" x1="145.206" y1="216.171" x2="149.488" y2="216.171" gradientUnits="userSpaceOnUse">
<stop stop-color="#102F58"/>
<stop offset="1" stop-color="#081D46"/>
</linearGradient>
<linearGradient id="paint58_linear_5593_22322" x1="137.246" y1="212.498" x2="141.533" y2="212.498" gradientUnits="userSpaceOnUse">
<stop stop-color="#102F58"/>
<stop offset="1" stop-color="#081D46"/>
</linearGradient>
<linearGradient id="paint59_linear_5593_22322" x1="129.291" y1="208.622" x2="133.578" y2="208.622" gradientUnits="userSpaceOnUse">
<stop stop-color="#102F58"/>
<stop offset="1" stop-color="#081D46"/>
</linearGradient>
<linearGradient id="paint60_linear_5593_22322" x1="121.335" y1="204.845" x2="125.622" y2="204.845" gradientUnits="userSpaceOnUse">
<stop stop-color="#102F58"/>
<stop offset="1" stop-color="#081D46"/>
</linearGradient>
<linearGradient id="paint61_linear_5593_22322" x1="113.38" y1="200.969" x2="117.662" y2="200.969" gradientUnits="userSpaceOnUse">
<stop stop-color="#102F58"/>
<stop offset="1" stop-color="#081D46"/>
</linearGradient>
<linearGradient id="paint62_linear_5593_22322" x1="105.425" y1="197.196" x2="109.707" y2="197.196" gradientUnits="userSpaceOnUse">
<stop stop-color="#102F58"/>
<stop offset="1" stop-color="#081D46"/>
</linearGradient>
<linearGradient id="paint63_linear_5593_22322" x1="97.4692" y1="193.32" x2="101.751" y2="193.32" gradientUnits="userSpaceOnUse">
<stop stop-color="#102F58"/>
<stop offset="1" stop-color="#081D46"/>
</linearGradient>
<linearGradient id="paint64_linear_5593_22322" x1="89.5139" y1="189.647" x2="93.796" y2="189.647" gradientUnits="userSpaceOnUse">
<stop stop-color="#102F58"/>
<stop offset="1" stop-color="#081D46"/>
</linearGradient>
<linearGradient id="paint65_linear_5593_22322" x1="81.5536" y1="185.77" x2="85.8406" y2="185.77" gradientUnits="userSpaceOnUse">
<stop stop-color="#102F58"/>
<stop offset="1" stop-color="#081D46"/>
</linearGradient>
<linearGradient id="paint66_linear_5593_22322" x1="73.5982" y1="181.998" x2="77.8853" y2="181.998" gradientUnits="userSpaceOnUse">
<stop stop-color="#102F58"/>
<stop offset="1" stop-color="#081D46"/>
</linearGradient>
<linearGradient id="paint67_linear_5593_22322" x1="65.6429" y1="178.226" x2="69.9299" y2="178.226" gradientUnits="userSpaceOnUse">
<stop stop-color="#102F58"/>
<stop offset="1" stop-color="#081D46"/>
</linearGradient>
<linearGradient id="paint68_linear_5593_22322" x1="63.9448" y1="297.547" x2="202.186" y2="297.547" gradientUnits="userSpaceOnUse">
<stop stop-color="#102F58"/>
<stop offset="1" stop-color="#081D46"/>
</linearGradient>
<linearGradient id="paint69_linear_5593_22322" x1="73.5982" y1="270.537" x2="77.8853" y2="270.537" gradientUnits="userSpaceOnUse">
<stop stop-color="#102F58"/>
<stop offset="1" stop-color="#081D46"/>
</linearGradient>
<linearGradient id="paint70_linear_5593_22322" x1="65.6429" y1="266.76" x2="69.9299" y2="266.76" gradientUnits="userSpaceOnUse">
<stop stop-color="#102F58"/>
<stop offset="1" stop-color="#081D46"/>
</linearGradient>
<clipPath id="clip0_5593_22322">
<rect width="450" height="232.428" fill="white"/>
</clipPath>
</defs>
</svg>
