<svg width="450" height="232" viewBox="0 0 450 232" fill="none" xmlns="http://www.w3.org/2000/svg">
<path d="M401.733 232H138.117C127.949 232 118.523 228.862 110.741 223.501C101.821 217.354 91.1624 214.211 80.3209 214.211H78.3407C35.0739 214.211 0 179.197 0 136.01C0 104.613 18.5394 77.5392 45.2916 65.097C51.7816 62.0778 55.7123 55.4515 55.6925 48.3064V48.1779C55.6925 21.5689 77.3011 0 103.959 0H367.575C394.233 0 415.842 21.5689 415.842 48.1779C415.842 74.7869 394.233 96.3558 367.575 96.3558C359.546 96.3558 353.828 104.173 356.313 111.792C357.734 116.151 358.783 120.672 359.417 125.332C360.224 131.222 365.199 135.639 371.154 135.639H401.728C428.386 135.639 449.995 157.208 449.995 183.817C449.995 210.426 428.386 231.995 401.728 231.995" fill="url(#paint0_linear_5593_22192)"/>
<mask id="mask0_5593_22192" style="mask-type:luminance" maskUnits="userSpaceOnUse" x="0" y="0" width="450" height="232">
<path d="M401.733 232H138.117C127.949 232 118.523 228.862 110.741 223.501C101.821 217.354 91.1624 214.211 80.3209 214.211H78.3407C35.0739 214.211 0 179.197 0 136.01C0 104.613 18.5394 77.5392 45.2916 65.097C51.7816 62.0778 55.7123 55.4515 55.6925 48.3064V48.1779C55.6925 21.5689 77.3011 0 103.959 0H367.575C394.233 0 415.842 21.5689 415.842 48.1779C415.842 74.7869 394.233 96.3558 367.575 96.3558C359.546 96.3558 353.828 104.173 356.313 111.792C357.734 116.151 358.783 120.672 359.417 125.332C360.224 131.222 365.199 135.639 371.154 135.639H401.728C428.386 135.639 449.995 157.208 449.995 183.817C449.995 210.426 428.386 231.995 401.728 231.995" fill="white"/>
</mask>
<g mask="url(#mask0_5593_22192)">
<path d="M-5.04944 188.002L394.015 235.429L1.09673e-05 228.892L-5.04944 188.002Z" fill="url(#paint1_linear_5593_22192)"/>
<path d="M473.128 183.629L233.626 231.051L477.554 264.222L473.128 183.629Z" fill="url(#paint2_linear_5593_22192)"/>
<path d="M230.902 40.7018L223.986 90.7729L341.021 106.879L347.937 56.808L230.902 40.7018Z" fill="#EC6625"/>
<path d="M223.983 90.7725L224.205 89.2456L341.115 106.283L223.983 90.7725Z" fill="#CC4A17"/>
<path d="M230.735 41.5518L230.393 44.0027L347.575 59.0539L347.744 57.8334L230.735 41.5518Z" fill="#CC4A17"/>
<path d="M338.62 60.4219L332.885 101.941L333.822 102.07L339.557 60.5508L338.62 60.4219Z" fill="#CC4A17"/>
<path d="M332.162 59.5386L326.427 101.058L327.364 101.187L333.099 59.6675L332.162 59.5386Z" fill="#CC4A17"/>
<path d="M325.705 58.645L319.97 100.165L320.906 100.293L326.641 58.7739L325.705 58.645Z" fill="#CC4A17"/>
<path d="M319.298 57.7632L313.563 99.2827L314.5 99.4116L320.235 57.8921L319.298 57.7632Z" fill="#CC4A17"/>
<path d="M312.841 56.875L307.106 98.3945L308.043 98.5234L313.778 57.0039L312.841 56.875Z" fill="#CC4A17"/>
<path d="M306.383 55.9912L300.648 97.5107L301.584 97.6396L307.319 56.1201L306.383 55.9912Z" fill="#CC4A17"/>
<path d="M299.925 55.0977L294.191 96.6172L295.127 96.7461L300.862 55.2266L299.925 55.0977Z" fill="#CC4A17"/>
<path d="M293.519 54.2163L287.784 95.7358L288.721 95.8647L294.456 54.3452L293.519 54.2163Z" fill="#CC4A17"/>
<path d="M287.062 53.3276L281.327 94.8472L282.263 94.9761L287.998 53.4565L287.062 53.3276Z" fill="#CC4A17"/>
<path d="M280.604 52.4443L274.869 93.9639L275.805 94.0928L281.54 52.5732L280.604 52.4443Z" fill="#CC4A17"/>
<path d="M274.146 51.5508L268.411 93.0703L269.348 93.1992L275.083 51.6797L274.146 51.5508Z" fill="#CC4A17"/>
<path d="M267.74 50.6689L262.005 92.1885L262.942 92.3174L268.677 50.7978L267.74 50.6689Z" fill="#CC4A17"/>
<path d="M261.283 49.7808L255.548 91.3003L256.484 91.4292L262.219 49.9097L261.283 49.7808Z" fill="#CC4A17"/>
<path d="M254.825 48.897L249.09 90.4165L250.026 90.5454L255.761 49.0259L254.825 48.897Z" fill="#CC4A17"/>
<path d="M248.418 48.0103L242.683 89.5298L243.62 89.6587L249.355 48.1392L248.418 48.0103Z" fill="#CC4A17"/>
<path d="M241.961 47.1221L236.226 88.6416L237.163 88.7705L242.898 47.251L241.961 47.1221Z" fill="#CC4A17"/>
<path d="M235.504 46.2334L229.769 87.7529L230.705 87.8818L236.44 46.3623L235.504 46.2334Z" fill="#CC4A17"/>
<path d="M235.502 46.2363L341.996 60.8873L340.858 61.5791L235.789 47.1208L235.502 46.2363Z" fill="#CC4A17"/>
<path d="M348.581 56.825L230.261 40.542L229.94 42.872L348.26 59.155L348.581 56.825Z" fill="#EC6625"/>
<path d="M341.774 106.138L223.454 89.855L223.132 92.185L341.452 108.468L341.774 106.138Z" fill="#E06F38"/>
<path d="M137.81 255.861C137.81 255.861 142.439 239.95 122.093 221.079C101.746 202.209 120.073 174.389 89.103 135.012C58.133 95.6342 69.024 86.0826 57.5637 76.7979L101.741 187.479C101.741 187.479 118.746 228.709 137.81 255.861Z" fill="url(#paint3_linear_5593_22192)"/>
<path d="M-16.8319 121.355L-39.635 198.245L140.075 251.345L162.878 174.455L-16.8319 121.355Z" fill="#2A497A"/>
<path d="M140.078 251.34L140.751 248.983L-39.3808 197.322L140.078 251.34Z" fill="#1E3157"/>
<path d="M162.553 175.793L161.439 179.553L-17.7919 124.843L-17.2325 122.965L162.553 175.793Z" fill="#1E3157"/>
<path d="M2.74375 135.18L-16.1628 198.931L-14.7246 199.356L4.18204 135.605L2.74375 135.18Z" fill="#1E3157"/>
<path d="M12.6603 138.104L-6.24634 201.855L-4.80805 202.28L14.0985 138.529L12.6603 138.104Z" fill="#1E3157"/>
<path d="M22.5021 141.014L3.59546 204.765L5.03375 205.19L23.9403 141.439L22.5021 141.014Z" fill="#1E3157"/>
<path d="M32.4125 143.946L13.5059 207.697L14.9441 208.122L33.8507 144.371L32.4125 143.946Z" fill="#1E3157"/>
<path d="M42.329 146.87L23.4224 210.621L24.8607 211.046L43.7672 147.295L42.329 146.87Z" fill="#1E3157"/>
<path d="M52.244 149.803L33.3374 213.554L34.7757 213.979L53.6823 150.228L52.244 149.803Z" fill="#1E3157"/>
<path d="M62.081 152.708L43.1744 216.458L44.6127 216.883L63.5193 153.133L62.081 152.708Z" fill="#1E3157"/>
<path d="M71.9975 155.636L53.0909 219.387L54.5292 219.812L73.4358 156.061L71.9975 155.636Z" fill="#1E3157"/>
<path d="M81.9127 158.569L63.0061 222.32L64.4444 222.745L83.351 158.994L81.9127 158.569Z" fill="#1E3157"/>
<path d="M91.8242 161.493L72.9176 225.244L74.3559 225.669L93.2625 161.918L91.8242 161.493Z" fill="#1E3157"/>
<path d="M101.666 164.402L82.7596 228.153L84.1979 228.578L103.105 164.827L101.666 164.402Z" fill="#1E3157"/>
<path d="M111.581 167.336L92.6748 231.086L94.1131 231.511L113.02 167.761L111.581 167.336Z" fill="#1E3157"/>
<path d="M121.488 170.258L102.582 234.009L104.02 234.434L122.926 170.683L121.488 170.258Z" fill="#1E3157"/>
<path d="M131.333 173.173L112.427 236.924L113.865 237.349L132.772 173.598L131.333 173.173Z" fill="#1E3157"/>
<path d="M141.25 176.102L122.343 239.853L123.782 240.278L142.688 176.527L141.25 176.102Z" fill="#1E3157"/>
<path d="M151.155 179.029L132.249 242.78L133.687 243.205L152.594 179.454L151.155 179.029Z" fill="#1E3157"/>
<path d="M152.592 179.449L-10.9307 131.133L-9.73761 132.872L151.602 180.541L152.592 179.449Z" fill="#1E3157"/>
<path d="M-18.8413 124.532L162.839 178.215L163.901 174.633L-17.7789 120.95L-18.8413 124.532Z" fill="#2A497A"/>
<path d="M-41.2944 200.257L140.386 253.94L141.448 250.358L-40.2321 196.675L-41.2944 200.257Z" fill="#2A497A"/>
<path d="M494.685 147.264L277.973 167.902L286.836 260.62L503.547 239.982L494.685 147.264Z" fill="#2A497A"/>
<path d="M494.92 148.833L495.351 153.369L278.462 172.067L278.244 169.803L494.92 148.833Z" fill="#1E3157"/>
<path d="M294.856 175.284L293.121 175.449L300.469 252.323L302.204 252.157L294.856 175.284Z" fill="#1E3157"/>
<path d="M306.812 174.145L305.078 174.311L312.425 251.184L314.16 251.019L306.812 174.145Z" fill="#1E3157"/>
<path d="M318.769 173.007L317.034 173.172L324.382 250.046L326.117 249.881L318.769 173.007Z" fill="#1E3157"/>
<path d="M330.637 171.878L328.902 172.043L336.25 248.917L337.985 248.752L330.637 171.878Z" fill="#1E3157"/>
<path d="M342.588 170.74L340.854 170.905L348.202 247.779L349.936 247.613L342.588 170.74Z" fill="#1E3157"/>
<path d="M354.539 169.602L352.805 169.767L360.153 246.641L361.887 246.476L354.539 169.602Z" fill="#1E3157"/>
<path d="M366.496 168.464L364.761 168.629L372.109 245.503L373.844 245.338L366.496 168.464Z" fill="#1E3157"/>
<path d="M378.364 167.334L376.63 167.499L383.978 244.373L385.712 244.208L378.364 167.334Z" fill="#1E3157"/>
<path d="M390.315 166.191L388.581 166.356L395.929 243.23L397.663 243.065L390.315 166.191Z" fill="#1E3157"/>
<path d="M402.272 165.053L400.537 165.218L407.885 242.092L409.62 241.926L402.272 165.053Z" fill="#1E3157"/>
<path d="M414.228 163.915L412.493 164.08L419.841 240.954L421.576 240.789L414.228 163.915Z" fill="#1E3157"/>
<path d="M426.097 162.79L424.362 162.955L431.71 239.829L433.445 239.664L426.097 162.79Z" fill="#1E3157"/>
<path d="M438.048 161.647L436.313 161.812L443.661 238.686L445.396 238.521L438.048 161.647Z" fill="#1E3157"/>
<path d="M449.999 160.509L448.265 160.674L455.612 237.548L457.347 237.383L449.999 160.509Z" fill="#1E3157"/>
<path d="M485.777 157.089L288.591 175.871L290.63 177.225L485.183 158.695L485.777 157.089Z" fill="#1E3157"/>
<path d="M277.188 172.175L496.275 151.311L495.862 146.992L276.775 167.856L277.188 172.175Z" fill="#2A497A"/>
<path d="M137.32 253.697C137.32 253.697 136.558 234.297 106.925 220.842C77.2912 207.387 87.3356 169.68 38.2768 137.364C-10.7771 105.047 -2.21782 90.4012 -18.4058 84.3135L71.816 191.016C71.816 191.016 106.038 230.562 137.315 253.697H137.32Z" fill="url(#paint4_linear_5593_22192)"/>
<path d="M20.4008 87.4561C21.9756 87.4561 23.2522 86.1818 23.2522 84.6099C23.2522 83.038 21.9756 81.7637 20.4008 81.7637C18.826 81.7637 17.5493 83.038 17.5493 84.6099C17.5493 86.1818 18.826 87.4561 20.4008 87.4561Z" fill="url(#paint5_linear_5593_22192)"/>
<path d="M111.915 121.778C114.504 121.778 116.603 119.683 116.603 117.099C116.603 114.514 114.504 112.419 111.915 112.419C109.325 112.419 107.227 114.514 107.227 117.099C107.227 119.683 109.325 121.778 111.915 121.778Z" fill="url(#paint6_linear_5593_22192)"/>
<path d="M144.66 146.449C145.937 146.211 146.778 144.985 146.54 143.711C146.301 142.436 145.073 141.597 143.796 141.835C142.52 142.073 141.678 143.299 141.917 144.573C142.156 145.847 143.384 146.687 144.66 146.449Z" fill="url(#paint7_linear_5593_22192)"/>
<path d="M164.166 162.036C164.166 162.036 161.107 155.508 168.587 146.036C176.067 136.563 166.325 125.831 176.993 106.832C187.661 87.8321 182.34 84.4572 186.641 79.6987L175.082 130.229C175.082 130.229 170.538 149.09 164.166 162.036Z" fill="url(#paint8_linear_5593_22192)"/>
<path d="M212.803 126.749L157.901 138.607L162.994 162.098L217.896 150.239L212.803 126.749Z" fill="#EC6625"/>
<path d="M217.889 150.251L217.725 149.535L162.919 161.829L217.889 150.251Z" fill="#CC4A17"/>
<path d="M212.904 127.16L213.156 128.311L158.142 139.672L158.018 139.098L212.904 127.16Z" fill="#CC4A17"/>
<path d="M162.451 139.985L162.011 140.08L166.234 159.558L166.674 159.463L162.451 139.985Z" fill="#CC4A17"/>
<path d="M165.477 139.332L165.037 139.427L169.26 158.904L169.7 158.809L165.477 139.332Z" fill="#CC4A17"/>
<path d="M168.507 138.677L168.067 138.772L172.289 158.25L172.73 158.155L168.507 138.677Z" fill="#CC4A17"/>
<path d="M171.52 138.027L171.079 138.122L175.302 157.6L175.742 157.505L171.52 138.027Z" fill="#CC4A17"/>
<path d="M174.54 137.374L174.099 137.469L178.322 156.946L178.762 156.851L174.54 137.374Z" fill="#CC4A17"/>
<path d="M177.571 136.719L177.13 136.814L181.353 156.292L181.793 156.196L177.571 136.719Z" fill="#CC4A17"/>
<path d="M180.601 136.065L180.161 136.16L184.384 155.637L184.824 155.542L180.601 136.065Z" fill="#CC4A17"/>
<path d="M183.608 135.415L183.168 135.51L187.39 154.988L187.831 154.893L183.608 135.415Z" fill="#CC4A17"/>
<path d="M186.634 134.761L186.194 134.856L190.416 154.334L190.856 154.238L186.634 134.761Z" fill="#CC4A17"/>
<path d="M189.665 134.107L189.224 134.202L193.447 153.679L193.887 153.584L189.665 134.107Z" fill="#CC4A17"/>
<path d="M192.695 133.452L192.254 133.547L196.477 153.025L196.917 152.93L192.695 133.452Z" fill="#CC4A17"/>
<path d="M195.697 132.803L195.257 132.898L199.48 152.376L199.92 152.28L195.697 132.803Z" fill="#CC4A17"/>
<path d="M198.728 132.153L198.288 132.248L202.51 151.726L202.951 151.631L198.728 132.153Z" fill="#CC4A17"/>
<path d="M201.758 131.494L201.318 131.589L205.54 151.066L205.98 150.971L201.758 131.494Z" fill="#CC4A17"/>
<path d="M204.766 130.844L204.325 130.939L208.548 150.417L208.988 150.322L204.766 130.844Z" fill="#CC4A17"/>
<path d="M207.792 130.195L207.351 130.29L211.574 149.768L212.014 149.672L207.792 130.195Z" fill="#CC4A17"/>
<path d="M210.821 129.536L210.381 129.631L214.604 149.108L215.044 149.013L210.821 129.536Z" fill="#CC4A17"/>
<path d="M210.815 129.552L160.855 140.339L161.419 140.626L210.711 129.982L210.815 129.552Z" fill="#CC4A17"/>
<path d="M157.814 139.754L213.321 127.765L213.084 126.673L157.578 138.662L157.814 139.754Z" fill="#EC6625"/>
<path d="M162.823 162.89L218.329 150.901L218.093 149.809L162.586 161.798L162.823 162.89Z" fill="#E06F38"/>
<path d="M162.855 162.718C162.855 162.718 169.894 161.107 172.77 149.391C175.652 137.675 190.122 138.743 198.557 118.656C206.993 98.5698 212.938 100.68 214.047 94.3696L181.256 134.557C181.256 134.557 169.157 149.737 162.855 162.718Z" fill="url(#paint9_linear_5593_22192)"/>
<path d="M159.909 105.695C160.276 105.695 160.573 105.398 160.573 105.033C160.573 104.667 160.276 104.371 159.909 104.371C159.543 104.371 159.246 104.667 159.246 105.033C159.246 105.398 159.543 105.695 159.909 105.695Z" fill="url(#paint10_linear_5593_22192)"/>
<path d="M179.424 117.44C180.025 117.44 180.513 116.954 180.513 116.353C180.513 115.753 180.025 115.266 179.424 115.266C178.822 115.266 178.335 115.753 178.335 116.353C178.335 116.954 178.822 117.44 179.424 117.44Z" fill="url(#paint11_linear_5593_22192)"/>
<path d="M163.35 144.435C163.65 144.435 163.894 144.191 163.894 143.891C163.894 143.591 163.65 143.348 163.35 143.348C163.049 143.348 162.805 143.591 162.805 143.891C162.805 144.191 163.049 144.435 163.35 144.435Z" fill="url(#paint12_linear_5593_22192)"/>
<path d="M185.647 124.452C185.947 124.452 186.191 124.209 186.191 123.909C186.191 123.609 185.947 123.365 185.647 123.365C185.346 123.365 185.102 123.609 185.102 123.909C185.102 124.209 185.346 124.452 185.647 124.452Z" fill="url(#paint13_linear_5593_22192)"/>
<path d="M460.777 78.2012L452.965 250.466H-23.9156L-28.1631 78.2012H460.777Z" fill="url(#paint14_linear_5593_22192)"/>
<path d="M74.4299 -0.988281C74.4299 -0.988281 134.211 5.86533 146.751 20.2742C146.751 20.2742 190.978 20.1902 198.305 28.5509C198.305 28.5509 232.057 35.7949 236.71 42.4855L175.859 32.4546C175.859 32.4546 149.652 38.5868 120.969 34.1248L37.5739 33.5664L74.4299 -0.988281Z" fill="url(#paint15_linear_5593_22192)"/>
<path d="M406.733 -10.4756C406.733 -10.4756 346.952 -3.62197 334.412 10.7869C334.412 10.7869 290.185 10.7029 282.858 19.0636C282.858 19.0636 249.106 26.3076 244.453 32.9982L305.304 22.9673C305.304 22.9673 331.511 29.0995 360.194 24.6374L443.589 24.0791L406.743 -10.4706L406.733 -10.4756Z" fill="url(#paint16_linear_5593_22192)"/>
<path d="M228.136 61.6973L226.408 74.6979H345.486L347.744 61.6973H446.554L450.802 77.7022H-38.1382L-42.3807 61.6973H228.136Z" fill="url(#paint17_linear_5593_22192)"/>
<path d="M216.78 74.5696L221.077 73.2701C223.79 72.4498 226.691 72.4992 229.374 73.4134L229.79 73.5567L234.468 74.5746H240.19H247.671L259.111 72.5141C260.755 72.2176 262.448 72.2126 264.086 72.5437C269.334 73.611 274.987 73.5616 274.987 73.5616H285.794L290.774 74.5795H299.551L313.675 73.2997H319.645L322.318 73.5616L361.229 73.2997L376.481 74.5795L389.936 73.5616L399.902 73.2997L405.382 74.5795H412.357H216.785L216.78 74.5696Z" fill="white"/>
<path d="M149.31 68.9264C149.31 68.9264 145.088 68.961 141.167 68.1655C139.944 67.9184 138.682 67.9233 137.449 68.1457L128.905 69.6874H161.102L157.379 68.9264H149.305H149.31Z" fill="white"/>
<path d="M115.241 68.8227C113.236 68.1408 111.068 68.1012 109.043 68.714L105.831 69.6874H119.043L115.548 68.9265L115.236 68.8227H115.241Z" fill="white"/>
<path d="M226.844 69.5591L225.126 69.6878H226.844V69.5591Z" fill="white"/>
<path d="M184.666 68.9267L182.671 68.729H178.211L167.662 69.6876H225.126L213.73 68.729L184.666 68.9267Z" fill="white"/>
</g>
<defs>
<linearGradient id="paint0_linear_5593_22192" x1="252.596" y1="-53.8604" x2="209.979" y2="275.983" gradientUnits="userSpaceOnUse">
<stop stop-color="white"/>
<stop offset="0.44" stop-color="#CAF0FF"/>
<stop offset="1" stop-color="#A7CDF2"/>
</linearGradient>
<linearGradient id="paint1_linear_5593_22192" x1="147.142" y1="106.891" x2="172.22" y2="170.127" gradientUnits="userSpaceOnUse">
<stop stop-color="#94B9DD" stop-opacity="0.3"/>
<stop offset="1" stop-color="#7FA2D6"/>
</linearGradient>
<linearGradient id="paint2_linear_5593_22192" x1="264.952" y1="274.125" x2="389.039" y2="237.727" gradientUnits="userSpaceOnUse">
<stop stop-color="#94B9DD" stop-opacity="0.3"/>
<stop offset="1" stop-color="#7FA2D6"/>
</linearGradient>
<linearGradient id="paint3_linear_5593_22192" x1="65.4304" y1="71.0531" x2="101.903" y2="173.198" gradientUnits="userSpaceOnUse">
<stop stop-color="#C7F0FF" stop-opacity="0"/>
<stop offset="1" stop-color="#DCEFFF"/>
</linearGradient>
<linearGradient id="paint4_linear_5593_22192" x1="59.5196" y1="113.723" x2="59.4084" y2="197.553" gradientUnits="userSpaceOnUse">
<stop stop-color="#C7F0FF" stop-opacity="0"/>
<stop offset="1" stop-color="#DCEFFF"/>
</linearGradient>
<linearGradient id="paint5_linear_5593_22192" x1="-10.0863" y1="38.7061" x2="81.1188" y2="176.531" gradientUnits="userSpaceOnUse">
<stop stop-color="#C7F0FF" stop-opacity="0"/>
<stop offset="1" stop-color="#A7CDF2"/>
</linearGradient>
<linearGradient id="paint6_linear_5593_22192" x1="38.4897" y1="6.55692" x2="129.7" y2="144.381" gradientUnits="userSpaceOnUse">
<stop stop-color="#C7F0FF" stop-opacity="0"/>
<stop offset="1" stop-color="#A7CDF2"/>
</linearGradient>
<linearGradient id="paint7_linear_5593_22192" x1="48.4707" y1="-0.0212844" x2="139.675" y2="137.799" gradientUnits="userSpaceOnUse">
<stop stop-color="#C7F0FF" stop-opacity="0"/>
<stop offset="1" stop-color="#A7CDF2"/>
</linearGradient>
<linearGradient id="paint8_linear_5593_22192" x1="165.95" y1="102.614" x2="180.246" y2="130.27" gradientUnits="userSpaceOnUse">
<stop stop-color="#C7F0FF" stop-opacity="0"/>
<stop offset="1" stop-color="#DCEFFF"/>
</linearGradient>
<linearGradient id="paint9_linear_5593_22192" x1="208.647" y1="124.767" x2="178.008" y2="130.516" gradientUnits="userSpaceOnUse">
<stop stop-color="#C7F0FF" stop-opacity="0"/>
<stop offset="1" stop-color="#DCEFFF"/>
</linearGradient>
<linearGradient id="paint10_linear_5593_22192" x1="154.914" y1="93.2477" x2="169.862" y2="128.618" gradientUnits="userSpaceOnUse">
<stop stop-color="#C7F0FF" stop-opacity="0"/>
<stop offset="1" stop-color="#A7CDF2"/>
</linearGradient>
<linearGradient id="paint11_linear_5593_22192" x1="167.384" y1="87.9752" x2="182.337" y2="123.34" gradientUnits="userSpaceOnUse">
<stop stop-color="#C7F0FF" stop-opacity="0"/>
<stop offset="1" stop-color="#A7CDF2"/>
</linearGradient>
<linearGradient id="paint12_linear_5593_22192" x1="143.85" y1="97.9274" x2="158.798" y2="133.292" gradientUnits="userSpaceOnUse">
<stop stop-color="#C7F0FF" stop-opacity="0"/>
<stop offset="1" stop-color="#A7CDF2"/>
</linearGradient>
<linearGradient id="paint13_linear_5593_22192" x1="169.944" y1="86.8934" x2="184.897" y2="122.258" gradientUnits="userSpaceOnUse">
<stop stop-color="#C7F0FF" stop-opacity="0"/>
<stop offset="1" stop-color="#A7CDF2"/>
</linearGradient>
<linearGradient id="paint14_linear_5593_22192" x1="216.305" y1="45.3216" x2="216.305" y2="239.496" gradientUnits="userSpaceOnUse">
<stop stop-color="#94B9DD" stop-opacity="0.3"/>
<stop offset="1" stop-color="#7FA2D6"/>
</linearGradient>
<linearGradient id="paint15_linear_5593_22192" x1="192.874" y1="78.6461" x2="88.0455" y2="1.55988" gradientUnits="userSpaceOnUse">
<stop stop-color="white" stop-opacity="0"/>
<stop offset="1" stop-color="white"/>
</linearGradient>
<linearGradient id="paint16_linear_5593_22192" x1="288.289" y1="69.1588" x2="393.118" y2="-7.92742" gradientUnits="userSpaceOnUse">
<stop stop-color="white" stop-opacity="0"/>
<stop offset="1" stop-color="white"/>
</linearGradient>
<linearGradient id="paint17_linear_5593_22192" x1="215.483" y1="-53.144" x2="196.858" y2="150.563" gradientUnits="userSpaceOnUse">
<stop stop-color="#94B9DD" stop-opacity="0.3"/>
<stop offset="1" stop-color="#7FA2D6"/>
</linearGradient>
</defs>
</svg>
