<svg width="450" height="417" viewBox="0 0 450 417" fill="none" xmlns="http://www.w3.org/2000/svg">
<g clip-path="url(#clip0_5635_28645)">
<path d="M224.996 0C349.178 0 450 100.757 450 224.851V417H0V224.851C0 100.757 100.822 0 224.996 0Z" fill="url(#paint0_linear_5635_28645)"/>
<mask id="mask0_5635_28645" style="mask-type:luminance" maskUnits="userSpaceOnUse" x="0" y="0" width="450" height="417">
<path d="M224.996 0C349.178 0 450 100.757 450 224.851V417H0V224.851C0 100.757 100.822 0 224.996 0Z" fill="white"/>
</mask>
<g mask="url(#mask0_5635_28645)">
<path d="M491.224 67.9653L237.727 321.299V364.91L491.224 111.576V67.9653Z" fill="url(#paint1_linear_5635_28645)"/>
<path d="M491.224 -11.6558L237.727 241.678V263.488L491.224 10.1456V-11.6558Z" fill="url(#paint2_linear_5635_28645)"/>
<path d="M312.52 -44.415L23.3103 244.609V288.22L312.52 -0.804134V-44.415Z" fill="url(#paint3_linear_5635_28645)"/>
<path d="M276.816 -88.3545L23.3103 164.988V186.789L276.816 -66.5449V-88.3545Z" fill="url(#paint4_linear_5635_28645)"/>
<path d="M381.022 34.8198H367.248V350.135H381.022V34.8198Z" fill="#001226"/>
<path d="M84.9126 34.8198H71.1383V350.135H84.9126V34.8198Z" fill="#001226"/>
<path d="M470.887 179.738V165.973L-58.0129 165.973V179.738L470.887 179.738Z" fill="#001226"/>
<path d="M470.887 352.745V338.979L-58.0129 338.979V352.745L470.887 352.745Z" fill="#001226"/>
<path d="M572.974 350.135H-252.561V488.281H572.974V350.135Z" fill="url(#paint5_linear_5635_28645)"/>
<path d="M68.4935 291.987H-111.681V437.825H68.4935V291.987Z" fill="#EC6625"/>
<path d="M148.387 291.987H68.4934V437.825H148.387V291.987Z" fill="#D0502D"/>
<path d="M125.611 357.654H121.307L115.64 355.61L108.445 357.654L102.72 355.389L95.0153 357.654V291.987H125.611V357.654Z" fill="url(#paint6_linear_5635_28645)"/>
<path d="M49.4624 402.669H-4.59143V428.657H49.4624V402.669Z" fill="url(#paint7_linear_5635_28645)"/>
<path d="M5.13361 407.487H3.48267V423.288H5.13361V407.487Z" fill="#282828"/>
<path d="M21.6102 407.487H19.9592V419.668H21.6102V407.487Z" fill="#282828"/>
<path d="M8.42731 407.487H6.77637V419.668H8.42731V407.487Z" fill="#282828"/>
<path d="M11.7292 407.487H10.0782V419.668H11.7292V407.487Z" fill="#282828"/>
<path d="M15.0229 407.487H13.3719V419.668H15.0229V407.487Z" fill="#282828"/>
<path d="M18.3165 407.487H16.6655V419.668H18.3165V407.487Z" fill="#282828"/>
<path d="M24.912 407.487H23.2611V419.668H24.912V407.487Z" fill="#282828"/>
<path d="M28.2057 407.487H26.5548V419.668H28.2057V407.487Z" fill="#282828"/>
<path d="M31.4993 407.487H29.8484V419.668H31.4993V407.487Z" fill="#282828"/>
<path d="M34.8012 407.487H33.1503V419.668H34.8012V407.487Z" fill="#282828"/>
<path d="M38.0949 407.487H36.444V419.668H38.0949V407.487Z" fill="#282828"/>
<path d="M41.3886 407.487H39.7377V423.288H41.3886V407.487Z" fill="#282828"/>
<path d="M331.904 291.987H151.73V437.825H331.904V291.987Z" fill="#EC6625"/>
<path d="M411.798 291.987H331.905V437.825H411.798V291.987Z" fill="#D0502D"/>
<path d="M389.022 357.654H384.718L379.051 355.61L371.856 357.654L366.131 355.389L358.426 357.654V291.987H389.022V357.654Z" fill="url(#paint8_linear_5635_28645)"/>
<path d="M312.873 402.669H258.82V428.657H312.873V402.669Z" fill="url(#paint9_linear_5635_28645)"/>
<path d="M211.394 399.606H162.95V402.668H211.394V399.606Z" fill="#282828"/>
<path d="M188.109 406.239H162.95V409.301H188.109V406.239Z" fill="#282828"/>
<path d="M177.225 412.863H162.95V415.925H177.225V412.863Z" fill="#282828"/>
<path d="M211.394 412.863H194.564V415.925H211.394V412.863Z" fill="#282828"/>
<path d="M268.545 407.487H266.894V423.288H268.545V407.487Z" fill="#282828"/>
<path d="M285.021 407.487H283.37V419.668H285.021V407.487Z" fill="#282828"/>
<path d="M271.838 407.487H270.187V419.668H271.838V407.487Z" fill="#282828"/>
<path d="M275.132 407.487H273.481V419.668H275.132V407.487Z" fill="#282828"/>
<path d="M278.434 407.487H276.783V419.668H278.434V407.487Z" fill="#282828"/>
<path d="M281.727 407.487H280.077V419.668H281.727V407.487Z" fill="#282828"/>
<path d="M288.323 407.487H286.672V419.668H288.323V407.487Z" fill="#282828"/>
<path d="M291.617 407.487H289.966V419.668H291.617V407.487Z" fill="#282828"/>
<path d="M294.91 407.487H293.259V419.668H294.91V407.487Z" fill="#282828"/>
<path d="M298.212 407.487H296.561V419.668H298.212V407.487Z" fill="#282828"/>
<path d="M301.506 407.487H299.855V419.668H301.506V407.487Z" fill="#282828"/>
<path d="M304.8 407.487H303.149V423.288H304.8V407.487Z" fill="#282828"/>
<path d="M331.904 306.754L326.672 299.473H314.401L307.116 296.789L295.863 291.987H350.837L341.375 296.149L339.33 300.877L336.003 302.281L331.904 306.754Z" fill="#282828"/>
<path d="M315.806 305.096C315.806 305.096 326.525 303.947 331.904 306.754L326.672 299.474H314.401L315.806 305.096Z" fill="#D0502D"/>
<path d="M208.979 144.943H28.8052V290.781H208.979V144.943Z" fill="#EC6625"/>
<path d="M288.873 144.943H208.979V290.781H288.873V144.943Z" fill="#D0502D"/>
<path d="M242.809 243.14L223.863 261.215L226.132 263.59L245.078 245.515L242.809 243.14Z" fill="#FFF9F6"/>
<path d="M254.533 266.708L229.076 272.872L229.85 276.063L255.307 269.899L254.533 266.708Z" fill="#FFF9F6"/>
<path d="M266.097 210.61H261.793L256.126 208.566L248.93 210.61L243.214 208.345L235.501 210.61V144.943H266.097V210.61Z" fill="url(#paint10_linear_5635_28645)"/>
<path d="M189.948 255.625H135.894V281.613H189.948V255.625Z" fill="url(#paint11_linear_5635_28645)"/>
<path d="M88.469 252.562H40.025V255.624H88.469V252.562Z" fill="#282828"/>
<path d="M65.1834 259.195H40.025V262.257H65.1834V259.195Z" fill="#282828"/>
<path d="M54.3003 265.819H40.025V268.881H54.3003V265.819Z" fill="#282828"/>
<path d="M88.469 265.819H71.6393V268.881H88.469V265.819Z" fill="#282828"/>
<path d="M145.619 260.443H143.969V276.244H145.619V260.443Z" fill="#282828"/>
<path d="M162.104 260.443H160.453V272.625H162.104V260.443Z" fill="#282828"/>
<path d="M148.913 260.443H147.262V272.625H148.913V260.443Z" fill="#282828"/>
<path d="M152.215 260.443H150.564V272.625H152.215V260.443Z" fill="#282828"/>
<path d="M155.509 260.443H153.858V272.625H155.509V260.443Z" fill="#282828"/>
<path d="M158.802 260.443H157.151V272.625H158.802V260.443Z" fill="#282828"/>
<path d="M165.398 260.443H163.747V272.625H165.398V260.443Z" fill="#282828"/>
<path d="M168.692 260.443H167.041V272.625H168.692V260.443Z" fill="#282828"/>
<path d="M171.985 260.443H170.334V272.625H171.985V260.443Z" fill="#282828"/>
<path d="M175.287 260.443H173.636V272.625H175.287V260.443Z" fill="#282828"/>
<path d="M178.581 260.443H176.93V272.625H178.581V260.443Z" fill="#282828"/>
<path d="M181.874 260.443H180.224V276.244H181.874V260.443Z" fill="#282828"/>
<path d="M208.979 250.289L216.101 258.973L213.037 273.798L217.398 280.693L219.361 285.675L225.817 290.789H208.979V250.289Z" fill="#282828"/>
<path d="M220.511 265.745C214.762 272.624 217.398 280.692 217.398 280.692L213.029 273.797L216.101 258.981L220.511 265.753V265.745Z" fill="#EC6625"/>
<path d="M210.22 254.672L208.979 250.289L207.92 256.544V266.533L206.951 281.612L204.593 290.789H210.729L210.22 254.672Z" fill="#282828"/>
</g>
</g>
<defs>
<linearGradient id="paint0_linear_5635_28645" x1="390.41" y1="68.3919" x2="76.2053" y2="475.779" gradientUnits="userSpaceOnUse">
<stop stop-color="#FBE3D9"/>
<stop offset="1" stop-color="#F9F2D4"/>
</linearGradient>
<linearGradient id="paint1_linear_5635_28645" x1="494.025" y1="48.6839" x2="270.622" y2="338.331" gradientUnits="userSpaceOnUse">
<stop stop-color="#FFF9F6"/>
<stop offset="1" stop-color="#FFF9F6" stop-opacity="0"/>
</linearGradient>
<linearGradient id="paint2_linear_5635_28645" x1="450.214" y1="14.89" x2="226.811" y2="304.546" gradientUnits="userSpaceOnUse">
<stop stop-color="#FFF9F6"/>
<stop offset="1" stop-color="#FFF9F6" stop-opacity="0"/>
</linearGradient>
<linearGradient id="paint3_linear_5635_28645" x1="314.097" y1="-67.3902" x2="62.0112" y2="259.451" gradientUnits="userSpaceOnUse">
<stop stop-color="#FFF9F6"/>
<stop offset="1" stop-color="#FFF9F6" stop-opacity="0"/>
</linearGradient>
<linearGradient id="paint4_linear_5635_28645" x1="235.797" y1="-61.8005" x2="12.3941" y2="227.847" gradientUnits="userSpaceOnUse">
<stop stop-color="#FFF9F6"/>
<stop offset="1" stop-color="#FFF9F6" stop-opacity="0"/>
</linearGradient>
<linearGradient id="paint5_linear_5635_28645" x1="160.207" y1="613.212" x2="160.207" y2="309.233" gradientUnits="userSpaceOnUse">
<stop stop-color="#FBE3D9"/>
<stop offset="1" stop-color="#9B7654"/>
</linearGradient>
<linearGradient id="paint6_linear_5635_28645" x1="108.108" y1="304.39" x2="112.177" y2="342.108" gradientUnits="userSpaceOnUse">
<stop stop-color="#FBE3D9"/>
<stop offset="1" stop-color="#D8B7AB"/>
</linearGradient>
<linearGradient id="paint7_linear_5635_28645" x1="-12.764" y1="378.463" x2="93.2346" y2="490.64" gradientUnits="userSpaceOnUse">
<stop stop-color="#FBE3D9"/>
<stop offset="1" stop-color="#D8B7AB"/>
</linearGradient>
<linearGradient id="paint8_linear_5635_28645" x1="371.519" y1="0.000306806" x2="375.593" y2="0.000306806" gradientUnits="userSpaceOnUse">
<stop stop-color="#FBE3D9"/>
<stop offset="1" stop-color="#D8B7AB"/>
</linearGradient>
<linearGradient id="paint9_linear_5635_28645" x1="250.647" y1="378.463" x2="356.646" y2="490.64" gradientUnits="userSpaceOnUse">
<stop stop-color="#FBE3D9"/>
<stop offset="1" stop-color="#D8B7AB"/>
</linearGradient>
<linearGradient id="paint10_linear_5635_28645" x1="248.594" y1="157.346" x2="252.671" y2="195.064" gradientUnits="userSpaceOnUse">
<stop stop-color="#FBE3D9"/>
<stop offset="1" stop-color="#D8B7AB"/>
</linearGradient>
<linearGradient id="paint11_linear_5635_28645" x1="127.722" y1="231.419" x2="233.72" y2="343.596" gradientUnits="userSpaceOnUse">
<stop stop-color="#FBE3D9"/>
<stop offset="1" stop-color="#D8B7AB"/>
</linearGradient>
<clipPath id="clip0_5635_28645">
<rect width="450" height="417" fill="white"/>
</clipPath>
</defs>
</svg>
