<svg width="50" height="50" viewBox="0 0 50 50" fill="none" xmlns="http://www.w3.org/2000/svg">
<path d="M33.325 16.1834L24.475 15.325C24.075 15.2834 23.6833 15.425 23.4 15.7084L19.75 20.6334C19.2667 21.2917 19.6333 22.2334 20.4417 22.3834L21.075 22.5C21.5167 22.5834 21.9667 22.5584 22.3917 22.4334C23.1917 22.1917 24.4333 21.65 25.125 20.5584C25.4167 20.1 26.0167 19.975 26.4667 20.2834C29.0917 22.0834 36.3417 27.075 36.3417 27.075L39.7167 25.3834L34.8167 17.1167C34.5 16.5834 33.9417 16.225 33.325 16.1667V16.1834Z" stroke="#004A80" stroke-width="1.5" stroke-linecap="round" stroke-linejoin="round"/>
<path d="M35.1681 12.7516L33.0764 13.995C32.6412 14.2537 32.4982 14.8162 32.7569 15.2513L39.1485 26.0033C39.4072 26.4385 39.9697 26.5815 40.4049 26.3228L42.4966 25.0794C42.9317 24.8207 43.0748 24.2582 42.8161 23.8231L36.4244 13.0711C36.1657 12.6359 35.6032 12.4929 35.1681 12.7516Z" fill="#EC6625"/>
<path d="M23.9333 36.7252L25.3333 37.6252C25.7167 37.8752 26.225 37.7669 26.475 37.3919L27.4 36.0335C27.6417 35.6752 28.1167 35.5669 28.4917 35.7669C28.8667 35.9752 29.3417 35.8585 29.5834 35.5002L31.05 33.3419C31.275 33.0085 31.725 32.9085 32.075 33.1169C32.4084 33.3169 32.8417 33.2335 33.075 32.9169L34.4834 31.0419C34.6917 30.7585 35.0667 30.6669 35.3833 30.8085C35.7 30.9502 36.075 30.8502 36.2834 30.5752L36.9334 29.7252C37.525 28.8335 37.2583 27.6252 36.3333 27.0752" stroke="#004A80" stroke-width="1.5" stroke-linecap="round" stroke-linejoin="round"/>
<path d="M23.0334 16.0414L19.4917 16.2331C18.8 16.2664 18.1084 16.1414 17.4834 15.8581L15.4084 14.9331L9.66669 25.0581L10.575 25.5998C11.0834 25.9081 11.5167 26.3414 11.8167 26.8581L12.95 28.7914C13.1834 29.1914 13.4584 29.5581 13.7667 29.8914" stroke="#004A80" stroke-width="1.5" stroke-linecap="round" stroke-linejoin="round"/>
<path d="M16.2226 13.5744L14.1153 12.3577C13.6768 12.1046 13.1162 12.2548 12.8631 12.6933L6.60891 23.5258C6.35578 23.9642 6.506 24.5249 6.94443 24.778L9.05176 25.9947C9.4902 26.2478 10.0508 26.0976 10.304 25.6591L16.5581 14.8266C16.8112 14.3882 16.661 13.8275 16.2226 13.5744Z" fill="#EC6625"/>
<path d="M18.0511 29.3053C18.5425 28.5544 18.3321 27.5472 17.5811 27.0558C16.8302 26.5644 15.823 26.7748 15.3316 27.5258L13.9125 29.6944C13.4211 30.4453 13.6315 31.4525 14.3824 31.9439C15.1334 32.4353 16.1405 32.2249 16.632 31.474L18.0511 29.3053Z" stroke="#004A80" stroke-width="1.5" stroke-linecap="round" stroke-linejoin="round"/>
<path d="M20.6851 31.3414C21.1841 30.5789 20.9704 29.5563 20.2079 29.0573C19.4454 28.5583 18.4228 28.772 17.9238 29.5345L16.6644 31.459C16.1654 32.2215 16.3791 33.2442 17.1416 33.7432C17.9041 34.2421 18.9267 34.0285 19.4257 33.266L20.6851 31.3414Z" stroke="#004A80" stroke-width="1.5" stroke-linecap="round" stroke-linejoin="round"/>
<path d="M22.2953 31.5542L22.2883 31.5496C21.6567 31.1363 20.8097 31.3133 20.3964 31.9448L19.3423 33.5556C18.929 34.1872 19.106 35.0342 19.7376 35.4475L19.7445 35.4521C20.3761 35.8654 21.2232 35.6884 21.6364 35.0569L22.6905 33.4461C23.1038 32.8145 22.9268 31.9675 22.2953 31.5542Z" stroke="#004A80" stroke-width="1.5" stroke-linecap="round" stroke-linejoin="round"/>
<path d="M24.5939 33.0591L24.5869 33.0545C23.9554 32.6412 23.1083 32.8181 22.695 33.4497L21.641 35.0605C21.2277 35.6921 21.4046 36.5391 22.0362 36.9524L22.0432 36.957C22.6748 37.3703 23.5218 37.1933 23.9351 36.5617L24.9892 34.951C25.4024 34.3194 25.2255 33.4723 24.5939 33.0591Z" stroke="#004A80" stroke-width="1.5" stroke-linecap="round" stroke-linejoin="round"/>
</svg>
