<svg width="45" height="45" viewBox="0 0 45 45" fill="none" xmlns="http://www.w3.org/2000/svg">
<g id="Claim settlement within 10 days">
<g id="Group">
<path id="Vector" d="M24.225 35.9175H10.305C8.58001 35.9175 7.17751 34.515 7.17751 32.79V17.9625C7.17751 16.2375 8.58001 14.835 10.305 14.835H33.915C35.64 14.835 37.0425 16.2375 37.0425 17.9625V25.3725" stroke="#005F94" stroke-width="2" stroke-linecap="round" stroke-linejoin="round"/>
<path id="Vector_2" d="M7.17751 21.405H37.035" stroke="#005F94" stroke-width="2" stroke-linecap="round" stroke-linejoin="round"/>
<g id="Group_2">
<path id="Vector_3" d="M14.205 12.645V15.42" stroke="#005F94" stroke-width="2" stroke-linecap="round" stroke-linejoin="round"/>
<path id="Vector_4" d="M29.43 12.645V15.42" stroke="#005F94" stroke-width="2" stroke-linecap="round" stroke-linejoin="round"/>
</g>
<g id="Group_3">
<g id="Group_4">
<path id="Vector_5" d="M14.4975 26.3999H16.545" stroke="#EC6625" stroke-width="2" stroke-linecap="round" stroke-linejoin="round"/>
<path id="Vector_6" d="M14.4975 31.395H16.545" stroke="#EC6625" stroke-width="2" stroke-linecap="round" stroke-linejoin="round"/>
</g>
<g id="Group_5">
<path id="Vector_7" d="M21.0825 26.3999H23.13" stroke="#EC6625" stroke-width="2" stroke-linecap="round" stroke-linejoin="round"/>
<path id="Vector_8" d="M21.0825 31.395H23.13" stroke="#EC6625" stroke-width="2" stroke-linecap="round" stroke-linejoin="round"/>
</g>
<path id="Vector_9" d="M27.6675 26.3999H29.7225" stroke="#EC6625" stroke-width="2" stroke-linecap="round" stroke-linejoin="round"/>
</g>
</g>
<path id="Vector_10" d="M33.6525 27.1125C30.3525 27.1125 27.675 29.79 27.675 33.09C27.675 36.39 30.3525 39.0675 33.6525 39.0675C36.9525 39.0675 39.63 36.39 39.63 33.09C39.63 29.79 36.9525 27.1125 33.6525 27.1125ZM36.7875 31.9125L33.2775 35.4225C33.12 35.58 32.91 35.6625 32.7075 35.6625C32.505 35.6625 32.295 35.58 32.1375 35.4225L30.5175 33.8025C30.2025 33.4875 30.2025 32.9775 30.5175 32.655C30.8325 32.34 31.3425 32.34 31.665 32.655L32.715 33.705L35.6475 30.7725C35.9625 30.4575 36.4725 30.4575 36.795 30.7725C37.11 31.0875 37.11 31.5975 36.795 31.92L36.7875 31.9125Z" fill="#EC6625"/>
</g>
</svg>
