<svg width="50" height="50" viewBox="0 0 50 50" fill="none" xmlns="http://www.w3.org/2000/svg">
<path d="M25.175 12.7085C22.5583 17.3085 19.0417 19.9168 16.7333 21.2335L23.275 27.7752C25.8917 23.1752 29.4083 20.5668 31.7167 19.2502L25.175 12.7085Z" stroke="#004A80" stroke-width="2" stroke-linecap="round" stroke-linejoin="round"/>
<path d="M15.0833 20.4207L12.9561 22.5479C12.7251 22.779 12.7251 23.1536 12.9561 23.3847L21.0879 31.5164C21.3189 31.7475 21.6935 31.7475 21.9246 31.5164L24.0518 29.3892C24.2829 29.1581 24.2829 28.7835 24.0518 28.5525L15.9201 20.4207C15.689 20.1897 15.3144 20.1897 15.0833 20.4207Z" stroke="#004A80" stroke-width="2" stroke-linecap="round" stroke-linejoin="round"/>
<path d="M26.5392 8.97541L24.412 11.1026C24.181 11.3337 24.181 11.7083 24.412 11.9394L32.5438 20.0711C32.7748 20.3022 33.1494 20.3022 33.3805 20.0711L35.5077 17.9439C35.7388 17.7128 35.7388 17.3382 35.5077 17.1071L27.376 8.97541C27.1449 8.74435 26.7703 8.74435 26.5392 8.97541Z" stroke="#004A80" stroke-width="2" stroke-linecap="round" stroke-linejoin="round"/>
<path d="M28.2667 21.7334L42.3583 35.8251C43.0667 36.5334 43.0667 37.6751 42.3583 38.3751C41.65 39.0834 40.5083 39.0834 39.8083 38.3751L25.7167 24.2834" stroke="#004A80" stroke-width="2" stroke-linecap="round" stroke-linejoin="round"/>
<path d="M26.3167 38.8419H26.2167L24.9917 37.6169C24.2417 36.8586 23.2167 36.4419 22.15 36.4419H12.4167C11.35 36.4419 10.325 36.8669 9.575 37.6169L8.35 38.8419H8.24167C7.31667 38.8419 6.56667 39.5919 6.56667 40.5169H27.9917C27.9917 39.5919 27.2417 38.8419 26.3167 38.8419Z" stroke="#EC6625" stroke-width="2" stroke-linecap="round" stroke-linejoin="round"/>
</svg>
