<svg width="45" height="45" viewBox="0 0 45 45" fill="none" xmlns="http://www.w3.org/2000/svg">
<g id="Coverage for rail, road, air &#38; sea">
<g id="Group">
<path id="Vector" d="M11.58 19.8524C12.6 15.2399 16.245 11.6099 20.8575 10.5974" stroke="#005F94" stroke-width="2" stroke-linecap="round" stroke-linejoin="round"/>
<path id="Vector_2" d="M20.8575 34.4024C16.23 33.3899 12.585 29.7449 11.5725 25.1174" stroke="#005F94" stroke-width="2" stroke-linecap="round" stroke-linejoin="round"/>
<path id="Vector_3" d="M35.34 25.26C34.2825 29.82 30.6675 33.3975 26.085 34.4025" stroke="#005F94" stroke-width="2" stroke-linecap="round" stroke-linejoin="round"/>
<path id="Vector_4" d="M26.085 10.5974C30.6675 11.6024 34.2825 15.1799 35.34 19.7399" stroke="#005F94" stroke-width="2" stroke-linecap="round" stroke-linejoin="round"/>
<g id="Group_2">
<path id="Vector_5" d="M23.475 12.825C24.9372 12.825 26.1225 11.6397 26.1225 10.1775C26.1225 8.71536 24.9372 7.53003 23.475 7.53003C22.0128 7.53003 20.8275 8.71536 20.8275 10.1775C20.8275 11.6397 22.0128 12.825 23.475 12.825Z" stroke="#005F94" stroke-width="2" stroke-linecap="round" stroke-linejoin="round"/>
<path id="Vector_6" d="M23.475 37.47C24.9372 37.47 26.1225 36.2847 26.1225 34.8225C26.1225 33.3604 24.9372 32.175 23.475 32.175C22.0128 32.175 20.8275 33.3604 20.8275 34.8225C20.8275 36.2847 22.0128 37.47 23.475 37.47Z" stroke="#005F94" stroke-width="2" stroke-linecap="round" stroke-linejoin="round"/>
</g>
<g id="Group_3">
<path id="Vector_7" d="M35.7975 25.1475C37.2597 25.1475 38.445 23.9622 38.445 22.5C38.445 21.0379 37.2597 19.8525 35.7975 19.8525C34.3353 19.8525 33.15 21.0379 33.15 22.5C33.15 23.9622 34.3353 25.1475 35.7975 25.1475Z" stroke="#005F94" stroke-width="2" stroke-linecap="round" stroke-linejoin="round"/>
<path id="Vector_8" d="M11.1525 25.1475C12.6147 25.1475 13.8 23.9622 13.8 22.5C13.8 21.0379 12.6147 19.8525 11.1525 19.8525C9.69033 19.8525 8.505 21.0379 8.505 22.5C8.505 23.9622 9.69033 25.1475 11.1525 25.1475Z" stroke="#005F94" stroke-width="2" stroke-linecap="round" stroke-linejoin="round"/>
</g>
<path id="Vector_9" d="M23.475 16.1926C23.475 16.1926 20.2125 18.1126 18.06 17.8501V21.3001C18.06 22.3726 18.27 23.4376 18.705 24.4201C19.4175 26.0251 20.835 28.2901 23.4675 29.7001C26.1 28.2901 27.5175 26.0251 28.23 24.4201C28.665 23.4376 28.875 22.3726 28.875 21.3001V17.8501C26.73 18.1201 23.46 16.1926 23.46 16.1926H23.475Z" stroke="#EC6625" stroke-width="2" stroke-linecap="round" stroke-linejoin="round"/>
</g>
<path id="Vector_10" d="M21.3675 22.9425L22.575 24.15L25.0575 21.6675" stroke="#EC6625" stroke-width="2" stroke-linecap="round" stroke-linejoin="round"/>
</g>
</svg>
