<svg width="40" height="40" viewBox="0 0 40 40" fill="none" xmlns="http://www.w3.org/2000/svg">
<g id="Dedicated claims support">
<path id="Vector" d="M21.8067 21.6468C20.4067 22.4468 18.6933 22.4468 17.3 21.6468L17.2333 21.6068C15.82 20.8001 14.9467 19.2934 14.9467 17.6601V15.6868" stroke="#005F94" stroke-width="2" stroke-linecap="round" stroke-linejoin="round"/>
<path id="Vector_2" d="M13.2667 11.7334V11.4334C13.2667 7.96006 16.08 5.14673 19.5533 5.14673C23.0267 5.14673 25.84 7.96006 25.84 11.4334V11.7334" stroke="#EC6625" stroke-width="2" stroke-linecap="round" stroke-linejoin="round"/>
<path id="Vector_3" d="M15.8333 8.76671C16.7533 7.76004 18.08 7.12671 19.5466 7.12671C20.9333 7.12671 22.1933 7.68671 23.1066 8.60004" stroke="#005F94" stroke-width="2" stroke-linecap="round" stroke-linejoin="round"/>
<path id="Vector_4" d="M13.6467 11.7334H14.94V17.0067H13.6467C12.54 17.0067 11.6467 16.1134 11.6467 15.0067V13.7334C11.6467 12.6267 12.54 11.7334 13.6467 11.7334Z" stroke="#EC6625" stroke-width="2" stroke-linecap="round" stroke-linejoin="round"/>
<path id="Vector_5" d="M25.4533 17.0066H24.16V11.7333H25.4533C26.56 11.7333 27.4533 12.6266 27.4533 13.7333V15.0066C27.4533 16.1133 26.56 17.0066 25.4533 17.0066Z" stroke="#EC6625" stroke-width="2" stroke-linecap="round" stroke-linejoin="round"/>
<path id="Vector_6" d="M25.48 17.0066V17.6333C25.48 18.3733 24.88 18.9733 24.14 18.9733H20.8666" stroke="#EC6625" stroke-width="2" stroke-linecap="round" stroke-linejoin="round"/>
<path id="Vector_7" d="M20.48 17.7534H19.3934C18.83 17.7534 18.3734 18.2101 18.3734 18.7734V19.0801C18.3734 19.6434 18.83 20.1001 19.3934 20.1001H20.48C21.0433 20.1001 21.5 19.6434 21.5 19.0801V18.7734C21.5 18.2101 21.0433 17.7534 20.48 17.7534Z" fill="#EC6625"/>
<path id="Vector_8" d="M15.8333 20.3667V25.0467L9.05999 27.16C6.99999 27.8 5.45999 29.5267 5.05332 31.6467L4.44666 34.7934" stroke="#005F94" stroke-width="2" stroke-linecap="round" stroke-linejoin="round"/>
<path id="Vector_9" d="M24.1667 21.6201V24.9868L30.94 27.1001C33 27.7401 34.54 29.4668 34.9467 31.5868L35.5534 34.7334" stroke="#005F94" stroke-width="2" stroke-linecap="round" stroke-linejoin="round"/>
<path id="Vector_10" d="M16.92 26.8868L18.3733 28.4268L20.2133 27.3468L21.8066 28.4268L23.1067 26.5134" stroke="#005F94" stroke-width="2" stroke-linecap="round" stroke-linejoin="round"/>
<g id="Group">
<path id="Vector_11" d="M18.5 28.3665L19.26 29.6665C19.4533 29.9931 19.5133 30.3798 19.4267 30.7531L18.5 34.8465" stroke="#005F94" stroke-width="2" stroke-linecap="round" stroke-linejoin="round"/>
<path id="Vector_12" d="M21.72 28.2932L21.0467 29.7865C20.9267 30.0465 20.8867 30.3332 20.9267 30.6132L21.5267 34.8532" stroke="#005F94" stroke-width="2" stroke-linecap="round" stroke-linejoin="round"/>
</g>
</g>
</svg>
