<svg width="45" height="45" viewBox="0 0 45 45" fill="none" xmlns="http://www.w3.org/2000/svg">
<g id="Hassle-free claim settlement">
<g id="Group">
<g id="Group_2">
<path id="Vector" d="M26.385 18.3526C31.426 18.3526 35.5125 16.4957 35.5125 14.2051C35.5125 11.9145 31.426 10.0576 26.385 10.0576C21.344 10.0576 17.2575 11.9145 17.2575 14.2051C17.2575 16.4957 21.344 18.3526 26.385 18.3526Z" stroke="#005F94" stroke-width="2" stroke-linecap="round" stroke-linejoin="round"/>
<path id="Vector_2" d="M35.5125 17.5276C35.5125 19.8226 31.425 21.6751 26.385 21.6751C25.74 21.6751 25.1025 21.6451 24.495 21.5851" stroke="#005F94" stroke-width="2" stroke-linecap="round" stroke-linejoin="round"/>
<path id="Vector_3" d="M35.5125 21.3977C35.5125 23.6927 31.425 25.5452 26.385 25.5452C26.0175 25.5452 25.6575 25.5377 25.2975 25.5152" stroke="#005F94" stroke-width="2" stroke-linecap="round" stroke-linejoin="round"/>
<path id="Vector_4" d="M35.5125 25.2751C35.5125 27.5701 31.425 29.4226 26.385 29.4226C26.0775 29.4226 25.77 29.4226 25.4625 29.4001" stroke="#005F94" stroke-width="2" stroke-linecap="round" stroke-linejoin="round"/>
<path id="Vector_5" d="M35.5125 29.145C35.5125 31.44 31.425 33.2925 26.385 33.2925C25.98 33.2925 25.5825 33.2775 25.1925 33.255" stroke="#005F94" stroke-width="2" stroke-linecap="round" stroke-linejoin="round"/>
<path id="Vector_6" d="M23.205 35.7377C24.195 35.9477 25.2675 36.0602 26.385 36.0602C31.2225 36.0602 35.1675 33.9227 35.4825 31.2152H35.5125V13.9277" stroke="#005F94" stroke-width="2" stroke-linecap="round" stroke-linejoin="round"/>
<path id="Vector_7" d="M17.2575 13.9277V18.2177" stroke="#005F94" stroke-width="2" stroke-linecap="round" stroke-linejoin="round"/>
</g>
<path id="Vector_8" d="M15.0525 36.5251C19.4846 36.5251 23.0775 32.9322 23.0775 28.5001C23.0775 24.068 19.4846 20.4751 15.0525 20.4751C10.6204 20.4751 7.0275 24.068 7.0275 28.5001C7.0275 32.9322 10.6204 36.5251 15.0525 36.5251Z" stroke="#EC6625" stroke-width="2" stroke-linecap="round" stroke-linejoin="round"/>
</g>
<path id="Vector_9" d="M17.4525 26.2725H16.4925C16.245 26.2725 16.0875 26.535 16.2075 26.76C16.2675 26.8725 16.3125 26.9925 16.35 27.12C16.3875 27.255 16.515 27.3525 16.6575 27.3525H17.445C17.625 27.3525 17.775 27.5025 17.775 27.6825C17.775 27.8625 17.625 28.0125 17.445 28.0125H16.6725C16.53 28.0125 16.395 28.11 16.3575 28.245C16.1475 29.0625 15.45 29.61 14.43 29.805C14.175 29.8575 14.085 30.1725 14.2725 30.3525C14.9175 30.9675 15.5925 31.6725 16.2675 32.4C16.4625 32.61 16.3125 32.9475 16.0275 32.9475H15.8625C15.555 32.9475 15.2625 32.82 15.0525 32.6025C14.3025 31.8225 13.5375 30.99 12.63 30.15C12.5025 30.0375 12.435 29.8725 12.435 29.7C12.435 29.3625 12.7125 29.085 13.05 29.085H13.1475C14.0025 29.085 14.5875 28.8825 14.91 28.545C15.105 28.3425 14.94 28.005 14.6625 28.005H12.765C12.585 28.005 12.435 27.855 12.435 27.675C12.435 27.495 12.585 27.345 12.765 27.345H14.3775C14.715 27.345 14.8425 26.88 14.535 26.73C14.2275 26.58 13.8225 26.505 13.32 26.505H12.885C12.6375 26.505 12.435 26.3025 12.435 26.055C12.435 25.8075 12.6375 25.605 12.885 25.605H17.4525C17.6325 25.605 17.7825 25.755 17.7825 25.935C17.7825 26.115 17.6325 26.265 17.4525 26.265V26.2725Z" fill="#EC6625"/>
</g>
</svg>
