<svg width="45" height="45" viewBox="0 0 45 45" fill="none" xmlns="http://www.w3.org/2000/svg">
<g id="Instant policy issuance">
<g id="Group">
<path id="Vector" d="M27.6225 37.1025H15.105C13.83 37.1025 12.795 36.0675 12.795 34.7925V16.41C12.795 15.9 12.9975 15.4125 13.3575 15.045L18.4425 9.95996C18.8025 9.59996 19.29 9.39746 19.8075 9.39746H30.63C31.905 9.39746 32.94 10.4325 32.94 11.7075V29.5275" stroke="#005F94" stroke-width="2" stroke-linecap="round" stroke-linejoin="round"/>
<g id="Group_2">
<path id="Vector_2" d="M16.4325 20.2349H27.345" stroke="#005F94" stroke-width="2" stroke-linecap="round" stroke-linejoin="round"/>
<path id="Vector_3" d="M16.4325 24.1724H27.345" stroke="#005F94" stroke-width="2" stroke-linecap="round" stroke-linejoin="round"/>
<path id="Vector_4" d="M16.4325 29.085H20.4975" stroke="#005F94" stroke-width="2" stroke-linecap="round" stroke-linejoin="round"/>
</g>
<path id="Vector_5" d="M33.525 36.075L32.7075 39.3075C32.6025 39.735 32.025 39.795 31.83 39.405L27.5625 30.9675C27.3675 30.5775 27.75 30.1575 28.155 30.315L36.975 33.735C37.38 33.8925 37.3725 34.47 36.9675 34.62L33.8325 35.7525C33.6825 35.805 33.57 35.9325 33.5325 36.0825L33.525 36.075Z" fill="#EC6625"/>
</g>
<path id="Vector_6" d="M13.4625 15.6526H19.2225V12.4351" stroke="#005F94" stroke-width="2" stroke-linecap="round" stroke-linejoin="round"/>
</g>
</svg>
