<svg width="60" height="60" viewBox="0 0 60 60" fill="none" xmlns="http://www.w3.org/2000/svg">
<path d="M27.03 22.5C27.99 22.34 28.98 22.25 30 22.25C39.71 22.25 47.58 30.12 47.58 39.83" stroke="#004A7F" stroke-width="2" stroke-linecap="round" stroke-linejoin="round"/>
<path d="M12.42 39.8398C12.42 33.7698 15.5 28.4198 20.17 25.2598" stroke="#004A7F" stroke-width="2" stroke-linecap="round" stroke-linejoin="round"/>
<path d="M15.8 29.4898L20.11 33.5298C21.23 34.5798 22.04 35.9098 22.45 37.3898L23.08 39.6598C23.37 40.6898 24.3 41.3998 25.37 41.3998C26.68 41.3998 27.74 40.3398 27.74 39.0298V33.2098C27.74 31.7698 27.92 30.3398 28.28 28.9498L30 22.2598" stroke="#004A7F" stroke-width="2" stroke-linecap="round" stroke-linejoin="round"/>
<path d="M39.08 24.7998L39.04 29.4698C39.04 30.4898 38.68 31.4698 38.05 32.2698L35.99 34.8698C35.28 35.7598 35.99 37.0698 37.12 36.9698L39.35 36.7798C40.39 36.6898 41.36 36.2298 42.08 35.4898L45.64 31.8398" stroke="#004A7F" stroke-width="2" stroke-linecap="round" stroke-linejoin="round"/>
<path d="M27.47 20.8701C27.47 23.3901 22.91 28.2001 22.91 28.2001C22.91 28.2001 18.35 23.3901 18.35 20.8701C18.35 18.3501 20.39 16.3101 22.91 16.3101C25.43 16.3101 27.47 18.3501 27.47 20.8701Z" stroke="#EC6625" stroke-width="2" stroke-linecap="round" stroke-linejoin="round"/>
<path d="M22.9 22.2502C23.8058 22.2502 24.54 21.516 24.54 20.6102C24.54 19.7045 23.8058 18.9702 22.9 18.9702C21.9943 18.9702 21.26 19.7045 21.26 20.6102C21.26 21.516 21.9943 22.2502 22.9 22.2502Z" stroke="#EC6625" stroke-width="2" stroke-linecap="round" stroke-linejoin="round"/>
</svg>
