<svg width="60" height="60" viewBox="0 0 60 60" fill="none" xmlns="http://www.w3.org/2000/svg">
<path d="M48.18 30C48.18 39.96 40.1 48.04 30.14 48.04C23.28 48.04 17.32 44.21 14.27 38.58" stroke="#EC6625" stroke-width="2" stroke-linecap="round" stroke-linejoin="round"/>
<path d="M12.11 30C12.11 20.04 20.19 11.96 30.15 11.96C36.83 11.96 42.65 15.59 45.77 20.98" stroke="#EC6625" stroke-width="2" stroke-linecap="round" stroke-linejoin="round"/>
<path d="M45.16 31.9601L48.06 29.3901L50.63 32.2801" stroke="#EC6625" stroke-width="2" stroke-linecap="round" stroke-linejoin="round"/>
<path d="M14.84 28.8798L11.94 31.4498L9.37 28.5498" stroke="#EC6625" stroke-width="2" stroke-linecap="round" stroke-linejoin="round"/>
<path d="M30 41.77C36.5004 41.77 41.77 36.5004 41.77 30C41.77 23.4996 36.5004 18.23 30 18.23C23.4996 18.23 18.23 23.4996 18.23 30C18.23 36.5004 23.4996 41.77 30 41.77Z" stroke="#004A7F" stroke-width="2" stroke-linecap="round" stroke-linejoin="round"/>
<path d="M21.25 22.1499L22.91 23.3699C23.45 23.7699 23.89 24.2999 24.18 24.9099C24.56 25.7099 25.2 26.3699 25.99 26.7799L26.05 26.8099C26.62 27.0999 27.31 26.8199 27.51 26.2199L27.78 25.3999V23.2199C27.78 22.5399 28.06 21.8999 28.55 21.4299L31.76 18.3799" stroke="#004A7F" stroke-width="2" stroke-linecap="round" stroke-linejoin="round"/>
<path d="M39.87 23.6099L36.73 25.7599C35.76 26.4199 35.45 27.6999 36 28.7299C36.23 29.1499 36.28 29.6399 36.16 30.1099L35.24 33.6299C35.11 34.1399 34.77 34.5699 34.31 34.8199L33.77 35.1099C32.95 35.5599 33.01 36.7499 33.86 37.1199L37.79 38.8099" stroke="#004A7F" stroke-width="2" stroke-linecap="round" stroke-linejoin="round"/>
<path d="M18.23 30H20.84C21.6 30 22.06 30.84 21.64 31.48L19.35 35.01" stroke="#004A7F" stroke-width="2" stroke-linecap="round" stroke-linejoin="round"/>
</svg>
