<svg width="60" height="60" viewBox="0 0 60 60" fill="none" xmlns="http://www.w3.org/2000/svg">
<path d="M14.8 45.0099V15.4099C14.8 14.3099 15.69 13.4199 16.79 13.4199H41.15C42.25 13.4199 43.14 14.3099 43.14 15.4099V44.8299C43.14 47.8099 40.72 50.2299 37.74 50.2299C37.74 50.2299 16.42 50.1599 15.85 50.1499C13.02 50.1099 10.74 47.8299 10.74 44.9999C10.74 45.1099 25.97 45.0499 32.95 45.0199C34.6 45.0199 35.97 46.1599 36.38 47.7599C36.62 48.6899 37.18 49.6199 38.39 50.0899" stroke="#004A80" stroke-width="2" stroke-linecap="round" stroke-linejoin="round"/>
<path d="M36.74 24.0399H19.94C19.47 24.0399 19.1 23.6599 19.1 23.1999C19.1 22.7399 19.48 22.3599 19.94 22.3599H36.74C37.21 22.3599 37.58 22.7399 37.58 23.1999C37.58 23.6599 37.2 24.0399 36.74 24.0399Z" fill="#EC6625"/>
<path d="M36.74 30.0799H19.94C19.47 30.0799 19.1 29.6999 19.1 29.2399C19.1 28.7799 19.48 28.3999 19.94 28.3999H36.74C37.21 28.3999 37.58 28.7799 37.58 29.2399C37.58 29.6999 37.2 30.0799 36.74 30.0799Z" fill="#EC6625"/>
<path d="M27.79 36.1199H19.79C19.32 36.1199 18.95 35.7399 18.95 35.2799C18.95 34.8199 19.33 34.4399 19.79 34.4399H27.79C28.26 34.4399 28.63 34.8199 28.63 35.2799C28.63 35.7399 28.25 36.1199 27.79 36.1199Z" fill="#EC6625"/>
</svg>
