<svg width="60" height="60" viewBox="0 0 60 60" fill="none" xmlns="http://www.w3.org/2000/svg">
<path d="M10.91 45.4301C10.91 35.7201 18.78 27.8501 28.49 27.8501C38.2 27.8501 46.07 35.7201 46.07 45.4301" stroke="#004A7F" stroke-width="2" stroke-linecap="round" stroke-linejoin="round"/>
<path d="M30.16 22.5801C35.89 22.9601 41.09 25.2601 45.12 28.8601" stroke="#EC6625" stroke-width="2" stroke-linecap="round" stroke-linejoin="round"/>
<path d="M10.28 30.3902C14.22 26.2102 20.1 23.1602 26.11 22.4702" stroke="#EC6625" stroke-width="2" stroke-linecap="round" stroke-linejoin="round"/>
<path d="M14.3 35.0801L18.61 39.1201C19.73 40.1701 20.54 41.5001 20.95 42.9801L21.58 45.2501C21.87 46.2801 22.8 46.9901 23.87 46.9901C25.18 46.9901 26.24 45.9301 26.24 44.6201V38.8001C26.24 37.3601 26.42 35.9301 26.78 34.5401L28.5 27.8501" stroke="#004A7F" stroke-width="2" stroke-linecap="round" stroke-linejoin="round"/>
<path d="M37.58 30.3901L37.54 35.0601C37.54 36.0801 37.18 37.0601 36.55 37.8601L34.49 40.4601C33.78 41.3501 34.49 42.6601 35.62 42.5601L37.85 42.3701C38.89 42.2801 39.86 41.8201 40.58 41.0801L44.14 37.4301" stroke="#004A7F" stroke-width="2" stroke-linecap="round" stroke-linejoin="round"/>
<path d="M32.74 17.5698C32.74 20.0898 28.18 24.8998 28.18 24.8998C28.18 24.8998 23.62 20.0898 23.62 17.5698C23.62 15.0498 25.66 13.0098 28.18 13.0098C30.7 13.0098 32.74 15.0498 32.74 17.5698Z" stroke="#EC6625" stroke-width="2" stroke-linecap="round" stroke-linejoin="round"/>
<path d="M28.18 18.9499C29.0857 18.9499 29.82 18.2157 29.82 17.3099C29.82 16.4042 29.0857 15.6699 28.18 15.6699C27.2742 15.6699 26.54 16.4042 26.54 17.3099C26.54 18.2157 27.2742 18.9499 28.18 18.9499Z" stroke="#EC6625" stroke-width="2" stroke-linecap="round" stroke-linejoin="round"/>
</svg>
