<svg width="45" height="45" viewBox="0 0 45 45" fill="none" xmlns="http://www.w3.org/2000/svg">
<path d="M20.9925 14.865L7.92 23.295" stroke="#005F94" stroke-width="2" stroke-linecap="round" stroke-linejoin="round"/>
<path d="M22.5 5.04004V11.7825" stroke="#005F94" stroke-width="2" stroke-linecap="round" stroke-linejoin="round"/>
<path d="M37.08 23.2951L23.6925 14.6626" stroke="#005F94" stroke-width="2" stroke-linecap="round" stroke-linejoin="round"/>
<path d="M37.0725 23.2949H7.92V36.7799H37.0725V23.2949Z" stroke="#EC6625" stroke-width="2" stroke-linecap="round" stroke-linejoin="round"/>
<path d="M14.325 26.4224V33.3749" stroke="#EC6625" stroke-width="2" stroke-linecap="round" stroke-linejoin="round"/>
<path d="M19.7775 26.4224V33.3749" stroke="#EC6625" stroke-width="2" stroke-linecap="round" stroke-linejoin="round"/>
<path d="M25.2225 26.4224V33.3749" stroke="#EC6625" stroke-width="2" stroke-linecap="round" stroke-linejoin="round"/>
<path d="M30.675 26.4224V33.3749" stroke="#EC6625" stroke-width="2" stroke-linecap="round" stroke-linejoin="round"/>
<path d="M22.6575 11.7825H21.8625C21.0879 11.7825 20.46 12.4104 20.46 13.185V13.98C20.46 14.7545 21.0879 15.3825 21.8625 15.3825H22.6575C23.4321 15.3825 24.06 14.7545 24.06 13.98V13.185C24.06 12.4104 23.4321 11.7825 22.6575 11.7825Z" stroke="#005F94" stroke-width="2" stroke-linecap="round" stroke-linejoin="round"/>
</svg>
