<svg width="50" height="50" viewBox="0 0 50 50" fill="none" xmlns="http://www.w3.org/2000/svg">
<path d="M11.7833 24.7833C12.9167 19.6583 16.9667 15.625 22.0917 14.5" stroke="#005F94" stroke-width="2" stroke-linecap="round" stroke-linejoin="round"/>
<path d="M22.0916 40.95C16.95 39.825 12.9 35.775 11.775 30.6333" stroke="#005F94" stroke-width="2" stroke-linecap="round" stroke-linejoin="round"/>
<path d="M38.1917 30.792C37.0167 35.8587 33 39.8337 27.9083 40.9503" stroke="#005F94" stroke-width="2" stroke-linecap="round" stroke-linejoin="round"/>
<path d="M27.9083 14.5C33 15.6167 37.0167 19.5917 38.1917 24.6583" stroke="#005F94" stroke-width="2" stroke-linecap="round" stroke-linejoin="round"/>
<path d="M25 16.9751C26.6246 16.9751 27.9416 15.6581 27.9416 14.0335C27.9416 12.4088 26.6246 11.0918 25 11.0918C23.3753 11.0918 22.0583 12.4088 22.0583 14.0335C22.0583 15.6581 23.3753 16.9751 25 16.9751Z" stroke="#005F94" stroke-width="2" stroke-linecap="round" stroke-linejoin="round"/>
<path d="M25 44.3584C26.6246 44.3584 27.9416 43.0414 27.9416 41.4168C27.9416 39.7921 26.6246 38.4751 25 38.4751C23.3753 38.4751 22.0583 39.7921 22.0583 41.4168C22.0583 43.0414 23.3753 44.3584 25 44.3584Z" stroke="#005F94" stroke-width="2" stroke-linecap="round" stroke-linejoin="round"/>
<path d="M38.6917 30.667C40.3163 30.667 41.6333 29.35 41.6333 27.7254C41.6333 26.1007 40.3163 24.7837 38.6917 24.7837C37.067 24.7837 35.75 26.1007 35.75 27.7254C35.75 29.35 37.067 30.667 38.6917 30.667Z" stroke="#005F94" stroke-width="2" stroke-linecap="round" stroke-linejoin="round"/>
<path d="M11.3083 30.667C12.9329 30.667 14.25 29.35 14.25 27.7254C14.25 26.1007 12.9329 24.7837 11.3083 24.7837C9.68367 24.7837 8.36664 26.1007 8.36664 27.7254C8.36664 29.35 9.68367 30.667 11.3083 30.667Z" stroke="#005F94" stroke-width="2" stroke-linecap="round" stroke-linejoin="round"/>
<path d="M24.9999 20.7168C24.9999 20.7168 21.3749 22.8501 18.9833 22.5585V26.3918C18.9833 27.5835 19.2166 28.7668 19.6999 29.8585C20.4916 31.6418 22.0666 34.1585 24.9916 35.7251C27.9166 34.1585 29.4916 31.6418 30.2833 29.8585C30.7666 28.7668 30.9999 27.5835 30.9999 26.3918V22.5585C28.6166 22.8585 24.9833 20.7168 24.9833 20.7168H24.9999Z" stroke="#EC6625" stroke-width="2" stroke-linecap="round" stroke-linejoin="round"/>
<path d="M22.6583 28.2165L24 29.5581L26.7583 26.7998" stroke="#EC6625" stroke-width="2" stroke-linecap="round" stroke-linejoin="round"/>
</svg>
